<svg width="58" height="58" viewBox="0 0 58 58" fill="none" xmlns="http://www.w3.org/2000/svg">
<g filter="url(#filter0_d)">
<path d="M29 0C15.2069 0 4 11.2069 4 25C4 38.7931 15.2069 50 29 50C42.7931 50 54 38.7931 54 25C54 11.2069 42.7147 0 29 0Z" fill="white"/>
<path d="M41.6175 7.05328C39.7366 11.9122 35.3479 12.931 29.0783 12.931C28.373 12.931 27.746 12.931 27.1191 12.931C26.4921 12.931 25.9435 12.931 25.3165 12.931C24.768 12.931 24.2977 12.931 23.7491 12.931C24.6112 10.7367 26.0219 9.32601 28.0595 8.38557C30.8808 7.13165 34.4858 7.13165 37.699 7.13165C39.0313 7.13165 40.3636 7.13165 41.6175 7.05328Z" fill="#008F3B"/>
<path d="M43.5768 8.62068C40.7555 14.7335 34.4859 15.3605 29.0784 15.3605C27.9029 15.3605 26.7273 15.3605 25.7085 15.3605L24.3762 20.6896C31.3511 15.047 40.5204 20.6113 39.5016 29.1536C38.8746 34.8746 34.721 38.6363 30.4107 39.7335C25.7085 40.9091 20.4577 39.1849 18.1066 34.326C17.8715 33.7774 17.4013 32.7586 17.2445 32.2884L22.2602 31.0345C22.3386 31.3479 22.4953 31.5831 22.6521 31.8182C26.022 37.2257 32.7618 34.4827 33.5455 28.9185C34.3292 23.1975 26.3355 20.2194 22.7304 26.8809L18.3417 25H18.2634L20.3793 16.4577C20.5361 15.8307 20.9279 14.1849 21.0063 13.8715C23.4358 5.01567 31.1944 4.85893 37.464 4.85893C34.8778 3.76175 32.0565 3.21316 29.0784 3.21316C16.8527 3.05642 7.05646 12.8527 7.05646 25C7.05646 37.069 16.8527 46.8652 28.9217 46.8652C40.9906 46.8652 50.7869 37.069 50.7869 25C50.8652 18.4953 48.0439 12.6175 43.5768 8.62068Z" fill="#E22222"/>
</g>
<defs>
<filter id="filter0_d" x="0" y="0" width="58" height="58" filterUnits="userSpaceOnUse" color-interpolation-filters="sRGB">
<feFlood flood-opacity="0" result="BackgroundImageFix"/>
<feColorMatrix in="SourceAlpha" type="matrix" values="0 0 0 0 0 0 0 0 0 0 0 0 0 0 0 0 0 0 127 0" result="hardAlpha"/>
<feOffset dy="4"/>
<feGaussianBlur stdDeviation="2"/>
<feComposite in2="hardAlpha" operator="out"/>
<feColorMatrix type="matrix" values="0 0 0 0 0 0 0 0 0 0 0 0 0 0 0 0 0 0 0.25 0"/>
<feBlend mode="normal" in2="BackgroundImageFix" result="effect1_dropShadow"/>
<feBlend mode="normal" in="SourceGraphic" in2="effect1_dropShadow" result="shape"/>
</filter>
</defs>
</svg>
