<svg width="398" height="187" viewBox="0 0 398 187" fill="none" xmlns="http://www.w3.org/2000/svg">
<g filter="url(#filter0_d)">
<path d="M102.842 172.68C102.902 173.41 102.742 173.68 101.702 173.75L92.8923 174.51C91.7423 174.61 91.5923 174.37 91.5123 173.34L90.1423 159.56C90.0023 157.86 89.7323 151.15 89.7423 148.45C89.2223 151.62 88.1923 156.73 87.9423 158.16L86.5923 165.43C86.4323 166.43 86.2423 166.43 85.2723 166.53L79.8623 166.99C78.8623 167.07 78.7123 167.09 78.3823 166.08L76.0123 159.18C75.5123 157.69 73.8023 152.63 72.8923 149.89C73.3023 152.61 73.8923 159.23 74.0823 160.89L75.1423 174.7C75.2323 175.79 75.0623 175.99 74.0323 176.08L65.1023 176.85C64.1023 176.93 63.8623 176.71 63.8023 175.98L62.9123 136.26C62.9123 135.26 63.0523 135.02 64.0823 134.93L73.4423 134.13C74.3523 134.06 74.5423 134.13 74.9223 134.99L79.6523 146.58C80.2823 148.18 81.0323 150.5 81.6023 152.23C81.8823 150.43 82.4023 148 82.7523 146.38L85.6223 134.07C85.8423 133.13 85.9023 133.07 86.8723 132.98L95.8723 132.21C96.8723 132.13 97.1023 132.29 97.2523 133.32L102.842 172.31V172.68Z" fill="#FEF035"/>
<path d="M143.322 170.91C143.322 171.46 143.052 171.66 142.142 171.7L131.842 172.21C130.842 172.26 130.742 172.21 130.452 171.21L127.702 162.61L119.702 163.01L117.632 171.84C117.382 172.84 117.382 172.89 116.412 172.94L106.902 173.41C105.902 173.46 105.612 173.23 105.592 172.87C105.613 172.572 105.68 172.278 105.792 172L116.592 132.07C116.792 131.15 116.842 131.02 117.882 130.97L126.962 130.52C127.962 130.52 127.962 130.52 128.412 131.52L143.142 170.19C143.223 170.424 143.283 170.665 143.322 170.91ZM124.022 147.43C123.632 145.74 122.922 142.36 122.582 140.54C122.442 142.54 122.172 145.75 121.892 147.54L120.662 154.75L125.592 154.5L124.022 147.43Z" fill="#FEF035"/>
<path d="M170.722 138.28C170.552 139.14 170.382 139.28 169.462 139.35L162.082 139.53L162.842 169.96C162.842 171.12 162.842 171.24 161.652 171.27L152.322 171.5C151.162 171.5 151.042 171.41 151.012 170.25L150.252 139.83L142.392 140.02C141.232 140.02 141.112 139.93 141.082 138.77L140.892 131.15C140.892 130.15 140.982 129.93 142.142 129.9L170.802 129.19C171.712 129.19 171.962 129.34 171.972 129.89C171.999 130.136 171.999 130.384 171.972 130.63L170.722 138.28Z" fill="#FEF035"/>
<path d="M194.192 155.12C191.856 156.247 189.285 156.799 186.692 156.73C184.192 156.73 180.472 156.39 177.692 153.9C174.692 151.23 174.562 148.12 174.552 145.25L174.492 130.12C174.492 129.12 175.032 129.12 175.342 129.12H185.532C185.772 129.12 186.322 129.12 186.322 129.91L186.382 143.21C186.382 147.21 188.532 147.9 190.382 147.89C191.709 147.897 193.013 147.552 194.162 146.89L194.092 130.05C194.092 129.05 194.572 129.05 195.002 129.05H205.002C205.912 129.05 206.002 129.35 206.002 129.65V129.83L206.172 170.28C206.172 170.59 206.112 170.89 205.172 170.89H195.172C194.862 170.89 194.312 170.84 194.312 169.98L194.192 155.12Z" fill="#FEF035"/>
<path d="M246.842 171.1C246.842 171.65 246.512 171.82 245.602 171.8L235.292 171.53C234.292 171.53 234.202 171.44 233.982 170.46L231.892 161.68L223.892 161.48L221.162 170.13C220.832 171.13 220.832 171.13 219.862 171.13L210.352 170.88C209.352 170.88 209.072 170.6 209.082 170.24C209.124 169.944 209.215 169.656 209.352 169.39L223.102 130.39C223.372 129.48 223.442 129.39 224.472 129.39L233.562 129.62C234.562 129.62 234.562 129.71 234.932 130.7L246.722 170.35C246.783 170.596 246.823 170.847 246.842 171.1ZM229.362 146.24C229.102 144.53 228.632 141.1 228.442 139.24C228.142 141.19 227.632 144.41 227.222 146.17L225.452 153.26L230.392 153.39L229.362 146.24Z" fill="#FEF035"/>
<path d="M288.942 173.43C288.892 174.16 288.692 174.43 287.662 174.32L278.832 173.76C277.672 173.69 277.562 173.44 277.632 172.4L278.332 158.57C278.442 156.86 279.172 150.19 279.592 147.52C278.592 150.58 276.822 155.52 276.362 156.85L273.962 163.85C273.652 164.85 273.472 164.8 272.502 164.74L267.082 164.39C266.082 164.33 265.922 164.32 265.742 163.27L264.432 156.09C264.162 154.55 263.212 149.29 262.722 146.44C262.722 149.2 262.372 155.84 262.262 157.54L261.262 171.35C261.192 172.45 261.002 172.62 259.962 172.55L250.962 171.98C249.962 171.92 249.762 171.66 249.812 170.93L254.812 131.52C254.942 130.52 255.142 130.31 256.172 130.38L265.552 130.98C266.462 131.04 266.642 131.11 266.882 132.04L269.882 144.21C270.262 145.89 270.652 148.3 270.972 150.09C271.512 148.35 272.392 146.02 272.972 144.47L277.632 132.73C277.992 131.83 278.062 131.78 279.032 131.84L288.032 132.42C289.032 132.48 289.242 132.68 289.232 133.71L288.922 173.06L288.942 173.43Z" fill="#FEF035"/>
<path d="M327.662 177.89C327.592 178.56 327.162 178.57 326.662 178.52L317.512 177.52C316.842 177.44 316.562 177.23 316.642 176.52L318.312 161.37C318.642 158.37 319.572 153.37 319.982 151.3H319.672C317.843 155.368 315.807 159.34 313.572 163.2L306.842 175.35C306.729 175.604 306.544 175.818 306.309 175.966C306.073 176.114 305.8 176.188 305.522 176.18L295.102 175.03C295.002 175.033 294.902 175.013 294.81 174.971C294.719 174.929 294.638 174.866 294.575 174.787C294.512 174.709 294.468 174.617 294.447 174.518C294.426 174.42 294.427 174.318 294.452 174.22L298.862 134.22C298.942 133.49 299.272 133.34 299.932 133.42L309.272 134.42C309.373 134.417 309.473 134.437 309.564 134.48C309.656 134.522 309.736 134.585 309.799 134.663C309.862 134.742 309.906 134.834 309.928 134.932C309.949 135.031 309.947 135.133 309.922 135.23L308.602 147.17C308.202 150.75 306.922 157.91 306.812 158.39H307.172C309.762 153.27 310.862 151.68 313.262 147.15L318.992 136.43C319.109 136.179 319.307 135.975 319.553 135.848C319.799 135.721 320.08 135.68 320.352 135.73L331.212 136.93C331.752 136.99 332.212 137.15 332.082 137.88L327.662 177.89Z" fill="#FEF035"/>
<path d="M54.3223 67.4302C54.8823 71.2302 42.9023 76.2703 37.0123 77.1303C18.5823 79.8103 7.89224 67.6802 4.77224 46.2102C3.13224 34.9102 3.92225 26.3503 8.91225 19.3203C10.9549 16.4442 13.5736 14.0245 16.6018 12.2152C19.6301 10.4058 23.0017 9.24625 26.5022 8.81025C32.5022 7.94025 40.0322 9.17024 44.9422 12.2402C45.7922 12.7002 46.2322 13.1202 46.3322 13.7902C46.3434 14.0849 46.3233 14.3798 46.2722 14.6702L43.2722 26.2602C43.226 26.4875 43.1126 26.6957 42.9469 26.8579C42.7811 27.0201 42.5705 27.1289 42.3422 27.1702C42.0763 27.1878 41.8093 27.1608 41.5522 27.0902C38.3022 26.0902 33.6122 23.2003 29.1522 23.8503C24.6922 24.5003 21.2323 28.7802 23.1023 41.6102C25.5523 58.5202 30.8022 62.6102 36.0322 61.8402C42.0322 60.9702 45.9122 55.7503 46.7722 55.6303C47.0522 55.6303 47.3822 55.8302 47.7722 56.3602L53.9922 66.4302C54.1973 66.7243 54.312 67.0719 54.3223 67.4302Z" fill="#FEF035"/>
<path d="M81.6922 25.0902C82.1822 31.0202 82.6922 38.3902 82.6322 44.7502C82.6322 50.7502 82.2222 59.6202 77.0522 65.8302C72.5722 71.1102 64.3022 73.5302 61.0522 73.8302C59.8022 73.9402 59.3922 73.5902 59.1622 73.1202L54.5722 61.9402C54.5722 61.8502 54.4622 61.7602 54.4522 61.6602C54.4335 61.3653 54.5048 61.0717 54.6566 60.8182C54.8083 60.5646 55.0335 60.3631 55.3022 60.2402L56.9922 59.7202C59.2522 59.0502 61.6022 58.3802 63.3522 56.2102C67.8322 50.9302 65.5422 31.3702 64.5422 19.2102L63.6022 7.83022C63.566 7.5681 63.5871 7.30124 63.664 7.04805C63.7408 6.79486 63.8717 6.56138 64.0476 6.36366C64.2234 6.16595 64.4401 6.00869 64.6826 5.90279C64.9251 5.79688 65.1876 5.74485 65.4522 5.75023L104.292 2.54021C104.549 2.4866 104.814 2.49239 105.068 2.55708C105.322 2.62178 105.558 2.74368 105.758 2.9135C105.958 3.08331 106.116 3.29654 106.221 3.53688C106.325 3.77722 106.374 4.03831 106.362 4.30022L111.482 66.3002C111.572 67.4502 111.622 68.0302 110.182 68.1502L95.3522 69.3702C93.9222 69.4902 93.6022 69.1302 93.5022 67.8802L89.5022 18.9902L81.2722 19.6702L81.6922 25.0902Z" fill="#FEF035"/>
<path d="M158.772 13.7802C158.632 15.1302 157.962 15.3402 156.712 15.3902L138.012 16.0702L138.362 25.6602L153.802 25.1002C155.432 25.0402 155.802 25.2202 155.892 27.0402L156.292 38.0402C156.352 39.6802 155.982 39.9802 154.352 40.0402L138.902 40.6002L139.312 51.8202L159.312 51.0902C161.132 51.0302 161.242 51.3102 161.312 52.9402L161.712 64.0702C161.782 65.8902 161.712 66.0702 159.872 66.1502L123.222 67.4902C121.402 67.5602 121.222 67.3702 121.142 65.5502L118.882 3.67022C118.822 2.04022 119.002 1.75022 120.832 1.67022L158.242 0.310233C159.682 0.250233 160.072 0.530233 160.102 1.31023C160.085 1.73019 160.035 2.14815 159.952 2.56023L158.772 13.7802Z" fill="#FEF035"/>
<path d="M180.842 65.8503L180.772 80.1502C180.772 81.3002 180.292 81.4902 179.332 81.4902L166.332 81.4202C165.272 81.4202 164.792 81.1302 164.802 79.9802L164.932 52.6202C164.932 51.1802 165.812 50.9002 166.572 50.9002H170.802C175.742 41.9002 177.702 33.6602 177.802 14.5502L177.942 1.43024C177.942 0.28024 178.432 -0.00975253 179.482 0.000247472L219.032 0.19025C219.802 0.19025 220.472 0.300254 220.462 1.35025L220.222 51.1702H225.022C225.25 51.147 225.481 51.1768 225.696 51.2573C225.91 51.3378 226.104 51.4667 226.261 51.6342C226.417 51.8016 226.533 52.0029 226.6 52.2225C226.666 52.4421 226.68 52.6741 226.642 52.9002L226.512 80.5502C226.539 80.7081 226.527 80.87 226.478 81.0223C226.429 81.1746 226.344 81.3129 226.23 81.4256C226.116 81.5383 225.977 81.622 225.825 81.6698C225.672 81.7176 225.51 81.728 225.352 81.7002L212.012 81.6302C211.012 81.6302 210.572 81.3302 210.572 80.1802L210.642 65.9802L180.842 65.8503ZM202.502 14.9802H194.252L194.202 24.3902C194.1 29.1735 193.497 33.9328 192.402 38.5902C191.568 42.9239 190.127 47.1184 188.122 51.0502L202.322 51.1202L202.502 14.9802Z" fill="#FEF035"/>
<path d="M284.022 67.7402C284.022 68.8002 283.292 68.8602 282.532 68.8202L268.052 68.0502C266.992 68.0002 266.532 67.6902 266.592 66.5302L267.852 42.5302C268.102 37.8302 269.102 29.8102 269.562 26.5302H269.082C267.842 29.9202 266.082 34.2502 260.572 45.7902L251.062 65.5702C250.911 65.9821 250.64 66.339 250.283 66.5941C249.926 66.8492 249.501 66.9908 249.062 67.0002L232.572 66.1402C232.413 66.1588 232.251 66.1388 232.102 66.0819C231.952 66.025 231.817 65.9329 231.711 65.8132C231.604 65.6936 231.527 65.55 231.487 65.3946C231.448 65.2392 231.446 65.0765 231.482 64.9202L234.842 1.80022C234.902 0.640218 235.392 0.380233 236.442 0.440233L251.212 1.22023C251.371 1.20211 251.531 1.22206 251.68 1.27846C251.829 1.33485 251.962 1.42604 252.069 1.54442C252.176 1.6628 252.252 1.80495 252.293 1.95903C252.334 2.11311 252.337 2.27467 252.302 2.43022L251.302 21.3102C251.012 26.9702 249.642 38.3102 249.502 39.1002H250.082C253.692 30.8302 255.262 28.2202 258.632 20.9002L266.632 3.35024C266.796 2.94455 267.088 2.60361 267.463 2.37966C267.839 2.1557 268.278 2.06104 268.712 2.11022L285.872 3.01021C286.742 3.06021 287.402 3.29023 287.342 4.44023L284.022 67.7402Z" fill="#FEF035"/>
<path d="M341.462 23.3402C341.022 24.6402 340.702 24.9002 339.272 24.7302L327.732 23.4302L322.372 71.0402C322.172 72.8502 322.052 73.0402 320.242 72.8302L305.642 71.1802C303.832 70.9802 303.642 70.7702 303.862 68.9502L309.222 21.3502L296.922 19.9602C295.102 19.7602 294.922 19.5502 295.142 17.7402L296.482 5.81024C296.662 4.19024 296.892 3.92025 298.702 4.13025L343.542 9.18024C344.972 9.34024 345.322 9.67024 345.222 10.5302C345.185 10.913 345.111 11.2914 345.002 11.6602L341.462 23.3402Z" fill="#FEF035"/>
<path d="M389.382 30.9502C388.952 32.2402 388.252 32.3103 387.032 32.0903L368.612 28.7203L366.842 38.1603L382.052 40.9403C383.652 41.2403 384.052 41.4902 383.672 43.2902L381.672 54.1503C381.382 55.7503 380.952 55.9702 379.342 55.6702L364.142 52.8902L362.142 63.9403L381.882 67.5502C383.672 67.8802 383.712 68.1802 383.422 69.7902L381.422 80.7402C381.092 82.5303 380.962 82.7403 379.162 82.3803L343.092 75.7803C341.292 75.4503 341.142 75.2303 341.472 73.4303L352.612 12.5202C352.902 10.9202 353.142 10.6703 354.942 11.0003L391.842 17.7302C393.262 17.9902 393.582 18.3403 393.442 19.1003C393.338 19.5074 393.201 19.9054 393.032 20.2902L389.382 30.9502Z" fill="#FEF035"/>
<path d="M176.912 96.6102C176.896 96.5032 176.905 96.3938 176.938 96.2907C176.971 96.1876 177.027 96.0936 177.103 96.016C177.179 95.9385 177.271 95.8796 177.373 95.8439C177.476 95.8081 177.585 95.7966 177.692 95.8103H178.532C180.272 95.8103 182.292 95.2702 182.282 93.0102C182.305 92.6174 182.242 92.2243 182.097 91.8584C181.952 91.4926 181.729 91.1628 181.443 90.8923C181.157 90.6217 180.816 90.4169 180.443 90.2922C180.069 90.1675 179.673 90.1258 179.282 90.1702C178.461 90.1941 177.658 90.4172 176.942 90.8203C176.232 91.2303 175.562 91.9802 174.892 91.9902C174.692 91.9902 174.572 91.9102 174.532 91.7902L172.722 88.3203C172.649 88.1848 172.608 88.0342 172.602 87.8803C172.607 87.727 172.645 87.5765 172.712 87.4386C172.779 87.3008 172.875 87.1786 172.992 87.0802C174.992 85.0802 178.172 84.4303 180.792 84.4103C183.412 84.3903 189.522 85.3002 189.572 91.7602C189.572 93.7602 188.692 96.8502 185.682 97.8602C187.153 98.2534 188.441 99.1459 189.326 100.385C190.211 101.624 190.637 103.132 190.532 104.65C190.592 112.31 184.052 112.95 181.272 112.97C179.414 113.012 177.563 112.745 175.792 112.18C174.562 111.75 172.412 110.73 172.402 109.66C172.393 109.525 172.42 109.39 172.482 109.27L174.122 105.48C174.15 105.398 174.202 105.327 174.272 105.277C174.342 105.227 174.426 105.2 174.512 105.2C174.701 105.216 174.881 105.286 175.032 105.4C176.222 106.14 176.872 107.25 179.882 107.23C181.352 107.23 183.252 106.45 183.232 104.11C183.212 101.77 181.502 101.03 179.442 101.04H177.732C177.626 101.055 177.517 101.044 177.415 101.01C177.313 100.977 177.22 100.92 177.142 100.845C177.065 100.77 177.006 100.678 176.97 100.577C176.934 100.475 176.921 100.367 176.932 100.26L176.912 96.6102Z" fill="#FEF035"/>
<path d="M215.672 111.91C215.672 112.26 215.472 112.38 214.882 112.38L208.172 112.32C207.502 112.32 207.462 112.32 207.312 111.64L205.842 105.96H200.652L198.972 111.62C198.772 112.26 198.772 112.3 198.142 112.29L191.952 112.24C191.312 112.24 191.112 112.08 191.122 111.84C191.143 111.646 191.197 111.456 191.282 111.28L199.782 85.7602C199.942 85.1702 199.982 85.0902 200.662 85.0902L206.572 85.1402C207.202 85.1402 207.242 85.1403 207.472 85.8203L215.602 111.43C215.645 111.587 215.668 111.748 215.672 111.91ZM204.022 95.9102C203.832 94.8002 203.492 92.5802 203.342 91.3802C203.172 92.6502 202.882 94.7502 202.632 95.9002L201.562 100.53H204.782L204.022 95.9102Z" fill="#FEF035"/>
<path d="M369.322 113.88C369.199 113.89 369.075 113.89 368.952 113.88C346.522 109.57 311.462 103.65 271.842 99.8803C271.312 99.8299 270.823 99.5708 270.484 99.1601C270.144 98.7494 269.982 98.2207 270.032 97.6903C270.083 97.1598 270.342 96.6711 270.752 96.3317C271.163 95.9922 271.692 95.8299 272.222 95.8803C312.002 99.6603 347.222 105.61 369.702 109.93C369.965 109.955 370.22 110.032 370.453 110.155C370.686 110.279 370.893 110.447 371.061 110.65C371.229 110.854 371.355 111.088 371.433 111.34C371.51 111.593 371.537 111.858 371.512 112.12C371.487 112.383 371.411 112.638 371.287 112.871C371.164 113.104 370.996 113.311 370.792 113.479C370.589 113.647 370.354 113.773 370.102 113.851C369.85 113.928 369.585 113.955 369.322 113.93V113.88Z" fill="#FEF035"/>
<path d="M17.6323 111.32C17.1018 111.369 16.5736 111.206 16.1638 110.865C15.7541 110.525 15.4963 110.036 15.4473 109.505C15.3982 108.975 15.5618 108.447 15.9022 108.037C16.2426 107.627 16.7318 107.369 17.2623 107.32C17.6323 107.25 55.1623 100.21 112.912 96.8002C113.175 96.7845 113.438 96.8206 113.687 96.9066C113.935 96.9925 114.165 97.1266 114.362 97.3012C114.558 97.4757 114.719 97.6874 114.834 97.924C114.949 98.1606 115.016 98.4176 115.032 98.6802C115.048 98.9429 115.012 99.2061 114.926 99.4547C114.84 99.7034 114.706 99.9327 114.531 100.13C114.357 100.326 114.145 100.487 113.908 100.602C113.672 100.717 113.415 100.784 113.152 100.8C55.6523 104.19 18.3723 111.18 18.0023 111.25C17.881 111.284 17.7573 111.307 17.6323 111.32Z" fill="#FEF035"/>
</g>
<mask id="mask0" mask-type="alpha" maskUnits="userSpaceOnUse" x="4" y="0" width="390" height="179">
<path d="M102.842 172.68C102.902 173.41 102.742 173.68 101.702 173.75L92.8923 174.51C91.7423 174.61 91.5923 174.37 91.5123 173.34L90.1423 159.56C90.0023 157.86 89.7323 151.15 89.7423 148.45C89.2223 151.62 88.1923 156.73 87.9423 158.16L86.5923 165.43C86.4323 166.43 86.2423 166.43 85.2723 166.53L79.8623 166.99C78.8623 167.07 78.7123 167.09 78.3823 166.08L76.0123 159.18C75.5123 157.69 73.8023 152.63 72.8923 149.89C73.3023 152.61 73.8923 159.23 74.0823 160.89L75.1423 174.7C75.2323 175.79 75.0623 175.99 74.0323 176.08L65.1023 176.85C64.1023 176.93 63.8623 176.71 63.8023 175.98L62.9123 136.26C62.9123 135.26 63.0523 135.02 64.0823 134.93L73.4423 134.13C74.3523 134.06 74.5423 134.13 74.9223 134.99L79.6523 146.58C80.2823 148.18 81.0323 150.5 81.6023 152.23C81.8823 150.43 82.4023 148 82.7523 146.38L85.6223 134.07C85.8423 133.13 85.9023 133.07 86.8723 132.98L95.8723 132.21C96.8723 132.13 97.1023 132.29 97.2523 133.32L102.842 172.31V172.68Z" fill="#FEF035"/>
<path d="M143.322 170.91C143.322 171.46 143.052 171.66 142.142 171.7L131.842 172.21C130.842 172.26 130.742 172.21 130.452 171.21L127.702 162.61L119.702 163.01L117.632 171.84C117.382 172.84 117.382 172.89 116.412 172.94L106.902 173.41C105.902 173.46 105.612 173.23 105.592 172.87C105.613 172.572 105.68 172.278 105.792 172L116.592 132.07C116.792 131.15 116.842 131.02 117.882 130.97L126.962 130.52C127.962 130.52 127.962 130.52 128.412 131.52L143.142 170.19C143.223 170.424 143.283 170.665 143.322 170.91ZM124.022 147.43C123.632 145.74 122.922 142.36 122.582 140.54C122.442 142.54 122.172 145.75 121.892 147.54L120.662 154.75L125.592 154.5L124.022 147.43Z" fill="#FEF035"/>
<path d="M170.722 138.28C170.552 139.14 170.382 139.28 169.462 139.35L162.082 139.53L162.842 169.96C162.842 171.12 162.842 171.24 161.652 171.27L152.322 171.5C151.162 171.5 151.042 171.41 151.012 170.25L150.252 139.83L142.392 140.02C141.232 140.02 141.112 139.93 141.082 138.77L140.892 131.15C140.892 130.15 140.982 129.93 142.142 129.9L170.802 129.19C171.712 129.19 171.962 129.34 171.972 129.89C171.999 130.136 171.999 130.384 171.972 130.63L170.722 138.28Z" fill="#FEF035"/>
<path d="M194.192 155.12C191.856 156.247 189.285 156.799 186.692 156.73C184.192 156.73 180.472 156.39 177.692 153.9C174.692 151.23 174.562 148.12 174.552 145.25L174.492 130.12C174.492 129.12 175.032 129.12 175.342 129.12H185.532C185.772 129.12 186.322 129.12 186.322 129.91L186.382 143.21C186.382 147.21 188.532 147.9 190.382 147.89C191.709 147.897 193.013 147.552 194.162 146.89L194.092 130.05C194.092 129.05 194.572 129.05 195.002 129.05H205.002C205.912 129.05 206.002 129.35 206.002 129.65V129.83L206.172 170.28C206.172 170.59 206.112 170.89 205.172 170.89H195.172C194.862 170.89 194.312 170.84 194.312 169.98L194.192 155.12Z" fill="#FEF035"/>
<path d="M246.842 171.1C246.842 171.65 246.512 171.82 245.602 171.8L235.292 171.53C234.292 171.53 234.202 171.44 233.982 170.46L231.892 161.68L223.892 161.48L221.162 170.13C220.832 171.13 220.832 171.13 219.862 171.13L210.352 170.88C209.352 170.88 209.072 170.6 209.082 170.24C209.124 169.944 209.215 169.656 209.352 169.39L223.102 130.39C223.372 129.48 223.442 129.39 224.472 129.39L233.562 129.62C234.562 129.62 234.562 129.71 234.932 130.7L246.722 170.35C246.783 170.596 246.823 170.847 246.842 171.1ZM229.362 146.24C229.102 144.53 228.632 141.1 228.442 139.24C228.142 141.19 227.632 144.41 227.222 146.17L225.452 153.26L230.392 153.39L229.362 146.24Z" fill="#FEF035"/>
<path d="M288.942 173.43C288.892 174.16 288.692 174.43 287.662 174.32L278.832 173.76C277.672 173.69 277.562 173.44 277.632 172.4L278.332 158.57C278.442 156.86 279.172 150.19 279.592 147.52C278.592 150.58 276.822 155.52 276.362 156.85L273.962 163.85C273.652 164.85 273.472 164.8 272.502 164.74L267.082 164.39C266.082 164.33 265.922 164.32 265.742 163.27L264.432 156.09C264.162 154.55 263.212 149.29 262.722 146.44C262.722 149.2 262.372 155.84 262.262 157.54L261.262 171.35C261.192 172.45 261.002 172.62 259.962 172.55L250.962 171.98C249.962 171.92 249.762 171.66 249.812 170.93L254.812 131.52C254.942 130.52 255.142 130.31 256.172 130.38L265.552 130.98C266.462 131.04 266.642 131.11 266.882 132.04L269.882 144.21C270.262 145.89 270.652 148.3 270.972 150.09C271.512 148.35 272.392 146.02 272.972 144.47L277.632 132.73C277.992 131.83 278.062 131.78 279.032 131.84L288.032 132.42C289.032 132.48 289.242 132.68 289.232 133.71L288.922 173.06L288.942 173.43Z" fill="#FEF035"/>
<path d="M327.662 177.89C327.592 178.56 327.162 178.57 326.662 178.52L317.512 177.52C316.842 177.44 316.562 177.23 316.642 176.52L318.312 161.37C318.642 158.37 319.572 153.37 319.982 151.3H319.672C317.843 155.368 315.807 159.34 313.572 163.2L306.842 175.35C306.729 175.604 306.544 175.818 306.309 175.966C306.073 176.114 305.8 176.188 305.522 176.18L295.102 175.03C295.002 175.033 294.902 175.013 294.81 174.971C294.719 174.929 294.638 174.866 294.575 174.787C294.512 174.709 294.468 174.617 294.447 174.518C294.426 174.42 294.427 174.318 294.452 174.22L298.862 134.22C298.942 133.49 299.272 133.34 299.932 133.42L309.272 134.42C309.373 134.417 309.473 134.437 309.564 134.48C309.656 134.522 309.736 134.585 309.799 134.663C309.862 134.742 309.906 134.834 309.928 134.932C309.949 135.031 309.947 135.133 309.922 135.23L308.602 147.17C308.202 150.75 306.922 157.91 306.812 158.39H307.172C309.762 153.27 310.862 151.68 313.262 147.15L318.992 136.43C319.109 136.179 319.307 135.975 319.553 135.848C319.799 135.721 320.08 135.68 320.352 135.73L331.212 136.93C331.752 136.99 332.212 137.15 332.082 137.88L327.662 177.89Z" fill="#FEF035"/>
<path d="M54.3223 67.4302C54.8823 71.2302 42.9023 76.2703 37.0123 77.1303C18.5823 79.8103 7.89224 67.6802 4.77224 46.2102C3.13224 34.9102 3.92225 26.3503 8.91225 19.3203C10.9549 16.4442 13.5736 14.0245 16.6018 12.2152C19.6301 10.4058 23.0017 9.24625 26.5022 8.81025C32.5022 7.94025 40.0322 9.17024 44.9422 12.2402C45.7922 12.7002 46.2322 13.1202 46.3322 13.7902C46.3434 14.0849 46.3233 14.3798 46.2722 14.6702L43.2722 26.2602C43.226 26.4875 43.1126 26.6957 42.9469 26.8579C42.7811 27.0201 42.5705 27.1289 42.3422 27.1702C42.0763 27.1878 41.8093 27.1608 41.5522 27.0902C38.3022 26.0902 33.6122 23.2003 29.1522 23.8503C24.6922 24.5003 21.2323 28.7802 23.1023 41.6102C25.5523 58.5202 30.8022 62.6102 36.0322 61.8402C42.0322 60.9702 45.9122 55.7503 46.7722 55.6303C47.0522 55.6303 47.3822 55.8302 47.7722 56.3602L53.9922 66.4302C54.1973 66.7243 54.312 67.0719 54.3223 67.4302Z" fill="#FEF035"/>
<path d="M81.6922 25.0902C82.1822 31.0202 82.6922 38.3902 82.6322 44.7502C82.6322 50.7502 82.2222 59.6202 77.0522 65.8302C72.5722 71.1102 64.3022 73.5302 61.0522 73.8302C59.8022 73.9402 59.3922 73.5902 59.1622 73.1202L54.5722 61.9402C54.5722 61.8502 54.4622 61.7602 54.4522 61.6602C54.4335 61.3653 54.5048 61.0717 54.6566 60.8182C54.8083 60.5646 55.0335 60.3631 55.3022 60.2402L56.9922 59.7202C59.2522 59.0502 61.6022 58.3802 63.3522 56.2102C67.8322 50.9302 65.5422 31.3702 64.5422 19.2102L63.6022 7.83022C63.566 7.5681 63.5871 7.30124 63.664 7.04805C63.7408 6.79486 63.8717 6.56138 64.0476 6.36366C64.2234 6.16595 64.4401 6.00869 64.6826 5.90279C64.9251 5.79688 65.1876 5.74485 65.4522 5.75023L104.292 2.54021C104.549 2.4866 104.814 2.49239 105.068 2.55708C105.322 2.62178 105.558 2.74368 105.758 2.9135C105.958 3.08331 106.116 3.29654 106.221 3.53688C106.325 3.77722 106.374 4.03831 106.362 4.30022L111.482 66.3002C111.572 67.4502 111.622 68.0302 110.182 68.1502L95.3522 69.3702C93.9222 69.4902 93.6022 69.1302 93.5022 67.8802L89.5022 18.9902L81.2722 19.6702L81.6922 25.0902Z" fill="#FEF035"/>
<path d="M158.772 13.7802C158.632 15.1302 157.962 15.3402 156.712 15.3902L138.012 16.0702L138.362 25.6602L153.802 25.1002C155.432 25.0402 155.802 25.2202 155.892 27.0402L156.292 38.0402C156.352 39.6802 155.982 39.9802 154.352 40.0402L138.902 40.6002L139.312 51.8202L159.312 51.0902C161.132 51.0302 161.242 51.3102 161.312 52.9402L161.712 64.0702C161.782 65.8902 161.712 66.0702 159.872 66.1502L123.222 67.4902C121.402 67.5602 121.222 67.3702 121.142 65.5502L118.882 3.67022C118.822 2.04022 119.002 1.75022 120.832 1.67022L158.242 0.310233C159.682 0.250233 160.072 0.530233 160.102 1.31023C160.085 1.73019 160.035 2.14815 159.952 2.56023L158.772 13.7802Z" fill="#FEF035"/>
<path d="M180.842 65.8503L180.772 80.1502C180.772 81.3002 180.292 81.4902 179.332 81.4902L166.332 81.4202C165.272 81.4202 164.792 81.1302 164.802 79.9802L164.932 52.6202C164.932 51.1802 165.812 50.9002 166.572 50.9002H170.802C175.742 41.9002 177.702 33.6602 177.802 14.5502L177.942 1.43024C177.942 0.28024 178.432 -0.00975253 179.482 0.000247472L219.032 0.19025C219.802 0.19025 220.472 0.300254 220.462 1.35025L220.222 51.1702H225.022C225.25 51.147 225.481 51.1768 225.696 51.2573C225.91 51.3378 226.104 51.4667 226.261 51.6342C226.417 51.8016 226.533 52.0029 226.6 52.2225C226.666 52.4421 226.68 52.6741 226.642 52.9002L226.512 80.5502C226.539 80.7081 226.527 80.87 226.478 81.0223C226.429 81.1746 226.344 81.3129 226.23 81.4256C226.116 81.5383 225.977 81.622 225.825 81.6698C225.672 81.7176 225.51 81.728 225.352 81.7002L212.012 81.6302C211.012 81.6302 210.572 81.3302 210.572 80.1802L210.642 65.9802L180.842 65.8503ZM202.502 14.9802H194.252L194.202 24.3902C194.1 29.1735 193.497 33.9328 192.402 38.5902C191.568 42.9239 190.127 47.1184 188.122 51.0502L202.322 51.1202L202.502 14.9802Z" fill="#FEF035"/>
<path d="M284.022 67.7402C284.022 68.8002 283.292 68.8602 282.532 68.8202L268.052 68.0502C266.992 68.0002 266.532 67.6902 266.592 66.5302L267.852 42.5302C268.102 37.8302 269.102 29.8102 269.562 26.5302H269.082C267.842 29.9202 266.082 34.2502 260.572 45.7902L251.062 65.5702C250.911 65.9821 250.64 66.339 250.283 66.5941C249.926 66.8492 249.501 66.9908 249.062 67.0002L232.572 66.1402C232.413 66.1588 232.251 66.1388 232.102 66.0819C231.952 66.025 231.817 65.9329 231.711 65.8132C231.604 65.6936 231.527 65.55 231.487 65.3946C231.448 65.2392 231.446 65.0765 231.482 64.9202L234.842 1.80022C234.902 0.640218 235.392 0.380233 236.442 0.440233L251.212 1.22023C251.371 1.20211 251.531 1.22206 251.68 1.27846C251.829 1.33485 251.962 1.42604 252.069 1.54442C252.176 1.6628 252.252 1.80495 252.293 1.95903C252.334 2.11311 252.337 2.27467 252.302 2.43022L251.302 21.3102C251.012 26.9702 249.642 38.3102 249.502 39.1002H250.082C253.692 30.8302 255.262 28.2202 258.632 20.9002L266.632 3.35024C266.796 2.94455 267.088 2.60361 267.463 2.37966C267.839 2.1557 268.278 2.06104 268.712 2.11022L285.872 3.01021C286.742 3.06021 287.402 3.29023 287.342 4.44023L284.022 67.7402Z" fill="#FEF035"/>
<path d="M341.462 23.3402C341.022 24.6402 340.702 24.9002 339.272 24.7302L327.732 23.4302L322.372 71.0402C322.172 72.8502 322.052 73.0402 320.242 72.8302L305.642 71.1802C303.832 70.9802 303.642 70.7702 303.862 68.9502L309.222 21.3502L296.922 19.9602C295.102 19.7602 294.922 19.5502 295.142 17.7402L296.482 5.81024C296.662 4.19024 296.892 3.92025 298.702 4.13025L343.542 9.18024C344.972 9.34024 345.322 9.67024 345.222 10.5302C345.185 10.913 345.111 11.2914 345.002 11.6602L341.462 23.3402Z" fill="#FEF035"/>
<path d="M389.382 30.9502C388.952 32.2402 388.252 32.3103 387.032 32.0903L368.612 28.7203L366.842 38.1603L382.052 40.9403C383.652 41.2403 384.052 41.4902 383.672 43.2902L381.672 54.1503C381.382 55.7503 380.952 55.9702 379.342 55.6702L364.142 52.8902L362.142 63.9403L381.882 67.5502C383.672 67.8802 383.712 68.1802 383.422 69.7902L381.422 80.7402C381.092 82.5303 380.962 82.7403 379.162 82.3803L343.092 75.7803C341.292 75.4503 341.142 75.2303 341.472 73.4303L352.612 12.5202C352.902 10.9202 353.142 10.6703 354.942 11.0003L391.842 17.7302C393.262 17.9902 393.582 18.3403 393.442 19.1003C393.338 19.5074 393.201 19.9054 393.032 20.2902L389.382 30.9502Z" fill="#FEF035"/>
<path d="M176.912 96.6102C176.896 96.5032 176.905 96.3938 176.938 96.2907C176.971 96.1876 177.027 96.0936 177.103 96.016C177.179 95.9385 177.271 95.8796 177.373 95.8439C177.476 95.8081 177.585 95.7966 177.692 95.8103H178.532C180.272 95.8103 182.292 95.2702 182.282 93.0102C182.305 92.6174 182.242 92.2243 182.097 91.8584C181.952 91.4926 181.729 91.1628 181.443 90.8923C181.157 90.6217 180.816 90.4169 180.443 90.2922C180.069 90.1675 179.673 90.1258 179.282 90.1702C178.461 90.1941 177.658 90.4172 176.942 90.8203C176.232 91.2303 175.562 91.9802 174.892 91.9902C174.692 91.9902 174.572 91.9102 174.532 91.7902L172.722 88.3203C172.649 88.1848 172.608 88.0342 172.602 87.8803C172.607 87.727 172.645 87.5765 172.712 87.4386C172.779 87.3008 172.875 87.1786 172.992 87.0802C174.992 85.0802 178.172 84.4303 180.792 84.4103C183.412 84.3903 189.522 85.3002 189.572 91.7602C189.572 93.7602 188.692 96.8502 185.682 97.8602C187.153 98.2534 188.441 99.1459 189.326 100.385C190.211 101.624 190.637 103.132 190.532 104.65C190.592 112.31 184.052 112.95 181.272 112.97C179.414 113.012 177.563 112.745 175.792 112.18C174.562 111.75 172.412 110.73 172.402 109.66C172.393 109.525 172.42 109.39 172.482 109.27L174.122 105.48C174.15 105.398 174.202 105.327 174.272 105.277C174.342 105.227 174.426 105.2 174.512 105.2C174.701 105.216 174.881 105.286 175.032 105.4C176.222 106.14 176.872 107.25 179.882 107.23C181.352 107.23 183.252 106.45 183.232 104.11C183.212 101.77 181.502 101.03 179.442 101.04H177.732C177.626 101.055 177.517 101.044 177.415 101.01C177.313 100.977 177.22 100.92 177.142 100.845C177.065 100.77 177.006 100.678 176.97 100.577C176.934 100.475 176.921 100.367 176.932 100.26L176.912 96.6102Z" fill="#FEF035"/>
<path d="M215.672 111.91C215.672 112.26 215.472 112.38 214.882 112.38L208.172 112.32C207.502 112.32 207.462 112.32 207.312 111.64L205.842 105.96H200.652L198.972 111.62C198.772 112.26 198.772 112.3 198.142 112.29L191.952 112.24C191.312 112.24 191.112 112.08 191.122 111.84C191.143 111.646 191.197 111.456 191.282 111.28L199.782 85.7602C199.942 85.1702 199.982 85.0902 200.662 85.0902L206.572 85.1402C207.202 85.1402 207.242 85.1403 207.472 85.8203L215.602 111.43C215.645 111.587 215.668 111.748 215.672 111.91ZM204.022 95.9102C203.832 94.8002 203.492 92.5802 203.342 91.3802C203.172 92.6502 202.882 94.7502 202.632 95.9002L201.562 100.53H204.782L204.022 95.9102Z" fill="#FEF035"/>
<path d="M369.322 113.88C369.199 113.89 369.075 113.89 368.952 113.88C346.522 109.57 311.462 103.65 271.842 99.8803C271.312 99.8299 270.823 99.5708 270.484 99.1601C270.144 98.7494 269.982 98.2207 270.032 97.6903C270.083 97.1598 270.342 96.6711 270.752 96.3317C271.163 95.9922 271.692 95.8299 272.222 95.8803C312.002 99.6603 347.222 105.61 369.702 109.93C369.965 109.955 370.22 110.032 370.453 110.155C370.686 110.279 370.893 110.447 371.061 110.65C371.229 110.854 371.355 111.088 371.433 111.34C371.51 111.593 371.537 111.858 371.512 112.12C371.487 112.383 371.411 112.638 371.287 112.871C371.164 113.104 370.996 113.311 370.792 113.479C370.589 113.647 370.354 113.773 370.102 113.851C369.85 113.928 369.585 113.955 369.322 113.93V113.88Z" fill="#FEF035"/>
<path d="M17.6323 111.32C17.1018 111.369 16.5736 111.206 16.1638 110.865C15.7541 110.525 15.4963 110.036 15.4473 109.505C15.3982 108.975 15.5618 108.447 15.9022 108.037C16.2426 107.627 16.7318 107.369 17.2623 107.32C17.6323 107.25 55.1623 100.21 112.912 96.8002C113.175 96.7845 113.438 96.8206 113.687 96.9066C113.935 96.9925 114.165 97.1266 114.362 97.3012C114.558 97.4757 114.719 97.6874 114.834 97.924C114.949 98.1606 115.016 98.4176 115.032 98.6802C115.048 98.9429 115.012 99.2061 114.926 99.4547C114.84 99.7034 114.706 99.9327 114.531 100.13C114.357 100.326 114.145 100.487 113.908 100.602C113.672 100.717 113.415 100.784 113.152 100.8C55.6523 104.19 18.3723 111.18 18.0023 111.25C17.881 111.284 17.7573 111.307 17.6323 111.32Z" fill="#FEF035"/>
</mask>
<g mask="url(#mask0)">
<g filter="url(#filter1_f)">
<ellipse cx="191.5" cy="84" rx="86.5" ry="91" fill="white"/>
</g>
</g>
<defs>
<filter id="filter0_d" x="0" y="0" width="397.472" height="186.538" filterUnits="userSpaceOnUse" color-interpolation-filters="sRGB">
<feFlood flood-opacity="0" result="BackgroundImageFix"/>
<feColorMatrix in="SourceAlpha" type="matrix" values="0 0 0 0 0 0 0 0 0 0 0 0 0 0 0 0 0 0 127 0" result="hardAlpha"/>
<feOffset dy="4"/>
<feGaussianBlur stdDeviation="2"/>
<feComposite in2="hardAlpha" operator="out"/>
<feColorMatrix type="matrix" values="0 0 0 0 0.407843 0 0 0 0 0.121569 0 0 0 0 0.0901961 0 0 0 1 0"/>
<feBlend mode="normal" in2="BackgroundImageFix" result="effect1_dropShadow"/>
<feBlend mode="normal" in="SourceGraphic" in2="effect1_dropShadow" result="shape"/>
</filter>
<filter id="filter1_f" x="55" y="-57" width="273" height="282" filterUnits="userSpaceOnUse" color-interpolation-filters="sRGB">
<feFlood flood-opacity="0" result="BackgroundImageFix"/>
<feBlend mode="normal" in="SourceGraphic" in2="BackgroundImageFix" result="shape"/>
<feGaussianBlur stdDeviation="25" result="effect1_foregroundBlur"/>
</filter>
</defs>
</svg>
