<svg width="78" height="78" viewBox="0 0 78 78" fill="none" xmlns="http://www.w3.org/2000/svg">
<path d="M77.3047 38.6713C77.3047 46.316 75.0378 53.7891 70.7906 60.1454C66.5435 66.5018 60.5068 71.4559 53.444 74.3815C46.3812 77.307 38.6095 78.0724 31.1116 76.581C23.6138 75.0896 16.7266 71.4083 11.321 66.0027C5.91535 60.597 2.23406 53.7098 0.742651 46.212C-0.74876 38.7142 0.0166866 30.9425 2.94219 23.8797C5.8677 16.8169 10.8219 10.7802 17.1782 6.53301C23.5346 2.28583 31.0076 0.0189019 38.6524 0.0189019C43.7284 0.0185437 48.7547 1.01807 53.4444 2.96041C58.1341 4.90275 62.3952 7.74985 65.9845 11.3391C69.5738 14.9284 72.4209 19.1896 74.3632 23.8792C76.3056 28.5689 77.3051 33.5953 77.3047 38.6713Z" fill="#FBB700"/>
<path d="M38.6524 76.0365C59.2886 76.0365 76.0175 59.3075 76.0175 38.6713C76.0175 18.0351 59.2886 1.30613 38.6524 1.30613C18.0162 1.30613 1.28722 18.0351 1.28722 38.6713C1.28722 59.3075 18.0162 76.0365 38.6524 76.0365Z" fill="#001489"/>
<path d="M65.2806 38.6713C65.2806 43.9379 63.7189 49.0862 60.793 53.4651C57.867 57.8441 53.7082 61.2571 48.8426 63.2726C43.9769 65.288 38.6228 65.8153 33.4575 64.7879C28.2921 63.7604 23.5474 61.2243 19.8234 57.5003C16.0994 53.7763 13.5633 49.0316 12.5358 43.8662C11.5083 38.7008 12.0357 33.3468 14.0511 28.4811C16.0665 23.6154 19.4795 19.4567 23.8585 16.5307C28.2375 13.6048 33.3858 12.0431 38.6524 12.0431C42.1494 12.0427 45.6121 12.7312 48.843 14.0693C52.0738 15.4073 55.0095 17.3688 57.4822 19.8415C59.9549 22.3142 61.9163 25.2498 63.2544 28.4807C64.5925 31.7115 65.281 35.1743 65.2806 38.6713Z" fill="#FBB700"/>
<path d="M64.4734 38.6713C64.4734 43.7782 62.959 48.7704 60.1217 53.0167C57.2845 57.2629 53.2518 60.5724 48.5336 62.5268C43.8155 64.4811 38.6237 64.9924 33.615 63.9961C28.6062 62.9998 24.0053 60.5406 20.3942 56.9295C16.783 53.3184 14.3238 48.7175 13.3275 43.7087C12.3312 38.6999 12.8426 33.5082 14.7969 28.79C16.7512 24.0719 20.0608 20.0392 24.307 17.2019C28.5532 14.3647 33.5455 12.8503 38.6524 12.8503C45.5005 12.8503 52.0682 15.5707 56.9106 20.4131C61.7529 25.2555 64.4734 31.8231 64.4734 38.6713Z" fill="white"/>
<path d="M57.1209 37.6541C56.5755 36.2414 54.7482 35.625 53.011 36.2905C52.3284 36.5409 51.7308 36.9796 51.2874 37.5559C52.4356 34.2833 57.1073 33.5878 57.1073 30.5416C57.1073 25.4336 49.8557 26.8653 50.9111 30.5416C50.9111 28.8725 53.5674 28.5671 53.5674 30.5416C53.5674 32.5161 48.9312 33.8142 48.9312 37.1468C48.9312 40.8231 52.6101 41.164 52.2365 44.5266C52.1677 44.899 51.972 45.236 51.6825 45.4801C51.3931 45.7243 51.0279 45.8606 50.6493 45.8656C45.0149 45.8656 47.0249 38.9331 45.0586 36.825L45.1595 35.3987C46.2994 36.0968 49.3184 34.4633 47.3412 31.9706C47.3412 33.1979 44.7886 33.1297 44.7886 30.8143C44.7886 27.6808 47.7176 29.3171 47.8594 29.9961C47.7176 28.8562 47.6657 28.1307 47.8594 27.4735C46.2776 27.9835 46.1331 27.0699 46.3294 26.7181C46.5612 26.309 46.8749 25.8317 47.4803 25.8317C47.7054 25.8112 47.9316 25.8557 48.1321 25.9599C48.3284 26.0963 48.4703 25.7881 48.443 26.0744C48.6121 25.8017 48.5439 26.1372 48.7157 25.8781C48.9394 25.5386 49.2021 25.2265 49.4984 24.9481L49.482 24.37L49.9402 24.539L50.3847 23.8245C49.9075 22.8373 49.2611 23.3118 48.7839 22.0873C48.3857 21.9837 42.1814 22.6573 42.3614 20.1783C41.8568 20.1783 40.6569 20.451 41.4014 21.4628C40.8232 21.531 40.406 20.8764 39.5387 22.6491C40.6296 22.4446 40.0623 23.6609 40.0623 24.0127C40.0623 26.2572 37.0624 26.219 37.0624 25.1663C36.3425 25.8672 36.7515 27.3971 37.8397 27.7735C37.8397 27.7735 37.4279 29.4098 36.4052 30.4461C34.8862 30.3861 32.4535 30.1243 31.0517 28.8098C30.6261 28.3717 30.1207 28.019 29.5627 27.7708V27.018C30.3247 26.6109 30.9856 26.0377 31.4963 25.3408C32.0439 24.6804 32.3103 23.8313 32.2381 22.9764C32.2381 22.87 32.2108 22.7664 32.1944 22.6655C32.1887 22.6333 32.1815 22.6014 32.1726 22.57C32.1562 22.4964 32.1399 22.4282 32.1208 22.3573L32.0881 22.2564C32.0662 22.1855 32.0417 22.1173 32.0144 22.0518L31.9817 21.9673C31.9435 21.8773 31.8999 21.7928 31.8535 21.6946L31.7963 21.5964C31.7635 21.5446 31.7335 21.4928 31.7008 21.4437L31.619 21.3237L31.529 21.2091C31.4963 21.1682 31.4635 21.1246 31.4281 21.0864L31.3626 21.0182C31.2777 20.9215 31.1866 20.8305 31.0899 20.7455L31.0626 20.721C31.0054 20.6719 30.9454 20.6283 30.8854 20.5846C30.8711 20.5713 30.8556 20.5594 30.839 20.5492L30.6454 20.421C29.9807 20.0091 29.2026 19.8181 28.4227 19.8755C26.4646 20.0337 25.0083 21.67 25.1719 23.5354C25.2456 24.2381 25.5337 24.9012 25.9972 25.4344C26.4607 25.9677 27.0772 26.3454 27.7627 26.5162C27.4418 26.7147 27.0923 26.8627 26.7264 26.9553L26.7864 26.9908H26.8028L26.871 27.029H26.8873L26.9882 27.078H27.0046L27.1055 27.1217H27.1355C27.22 27.1544 27.3182 27.1871 27.4246 27.2171L27.4655 27.2308L27.5964 27.2608H27.6428L27.8173 27.2908V27.7135H27.7546C27.1164 27.8198 26.7046 28.0135 26.5164 28.5807C26.3282 29.148 26.5164 29.358 26.8191 29.7561C26.5655 30.2061 25.9083 30.3752 26.7673 31.3706C26.7073 31.747 26.7864 32.347 27.3319 32.527C27.4902 32.5798 27.6525 32.6199 27.8173 32.647V40.1113C27.3894 40.3166 27.0476 40.6661 26.8519 41.0985C26.8519 41.0985 26.4155 40.1249 26.4428 42.0503C26.9419 41.6658 26.7455 42.5003 26.7455 42.5003C26.0664 43.3757 26.9282 43.3184 26.9282 43.3184C27.5118 42.7348 27.3919 43.5912 27.3919 43.5912C27.3919 44.6248 27.8146 45.0284 27.8173 45.0311V50.7173H27.3209V52.2881H28.1855C27.946 52.3829 27.7433 52.5519 27.6068 52.7703C27.4704 52.9887 27.4075 53.245 27.4273 53.5017C27.4644 53.8316 27.6301 54.1335 27.8885 54.3418C28.1469 54.5502 28.4771 54.6481 28.8073 54.6144C29.0857 54.6071 29.353 54.5035 29.5637 54.3214C29.7745 54.1392 29.9156 53.8897 29.9632 53.6153C30.0107 53.3408 29.9618 53.0584 29.8246 52.8159C29.6875 52.5735 29.4706 52.386 29.2109 52.2854H30.0127V50.7173H29.5354V45.672C29.636 45.7247 29.7434 45.7632 29.8545 45.7865C29.9002 45.7969 29.9468 45.8033 29.9936 45.8056H30.0563C30.0205 45.6149 30.0263 45.4187 30.0734 45.2304C30.1205 45.0421 30.2077 44.8662 30.329 44.7148C30.5364 44.4114 30.8181 44.1664 31.1472 44.003C32.1508 43.4984 33.5144 43.6266 33.9235 44.4448C36.5116 43.763 38.7342 41.1721 38.7342 41.1721L40.0105 43.3403C37.3079 44.243 31.4254 49.3564 35.5107 51.1264C35.5107 51.6418 35.4398 55.468 32.9853 55.1653C29.4536 54.729 28.5727 56.1908 29.2518 57.8352C28.93 59.2207 29.999 59.7006 29.999 59.7006C29.8381 58.9016 30.2227 58.2389 31.6844 58.247C31.6844 59.7061 32.6199 59.9706 32.6199 59.9706C32.6199 58.7188 33.4953 58.258 34.2562 58.2607C34.2562 59.2916 35.448 59.6815 35.448 59.6815C35.448 59.6815 35.1425 58.4952 36.4979 58.2607C39.9205 57.6634 36.7052 54.1399 41.9141 53.169C41.9141 53.169 39.3206 52.779 39.3206 51.3582C39.3206 50.0709 41.6687 49.1764 42.4759 49.1764C44.134 52.3427 45.9367 52.3672 46.4085 52.3918C47.1421 53.2099 46.8967 55.9753 45.8358 55.9208C41.9577 55.7135 42.0996 58.0752 42.5332 58.5552C42.5245 58.831 42.5799 59.105 42.6948 59.3557C42.8098 59.6065 42.9813 59.8272 43.1959 60.0006C43.1959 59.0188 44.1313 58.7434 45.3285 58.8088C45.2658 60.0088 46.0294 60.1861 46.0294 60.1861C46.0512 58.9807 46.943 58.7761 47.5785 58.8088C47.5748 59.0521 47.6502 59.2899 47.7934 59.4866C47.9365 59.6833 48.1395 59.8283 48.3721 59.8997C48.3582 59.7573 48.3756 59.6135 48.4231 59.4785C48.4706 59.3435 48.547 59.2205 48.647 59.1181C48.747 59.0158 48.8682 58.9365 49.0021 58.8859C49.136 58.8353 49.2793 58.8146 49.4221 58.8252C51.5656 58.8252 48.4512 54.2272 52.6401 49.681C48.9612 51.3827 47.003 47.1283 47.003 46.3102C48.893 48.5246 55.021 48.9664 55.021 45.1866C55.021 41.5785 51.0556 40.234 52.9101 38.854C54.001 38.0359 56.1118 39.6722 54.8982 41.3467C56.6818 40.7576 57.6527 39.0695 57.1209 37.6541ZM33.6153 37.7686C32.2299 38.5868 31.2999 39.6149 30.0372 40.0676C29.8851 40.1256 29.7226 40.1516 29.56 40.144V33.1024C30.3233 33.1857 31.0708 33.3777 31.7799 33.6724C32.7835 34.2178 32.7835 35.3578 31.5072 35.625C32.309 37.1632 35.0907 36.4105 35.6961 35.1587C35.9934 35.1314 36.2552 35.6632 36.5143 36.1623C36.1188 36.3641 35.3198 36.7677 33.6153 37.7713V37.7686ZM49.133 26.0908L48.6993 26.6799C48.91 27.0353 49.2352 27.3085 49.6216 27.4548C50.008 27.6011 50.4326 27.6116 50.8258 27.4848C51.219 27.358 51.5574 27.1012 51.7855 26.7568C52.0136 26.4123 52.1178 26.0005 52.0811 25.589C52.0811 25.5536 52.0811 25.5208 52.0674 25.4854C51.9611 26.0035 51.3474 26.4426 50.5702 26.5162C50.3144 26.5489 50.0547 26.5283 49.8073 26.4555C49.5599 26.3828 49.3303 26.2595 49.133 26.0935V26.0908Z" fill="#CCCCCC"/>
<path d="M27.0782 51.2191H26.211L26.2383 50.3818C26.6201 50.3818 27.5446 50.1855 27.5446 49.9782V43.2748C27.0891 43.2748 26.7264 43.973 26.7264 43.973C26.7076 43.51 26.8397 43.0535 27.1028 42.6721C26.8955 42.4539 26.2846 42.533 26.2846 42.533C26.2846 42.533 26.031 42.5303 25.4474 43.1139C25.4474 42.503 26.1428 41.7176 26.2982 41.5649C26.09 41.4722 25.8633 41.4284 25.6355 41.4367C25.3038 41.4732 24.9913 41.6113 24.741 41.8321C24.741 41.3221 25.4992 40.4276 26.0255 40.4276C26.0255 39.7758 27.94 39.7758 28.8018 39.7758C30.8145 39.7758 37.8015 35.3141 37.8015 35.3141C36.0752 35.3141 35.3798 35.0414 35.3798 35.0414C35.1207 34.5396 34.8698 34.0106 34.5753 34.0378C33.9671 35.2869 31.1854 36.0396 30.3836 34.5014C31.0599 34.7087 31.7417 34.4578 31.8944 33.9396C32.0472 33.4215 31.6326 32.8324 30.9563 32.6251C30.8671 32.5988 30.7759 32.5796 30.6836 32.5679L30.6536 32.5488C29.9447 32.2539 29.197 32.0628 28.4336 31.9815V39.0149C28.1446 38.9904 27.8227 38.9495 27.5282 38.9331V32.5188C27.5386 32.4027 27.5255 32.2856 27.4897 32.1747C27.4539 32.0638 27.3961 31.9612 27.3197 31.8731C27.2433 31.785 27.15 31.7132 27.0452 31.662C26.9405 31.6109 26.8265 31.5813 26.7101 31.5752C26.5462 31.5481 26.3848 31.508 26.2273 31.4552C25.6792 31.2725 25.6001 30.6725 25.6628 30.2989C24.801 29.3007 25.461 29.1316 25.7146 28.6844C25.4092 28.2835 25.221 28.0789 25.4092 27.5089C25.5974 26.939 26.0119 26.7453 26.6473 26.6417H26.7101C26.9582 26.8089 27.2358 26.9274 27.5282 26.9908V26.0826C27.2591 26.1366 26.9842 26.1568 26.7101 26.1426L26.5355 26.1154H26.4892L26.361 26.0854H26.3173C26.2192 26.058 26.1227 26.0252 26.0283 25.9872H26.001L25.9001 25.9435H25.881L25.7801 25.8944H25.7637L25.6983 25.8563H25.6792L25.6219 25.8208C25.9725 25.7253 26.3077 25.5802 26.6173 25.3899H26.5737C25.5455 24.8881 24.8174 23.6336 24.8174 22.1609C24.8174 20.5983 25.6355 19.2783 26.7782 18.8419C26.9469 18.8019 27.1182 18.7746 27.2909 18.7601C28.0702 18.7001 28.8482 18.8912 29.5109 19.3056H29.5245C29.59 19.3465 29.6554 19.3901 29.7181 19.4365L29.7645 19.4692C29.8245 19.5128 29.8818 19.5565 29.939 19.6056L29.9663 19.6301C30.0623 19.7158 30.1533 19.8069 30.239 19.9028L30.3127 19.9792C30.3454 20.0201 30.3808 20.061 30.4136 20.1046L30.5008 20.2192C30.5308 20.2574 30.5527 20.2901 30.5854 20.3392C30.6181 20.3883 30.659 20.4537 30.6781 20.4892C30.6972 20.5246 30.719 20.5546 30.7381 20.5901C30.7817 20.6746 30.8254 20.7619 30.8636 20.8492C30.8772 20.8764 30.8963 20.9064 30.8963 20.9337C30.9236 21.0019 30.9617 21.1028 30.9726 21.1382C30.9836 21.1737 30.9808 21.1737 31.0026 21.2419C31.0245 21.3101 31.0381 21.4191 31.0572 21.4519C31.0763 21.4846 31.0763 21.5146 31.0763 21.5473C31.0962 21.6501 31.1107 21.7539 31.1199 21.8582C31.1576 22.2817 31.1115 22.7085 30.9842 23.1142C30.8569 23.5199 30.651 23.8966 30.3781 24.2227C29.8684 24.9205 29.2074 25.4939 28.4445 25.8999V27.348C29.1774 27.593 29.8966 27.877 30.599 28.1989C30.9145 28.393 31.2478 28.5565 31.5944 28.6871C33.5307 29.7152 35.5243 31.2697 34.8452 33.1024C36.7379 33.1024 36.5988 30.6452 36.1925 30.2389C36.7979 29.6334 38.0388 26.8708 38.0388 26.3608C38.0388 26.3608 35.5598 25.8263 35.9525 24.1054C35.9743 24.5145 36.4843 24.7545 37.0652 24.7545C41.0005 24.7545 39.6124 19.6601 37.477 21.7955C38.347 20.0255 39.6969 20.4292 40.2751 20.361H41.3659C40.5178 19.4992 41.7723 17.9065 42.2359 17.9065C42.0532 20.3828 47.2676 20.8655 47.6657 20.9664C48.143 22.1937 48.7893 21.7164 49.2666 22.7036L48.8248 23.4182L48.3639 23.2491L48.3803 23.8272C47.5921 24.599 47.4967 24.9836 47.1558 25.4963C47.1912 25.0381 47.2594 24.7136 46.3731 24.7136C45.7676 24.7136 45.4513 25.1881 45.2222 25.5972C45.0231 25.9517 45.1704 26.8626 46.7494 26.3553C46.553 27.0099 46.6076 27.7353 46.7494 28.878C46.6049 28.1989 43.6786 26.5653 43.6786 29.6961C43.6786 32.0115 46.2312 32.0797 46.2312 30.8552C48.2085 33.3451 45.1895 34.9814 44.0495 34.2833L43.9486 35.7069C45.2413 37.0895 44.8186 40.5531 45.9667 42.7675C46.5803 44.412 47.663 45.672 49.9184 45.672C52.2529 45.672 52.4629 43.9457 52.4629 43.5448C52.4629 40.1794 48.9502 39.3831 48.9502 36.1814C48.9502 33.0697 53.7065 31.7852 53.7065 29.4698C53.7065 26.7617 49.992 27.1871 49.8066 29.2653C49.8037 29.3198 49.8037 29.3744 49.8066 29.4289C48.7512 25.7526 56.0027 24.3236 56.0027 29.4289C56.0027 32.4779 51.3284 33.1733 50.1802 36.4459C50.624 35.8695 51.2214 35.43 51.9038 35.1778C53.641 34.5124 55.4819 35.1287 56.0137 36.5414C56.5455 37.9541 55.5718 39.6395 53.8319 40.2858C54.1298 40.1662 54.3904 39.9694 54.5869 39.7156C54.7834 39.4618 54.9087 39.1602 54.9499 38.8419C54.991 38.5235 54.9466 38.2 54.8211 37.9045C54.6956 37.6091 54.4936 37.3525 54.2359 37.1611C53.9783 36.9697 53.6742 36.8504 53.3551 36.8156C53.036 36.7808 52.7134 36.8317 52.4206 36.963C52.1277 37.0944 51.8751 37.3015 51.6889 37.5629C51.5027 37.8243 51.3895 38.1307 51.3611 38.4504C51.1265 39.6531 53.9546 41.0849 53.9546 44.1339C53.9546 47.911 47.8266 47.4692 45.9367 45.2575C45.9367 46.0729 47.8948 50.33 51.5711 48.6283C47.3821 53.1718 50.4993 57.7698 48.353 57.7698C48.2102 57.7595 48.067 57.7806 47.9332 57.8316C47.7994 57.8825 47.6784 57.9621 47.5787 58.0647C47.4789 58.1673 47.4028 58.2905 47.3556 58.4257C47.3085 58.5608 47.2915 58.7046 47.3058 58.847C47.033 58.5743 46.8367 57.9525 47.033 57.7562H46.5094C45.874 57.7071 44.9795 57.9143 44.9604 59.1197C44.6358 58.8088 44.5813 58.0616 44.8895 57.7562H44.2568C43.0595 57.6907 42.1241 57.9661 42.1241 58.9479C41.9005 58.7243 41.715 57.8271 42.0396 57.5025H41.4614C41.4614 55.7217 42.6723 55.299 45.7294 55.299C45.7294 55.299 48.2275 52.1109 46.234 50.1173C45.7267 50.1173 43.3759 50.2182 43.1659 48.1728C42.5867 48.0546 41.9912 48.0398 41.4069 48.1292C40.5969 48.1292 38.2515 49.021 38.2515 50.3109C38.2515 51.7291 40.8423 52.1218 40.8423 52.1218C35.6334 53.0927 38.8515 56.6162 35.4261 57.2134C34.0735 57.448 34.3762 58.6343 34.3762 58.6343C33.9425 58.2116 33.6535 57.3907 33.8307 57.2134H33.1708C32.4099 57.208 31.5344 57.6716 31.5344 58.9207C31.2699 58.6561 30.9317 57.778 31.5099 57.1971H30.599C29.1372 57.1916 28.7527 57.8516 28.9136 58.6534C28.9136 58.6534 28.2073 57.5407 28.9627 56.7853H28.1664C28.1664 54.2926 29.9172 54.7535 32.2026 54.7535C33.6344 54.7535 35.7234 52.9454 35.7234 49.9019C35.7234 49.9019 34.3353 49.3673 34.3353 47.9656C34.3353 44.6275 42.3314 44.2348 42.3314 41.483C42.3314 41.2665 42.2884 41.0522 42.205 40.8524C42.1216 40.6526 41.9993 40.4714 41.8454 40.3192C41.6914 40.167 41.5088 40.0469 41.308 39.9658C41.1073 39.8847 40.8925 39.8442 40.676 39.8467C40.8723 40.0431 41.9114 42.2794 38.9251 42.2794L37.6515 40.1113C37.6515 40.1113 35.4261 42.7021 32.8408 43.3839C32.4317 42.5657 31.0654 42.4403 30.0618 42.9421C29.7325 43.1065 29.4508 43.3525 29.2436 43.6566C29.1223 43.8081 29.0351 43.9839 28.988 44.1722C28.9409 44.3605 28.9351 44.5567 28.9709 44.7475C28.9709 44.7475 28.2891 44.1039 28.5618 43.4984C28.3379 43.3619 28.0794 43.2927 27.8173 43.2993C27.7666 43.5551 27.799 43.8205 27.9099 44.0565C28.0208 44.2925 28.2044 44.4869 28.4336 44.6111V49.6673H28.9082V51.2355H28.1173C28.3253 51.3183 28.5066 51.4568 28.6412 51.6357C28.7759 51.8146 28.8588 52.0271 28.8809 52.25C28.8912 52.4129 28.8691 52.5763 28.8159 52.7307C28.7627 52.885 28.6794 53.0273 28.5709 53.1493C28.4623 53.2713 28.3307 53.3706 28.1836 53.4413C28.0364 53.5121 27.8767 53.5531 27.7137 53.5617C27.3836 53.5955 27.0535 53.498 26.7947 53.2903C26.536 53.0826 26.3694 52.7813 26.331 52.4518V52.3809C26.3778 52.5187 26.4619 52.6408 26.574 52.7337C26.686 52.8266 26.8216 52.8867 26.9656 52.9073C27.1097 52.9279 27.2567 52.9082 27.3903 52.8504C27.5238 52.7926 27.6388 52.6989 27.7224 52.5798C27.806 52.4606 27.8549 52.3206 27.8638 52.1754C27.8727 52.0301 27.8413 51.8852 27.7729 51.7567C27.7045 51.6282 27.6018 51.5212 27.4763 51.4475C27.3508 51.3738 27.2074 51.3363 27.0619 51.3391C26.9686 51.3397 26.8762 51.3573 26.7891 51.3909C26.8778 51.3216 26.975 51.2639 27.0782 51.2191Z" fill="#001489"/>
<path d="M47.5757 25.559C47.7875 25.9151 48.1143 26.1885 48.5021 26.3342C48.89 26.4799 49.3159 26.4893 49.7098 26.3608C50.1037 26.2322 50.4421 25.9734 50.6694 25.6269C50.8966 25.2805 50.9992 24.867 50.9602 24.4545C50.9602 24.419 50.9602 24.3863 50.9438 24.3509C50.8402 24.869 50.2238 25.3108 49.4466 25.3817C49.1922 25.4166 48.9333 25.3982 48.6864 25.3278C48.4395 25.2574 48.2098 25.1364 48.0121 24.9727L47.5757 25.559Z" fill="#FF0000"/>
<path d="M45.1404 22.1773L45.7703 22.21L45.4567 22.6545C45.4567 22.6545 45.0367 22.7773 45.1404 22.1773ZM43.6377 22.1773H44.5458C44.5458 22.1773 44.5131 22.9109 45.1758 22.9763L45.0367 23.2082C45.0367 23.2082 43.2531 22.7445 43.635 22.1773H43.6377Z" fill="white"/>
<path d="M28.0518 28.4334C28.0845 28.3162 26.9828 27.6726 26.3828 27.5171C26.1319 27.4489 25.9383 27.7544 25.9083 27.8716C25.8783 27.9889 25.9083 28.3516 26.1482 28.4171C26.7482 28.5725 28.0218 28.5534 28.0518 28.4334ZM27.9618 29.5243C27.9618 29.4125 26.871 29.0143 26.3064 28.9789C26.0692 28.9625 25.9464 29.268 25.9383 29.3798C25.9301 29.4916 26.0064 29.8134 26.2437 29.8298C26.811 29.8761 27.9564 29.647 27.9618 29.5352V29.5243ZM26.7264 26.219V26.6417C26.9745 26.8089 27.2522 26.9273 27.5446 26.9908V26.159C27.2754 26.213 27.0006 26.2331 26.7264 26.219ZM26.4973 30.3261C26.3255 30.3261 26.2601 30.5606 26.2628 30.6425C26.2655 30.7243 26.3473 30.9479 26.5191 30.9425C26.9282 30.9261 27.73 30.6697 27.7273 30.5879C27.7246 30.5061 26.8955 30.3125 26.4864 30.3261H26.4973ZM25.6355 41.4367C25.4409 41.6658 25.3189 41.9478 25.2854 42.2465C25.2519 42.5453 25.3083 42.8473 25.4474 43.1139C25.4474 42.503 26.1428 41.7176 26.2982 41.5648C26.09 41.4722 25.8633 41.4284 25.6355 41.4367ZM27.8173 43.2993C27.768 43.5569 27.8029 43.8236 27.9168 44.0598C28.0308 44.296 28.2177 44.4893 28.45 44.6111C28.5511 44.6626 28.6583 44.7011 28.7691 44.7256L28.9082 44.7447H28.9709C28.9709 44.7447 28.2864 44.1011 28.5618 43.4957C28.3377 43.3601 28.0792 43.2919 27.8173 43.2993ZM26.5655 25.3817C25.5374 24.8881 24.8174 23.6336 24.8174 22.1609C24.8174 20.5982 25.6355 19.2783 26.7646 18.8474C26.0074 18.9814 25.3194 19.3723 24.8168 19.9542C24.3141 20.5362 24.0274 21.2736 24.005 22.0423C23.9826 22.811 24.2258 23.5639 24.6937 24.1741C25.1616 24.7844 25.8255 25.2148 26.5737 25.3926L26.5655 25.3817ZM37.4742 21.7791C37.6449 21.7403 37.8219 21.7393 37.9929 21.7762C38.164 21.8131 38.3248 21.8871 38.4642 21.9929C38.6035 22.0988 38.718 22.2338 38.7995 22.3887C38.881 22.5435 38.9276 22.7143 38.936 22.8891C38.936 24.2009 37.9106 24.7327 37.0624 24.7354C40.9869 24.7463 39.5987 19.6546 37.4633 21.7873L37.4742 21.7791ZM34.8452 33.0833C36.727 33.0833 36.5988 30.6288 36.1925 30.2197C36.7979 29.617 38.0388 26.8517 38.0388 26.3417C38.0388 26.3417 35.557 25.7963 35.9525 24.0836H35.9198C35.2434 24.7981 35.647 26.2871 36.7379 26.6553C36.7379 26.6553 36.3234 28.2916 35.3007 29.3307C34.0422 29.3073 32.7953 29.0864 31.6053 28.6762C33.5198 29.7043 35.5134 31.2588 34.8343 33.0915L34.8452 33.0833ZM27.4927 21.2909C27.721 21.268 27.9491 21.3358 28.1278 21.4797C28.3064 21.6236 28.4212 21.8321 28.4473 22.06C28.4546 22.1738 28.4392 22.288 28.4018 22.3957C28.3645 22.5035 28.306 22.6027 28.2298 22.6876C28.1536 22.7724 28.0612 22.8412 27.958 22.8898C27.8549 22.9385 27.7431 22.966 27.6291 22.9709C27.4006 22.9939 27.1721 22.9262 26.993 22.7823C26.814 22.6385 26.6986 22.43 26.6719 22.2018C26.6719 22.5476 26.8092 22.8791 27.0537 23.1236C27.2982 23.3681 27.6297 23.5054 27.9755 23.5054H28.0082C28.0885 23.8036 28.0829 24.1185 27.9918 24.4136C28.6954 23.8 29.2818 23.05 29.2818 22.2046C29.2771 21.8923 29.1604 21.5922 28.9531 21.3587C28.7458 21.1253 28.4615 20.9739 28.1521 20.9323C27.8426 20.8907 27.5285 20.9616 27.2669 21.132C27.0052 21.3024 26.8134 21.5611 26.7264 21.8609C26.7858 21.7023 26.8897 21.5642 27.0256 21.4631C27.1615 21.362 27.3237 21.3022 27.4927 21.2909ZM41.3441 20.3419C40.496 19.491 41.7505 17.8874 42.2141 17.8874C41.7068 17.8874 39.5196 19.3219 40.2614 20.3419H41.3441ZM30.3917 34.4905C31.0681 34.6978 31.7553 34.4469 31.9026 33.9287C32.0499 33.4106 31.6299 32.8215 30.9645 32.6142C30.8752 32.5879 30.784 32.5687 30.6917 32.5569C31.6599 33.1242 31.649 34.2396 30.3917 34.5014V34.4905ZM28.4364 27.3262C29.1692 27.5711 29.8884 27.8552 30.5908 28.1771C30.3547 28.0299 30.1328 27.861 29.9281 27.6726C29.5029 27.2322 28.9963 26.8784 28.4364 26.6308V27.3262ZM28.8018 39.7567C30.8226 39.7567 37.8015 35.295 37.8015 35.295C36.0752 35.295 35.3798 35.0223 35.3798 35.0223C34.9898 35.2241 34.1907 35.625 32.4862 36.6286C31.1008 37.4468 30.1708 38.4777 28.9054 38.9277C28.7531 38.9853 28.5909 39.0122 28.4282 39.0067C28.1391 38.9822 27.8173 38.9413 27.5227 38.9249V32.5297C27.5332 32.4136 27.5201 32.2965 27.4843 32.1856C27.4484 32.0746 27.3906 31.9721 27.3142 31.884C27.2378 31.7959 27.1445 31.7241 27.0398 31.6729C26.935 31.6217 26.821 31.5922 26.7046 31.5861V39.0504C26.2782 39.2555 25.9375 39.604 25.7419 40.0349C25.7419 40.0349 24.7001 39.8985 24.7301 41.8239C24.7301 41.3139 25.4883 40.4194 26.0146 40.4194C26.0255 39.7676 27.94 39.7676 28.8018 39.7676V39.7567ZM46.2258 50.0818C45.7185 50.0818 43.3677 50.1827 43.1577 48.1374C42.5785 48.0191 41.983 48.0043 41.3987 48.0937C43.0568 51.2627 44.8567 51.2873 45.3285 51.3118C46.0649 52.13 45.8167 54.8926 44.7586 54.838C40.8778 54.6308 41.0196 56.9925 41.4532 57.4752C41.4532 55.6944 42.6641 55.2717 45.7213 55.2717C45.7213 55.2826 48.2194 52.0863 46.2258 50.0927V50.0818ZM47.0248 57.718H46.5012C46.4971 57.9613 46.5724 58.1993 46.7156 58.3961C46.8587 58.593 47.0621 58.7378 47.2948 58.8088C47.0276 58.5661 46.8285 57.9361 47.0248 57.7398V57.718ZM42.1159 58.9097C41.8923 58.6861 41.7068 57.7889 42.0314 57.4643H41.4532C41.4431 57.7426 41.4976 58.0195 41.6126 58.2732C41.7276 58.5268 41.8999 58.7503 42.1159 58.9261V58.9097ZM53.6983 29.4561C53.6983 26.748 49.9811 27.1735 49.7984 29.2543C49.962 27.7271 52.4465 27.5035 52.4465 29.4152C52.4465 31.3897 47.8103 32.6879 47.8103 36.0177C47.8103 39.6967 51.4865 40.0349 51.1156 43.3975C51.0473 43.7708 50.8514 44.1088 50.5613 44.3536C50.2713 44.5984 49.9052 44.7347 49.5257 44.7393C47.5894 44.7393 46.5558 43.9211 45.9531 42.7566C46.5667 44.3929 47.6494 45.6611 49.9048 45.6611C52.2392 45.6611 52.4492 43.9348 52.4492 43.5339C52.4492 40.1658 48.9366 39.3695 48.9366 36.1705C48.9421 33.056 53.6983 31.7715 53.6983 29.4561ZM26.2928 42.533C26.2928 43.5693 26.7155 43.9729 26.7155 43.9729C26.7046 43.5069 26.8464 43.0501 27.1191 42.6721C26.9037 42.4539 26.2928 42.533 26.2928 42.533ZM53.1474 36.8059C52.698 36.8066 52.2651 36.9745 51.9328 37.277C51.6006 37.5795 51.3929 37.9949 51.3502 38.4422C51.4222 38.1722 51.5936 37.9393 51.8301 37.7904C52.921 36.9886 55.0291 38.6086 53.821 40.2776C54.2108 40.1222 54.5342 39.8357 54.7354 39.4674C54.9366 39.0992 55.003 38.6722 54.9232 38.2603C54.8434 37.8483 54.6223 37.477 54.2982 37.2106C53.974 36.9441 53.567 36.799 53.1474 36.8004V36.8059ZM44.8813 57.748H44.2486C44.1858 58.9452 44.9522 59.1115 44.9522 59.1115C44.6277 58.7925 44.5731 58.0452 44.8813 57.7398V57.748ZM27.0782 51.3445C26.9849 51.3452 26.8925 51.3627 26.8055 51.3963C26.6531 51.5102 26.5304 51.6592 26.4478 51.8305C26.3652 52.0019 26.3251 52.1907 26.331 52.3809C26.3753 52.5189 26.4569 52.642 26.5669 52.7365C26.6769 52.831 26.8108 52.8933 26.954 52.9163C27.0972 52.9394 27.2439 52.9223 27.378 52.8671C27.512 52.8119 27.6282 52.7206 27.7136 52.6034C27.799 52.4862 27.8503 52.3477 27.8618 52.2032C27.8733 52.0586 27.8446 51.9137 27.7788 51.7845C27.713 51.6553 27.6127 51.5468 27.4891 51.4711C27.3654 51.3953 27.2232 51.3553 27.0782 51.3554V51.3445ZM31.5044 57.1643H30.5936C30.5936 58.6261 31.529 58.8879 31.529 58.8879C31.2644 58.6234 30.9263 57.7452 31.5044 57.1643ZM34.3298 47.9328C34.3298 44.5947 42.3259 44.202 42.3259 41.4503C42.3259 41.2338 42.283 41.0194 42.1996 40.8197C42.1161 40.6199 41.9939 40.4386 41.8399 40.2864C41.6859 40.1343 41.5033 40.0141 41.3026 39.933C41.1018 39.8519 40.887 39.8115 40.6705 39.814C40.8669 40.0103 41.9059 42.2466 38.9197 42.2466C36.2197 43.1493 30.3372 48.2628 34.4198 50.0355C34.4198 50.5509 34.3489 54.3744 31.8972 54.0744C28.3518 53.6381 27.4818 55.0999 28.1609 56.7416C28.1609 54.249 29.9118 54.7099 32.1971 54.7099C33.6289 54.7099 35.7179 52.9017 35.7179 49.8582C35.7261 49.8691 34.3298 49.3346 34.3298 47.9328ZM27.5446 49.9782V43.2748C27.0919 43.2748 26.7264 43.9729 26.7264 43.9729V49.6537H26.2192V50.3764C26.6064 50.3818 27.5446 50.1991 27.5446 49.9782ZM28.9082 58.6207C28.9082 58.6207 28.2018 57.508 28.9572 56.7525H28.1609C27.8418 58.1407 28.9082 58.6207 28.9082 58.6207ZM33.8362 57.1807H33.1762C33.1762 58.2089 34.368 58.6016 34.368 58.6016C33.948 58.1788 33.6589 57.358 33.8362 57.1807Z" fill="#6672B8"/>
<path d="M73.214 45.4238L73.1486 45.2983L73.1049 45.162C72.9576 44.6984 72.6877 43.8338 71.9759 43.7984C71.7771 43.7911 71.5812 43.8474 71.4168 43.9593C71.4373 43.7611 71.3943 43.5615 71.2941 43.3893C70.9286 42.7784 70.0396 42.9448 69.5596 43.0348L69.4205 43.0593H69.2705C68.7851 43.0593 67.8796 43.0593 67.6342 43.7084C67.5665 43.8959 67.5588 44.0999 67.6124 44.292C67.4313 44.2098 67.2283 44.1887 67.0342 44.232C66.3388 44.3902 66.216 45.2902 66.1588 45.7701L66.1397 45.912L66.0961 46.0483C65.9406 46.5092 65.6542 47.3683 66.2079 47.8155C66.3637 47.9386 66.5549 48.0084 66.7533 48.0146C66.618 48.1613 66.5338 48.3479 66.5133 48.5464C66.4533 49.2555 67.2687 49.6373 67.7078 49.8527L67.836 49.9182L67.9533 50C68.3433 50.2891 69.0714 50.8182 69.6659 50.4418C69.832 50.3305 69.9581 50.169 70.0259 49.9809C70.1245 50.1534 70.2754 50.29 70.4568 50.3709C71.1141 50.6436 71.7359 49.9918 72.0713 49.64L72.1695 49.5391L72.284 49.4518C72.6822 49.1791 73.4185 48.6337 73.2331 47.9601C73.1793 47.7672 73.0645 47.5969 72.9058 47.4746C73.1018 47.4343 73.2797 47.332 73.4131 47.1828C73.8822 46.6538 73.4485 45.852 73.214 45.4238Z" fill="white"/>
<path d="M69.0496 45.5983C66.6224 43.193 69.0932 43.5066 69.4559 43.4739C69.8187 43.4411 72.1831 42.7075 70.2305 45.4892C70.12 45.4476 70.0044 45.421 69.8868 45.4102L69.6141 44.5647H69.5214C69.5214 44.5647 69.4559 45.0065 69.3959 45.4429C69.2738 45.4783 69.1572 45.5306 69.0496 45.5983ZM69.3223 48.0992L68.6269 48.8355L68.5451 48.7864C68.5451 48.7864 68.7087 48.2846 68.8532 47.8346C68.745 47.736 68.653 47.6209 68.5805 47.4937C65.4143 48.5846 67.7487 49.3809 68.0596 49.5664C68.3705 49.7518 70.1568 51.4291 69.6496 48.1673C69.5417 48.1578 69.4354 48.1349 69.3332 48.0992H69.3223ZM68.3678 46.9047C68.3678 46.8692 68.3678 46.831 68.3678 46.7956L67.5278 46.381L67.5496 46.2883H68.4742C68.5271 46.1471 68.6026 46.0154 68.6978 45.8983C66.6578 43.1711 66.6224 45.6583 66.5406 46.0129C66.4588 46.3674 65.4061 48.6064 68.406 47.071C68.3938 47.0161 68.3847 46.9606 68.3787 46.9047H68.3678ZM71.035 47.2728C70.9849 47.4112 70.9121 47.5402 70.8195 47.6546L71.2886 48.5382L71.215 48.601L70.3968 48.0064C70.2945 48.058 70.1865 48.0973 70.075 48.1237C70.1432 51.4209 71.6131 49.4573 71.8859 49.2146C72.1586 48.9719 74.3212 47.7992 71.0459 47.2728H71.035ZM72.7531 45.462C72.6113 45.1265 72.1449 42.6857 70.6123 45.7347C70.7345 45.8319 70.8396 45.949 70.9232 46.081L71.8368 45.9229L71.8749 46.0101L71.1059 46.5556C71.1059 46.5938 71.1222 46.6265 71.125 46.6647C71.1291 46.7219 71.1291 46.7793 71.125 46.8365C74.324 47.8074 72.9058 45.7947 72.764 45.462H72.7531ZM69.6768 45.9692C69.5694 45.9785 69.4648 46.0089 69.3691 46.0586C69.2734 46.1084 69.1885 46.1764 69.1191 46.259C69.0497 46.3416 68.9972 46.437 68.9647 46.5398C68.9322 46.6426 68.9203 46.7508 68.9296 46.8583C68.9389 46.9657 68.9693 47.0703 69.019 47.166C69.0687 47.2617 69.1368 47.3467 69.2194 47.416C69.3019 47.4854 69.3973 47.5379 69.5002 47.5704C69.603 47.6029 69.7112 47.6149 69.8187 47.6055C70.0312 47.5841 70.227 47.4803 70.3641 47.3165C70.4675 47.1924 70.5318 47.0406 70.5491 46.8801C70.5664 46.7196 70.5358 46.5575 70.4611 46.4143C70.3865 46.2712 70.2711 46.1533 70.1296 46.0755C69.9881 45.9978 69.8268 45.9637 69.6659 45.9774L69.6768 45.9692Z" fill="#FF0000"/>
<path d="M65.9024 31.1088C66.0248 31.8048 66.3508 32.4488 66.8392 32.9595C67.3276 33.4702 67.9565 33.8245 68.6463 33.9777C69.3362 34.131 70.0559 34.0762 70.7146 33.8203C71.3733 33.5645 71.9413 33.119 72.3469 32.5403C72.7524 31.9616 72.9772 31.2757 72.9928 30.5692C73.0084 29.8627 72.8142 29.1675 72.4347 28.5714C72.0552 27.9753 71.5074 27.5052 70.8607 27.2204C70.214 26.9357 69.4973 26.8491 68.8014 26.9717C67.8688 27.1367 67.0397 27.665 66.4962 28.4406C65.9527 29.2163 65.7391 30.1759 65.9024 31.1088Z" fill="white"/>
<path d="M67.9914 29.6634L68.1442 29.5625L69.0278 28.9789L69.2596 28.8207C69.5159 28.6489 69.745 28.4989 69.9605 28.3762L70.2005 28.2453C70.5297 28.074 70.8891 27.9684 71.2586 27.9344C71.557 28.1518 71.8154 28.4194 72.0222 28.7252C71.1332 29.0443 70.2686 29.5434 68.4605 30.6806C68.3596 30.4406 68.0133 29.707 67.9914 29.6634ZM72.4749 29.7616C72.4103 29.4756 72.3056 29.2002 72.164 28.9434C71.275 29.257 70.4159 29.7616 68.5669 30.9152C68.6296 31.0706 68.7878 31.4606 68.8396 31.5642C70.6041 31.147 71.9649 30.4625 72.4749 29.7616ZM69.7477 28.188C69.4617 27.9841 69.1346 27.8453 68.7893 27.7812C68.444 27.7172 68.0888 27.7294 67.7487 27.8171C67.4333 28.015 67.1562 28.2682 66.9306 28.5643C67.536 28.3571 68.3242 28.2453 69.0169 28.6571C69.2869 28.4798 69.5268 28.3216 69.7559 28.188H69.7477ZM72.4749 31.1606C72.5525 30.8153 72.57 30.4592 72.5267 30.1079C71.8095 30.8879 70.2986 31.4715 68.9187 31.8288C69.0305 32.1015 69.3305 32.846 69.3414 32.8787C69.4014 32.8624 70.1977 32.6551 70.5441 32.5433C70.645 32.5106 70.7432 32.4779 70.8386 32.4397C71.0641 32.3587 71.283 32.2602 71.4931 32.1451C71.5925 32.0916 71.6882 32.0314 71.7795 31.9651C72.0828 31.7659 72.3261 31.4878 72.4831 31.1606H72.4749ZM68.886 33.5633C69.1988 33.6166 69.5178 33.6221 69.8323 33.5796C70.0919 33.39 70.3016 33.1401 70.4432 32.8515C70.1486 32.9415 69.8596 33.0178 69.5923 33.086L69.3032 33.1596C69.1756 33.3056 69.0361 33.4406 68.886 33.5633ZM66.9333 29.4725C67.0178 29.4725 67.1078 29.4725 67.206 29.4561C67.3981 29.4531 67.5902 29.4603 67.7814 29.4779L68.7796 28.818C68.0569 28.4634 67.2278 28.7007 66.6851 28.9434C66.5755 29.1383 66.4885 29.3451 66.426 29.5598C66.5924 29.5165 66.7621 29.4874 66.9333 29.4725ZM66.3442 29.857C66.2677 30.2391 66.2622 30.632 66.3279 31.0161C66.4258 31.5672 66.6694 32.0822 67.0334 32.5075C67.3973 32.9328 67.8684 33.2531 68.3978 33.4351C67.4984 32.4108 66.9801 31.1074 66.9306 29.7452C66.7315 29.7651 66.5351 29.8054 66.3442 29.8652V29.857ZM70.9068 27.7189C70.2853 27.3797 69.5667 27.2623 68.8696 27.3862C68.7352 27.4118 68.6023 27.4446 68.4714 27.4844C69.0316 27.4839 69.5734 27.6842 69.9987 28.0489C70.2834 27.8946 70.5894 27.7834 70.9068 27.7189ZM67.1978 29.7452C67.247 31.0988 67.7769 32.3905 68.6923 33.3887C68.8484 33.278 68.9872 33.1448 69.1041 32.9933L68.6623 31.9024L68.5614 31.6488C68.5614 31.6488 68.3923 31.2206 68.3351 31.0843C68.3023 30.9997 68.2669 30.9179 68.2314 30.8334C68.1142 30.5606 67.9751 30.2552 67.7378 29.7616C67.5583 29.7457 67.378 29.7402 67.1978 29.7452ZM70.3614 33.4733C70.6332 33.3921 70.8921 33.2727 71.1304 33.1187C71.256 32.9206 71.3576 32.7082 71.4331 32.486C71.2226 32.5882 71.0069 32.6792 70.7868 32.7588C70.6964 33.024 70.5515 33.2674 70.3614 33.4733ZM71.6322 32.7178C71.8458 32.5087 72.0293 32.271 72.1777 32.0115C72.0482 32.1222 71.9095 32.2216 71.7631 32.3088C71.7258 32.4487 71.6775 32.5855 71.6186 32.7178H71.6322Z" fill="#FF0000"/>
<path d="M11.5987 46.0483L11.5551 45.912L11.536 45.7701C11.4733 45.2902 11.356 44.3902 10.6606 44.232C10.4664 44.1889 10.2636 44.21 10.0824 44.292C10.1368 44.1002 10.1301 43.8962 10.0633 43.7084C9.80695 43.0457 8.90153 43.0539 8.427 43.0593H8.28246L8.14337 43.0348C7.66339 42.9448 6.77978 42.7784 6.40888 43.3893C6.30942 43.5618 6.2674 43.7614 6.28889 43.9593C6.12361 43.847 5.92673 43.7907 5.72709 43.7984C5.01802 43.8338 4.7453 44.6984 4.59803 45.162L4.5544 45.2983L4.48894 45.4238C4.25441 45.852 3.82351 46.6456 4.28986 47.1828C4.42078 47.329 4.59447 47.4302 4.78621 47.4719C4.62756 47.5941 4.51275 47.7644 4.45894 47.9574C4.2735 48.6419 5.00438 49.1682 5.40801 49.4491L5.52255 49.5364L5.62345 49.6373C5.95617 49.9891 6.57797 50.6464 7.23522 50.3682C7.41662 50.2872 7.56753 50.1506 7.66611 49.9782C7.73394 50.1663 7.86006 50.3277 8.0261 50.4391C8.62336 50.8236 9.34879 50.2864 9.73877 49.9973L9.85604 49.9155L9.98422 49.85C10.4233 49.6428 11.2415 49.2528 11.1787 48.5437C11.1581 48.3457 11.075 48.1595 10.9415 48.0119C11.1398 48.0051 11.3308 47.9353 11.4869 47.8128C12.0432 47.3683 11.7542 46.5092 11.5987 46.0483Z" fill="white"/>
<path d="M9.27243 47.0656C9.2853 47.0125 9.29532 46.9588 9.30243 46.9047C9.30243 46.8692 9.30243 46.831 9.30243 46.7956L10.1669 46.3811L10.1451 46.2883H9.21788C9.16434 46.1474 9.08887 46.0157 8.99426 45.8983C11.0342 43.1712 11.0696 45.6583 11.1515 46.0129C11.2333 46.3674 12.2723 48.601 9.27243 47.0656ZM7.79429 45.4102L8.06701 44.5647H8.16246C8.16246 44.5647 8.22519 45.0065 8.28519 45.4429C8.40658 45.4766 8.52303 45.5261 8.63154 45.5902C11.056 43.1848 8.58518 43.4984 8.22246 43.4657C7.85975 43.433 5.49528 42.6994 7.44794 45.4811C7.56316 45.441 7.6834 45.4171 7.8052 45.4102H7.79429ZM6.54524 46.8365C6.54116 46.7793 6.54116 46.7219 6.54524 46.6647C6.54524 46.6265 6.55888 46.591 6.56433 46.5556L5.79527 46.0102L5.83345 45.9229L6.74706 46.0811C6.83089 45.9484 6.93699 45.8313 7.06068 45.7347C5.52528 42.6994 5.05893 45.1402 4.91711 45.462C4.7753 45.7838 3.36807 47.8074 6.54524 46.8365ZM9.1088 47.4856C9.03653 47.6137 8.94449 47.7297 8.83608 47.8292L9.14425 48.7782L9.06244 48.8273L8.35882 48.0992C8.25794 48.1315 8.15357 48.1516 8.04792 48.1592C7.54067 51.4318 9.3297 49.7437 9.63787 49.5582C9.94604 49.3728 12.2887 48.5764 9.11971 47.4856H9.1088ZM7.28431 48.0174L6.46615 48.6119L6.39252 48.5492L6.8616 47.6656C6.76904 47.5512 6.69623 47.4221 6.64615 47.2837C3.37353 47.8101 5.52255 48.9964 5.79527 49.2337C6.06799 49.471 7.53794 51.4318 7.60612 48.1428C7.49428 48.1138 7.38626 48.0717 7.28431 48.0174ZM8.56063 46.2692C8.45643 46.1459 8.31805 46.0561 8.16292 46.0112C8.00779 45.9664 7.84286 45.9684 7.68889 46.0171C7.53492 46.0658 7.39881 46.159 7.2977 46.2849C7.19658 46.4108 7.13499 46.5638 7.12068 46.7247C7.10251 46.9401 7.17033 47.1539 7.30932 47.3195C7.44831 47.485 7.64718 47.5889 7.86247 47.6083C8.02334 47.622 8.18468 47.5879 8.32618 47.5101C8.46768 47.4324 8.58302 47.3145 8.65766 47.1714C8.7323 47.0282 8.76292 46.8661 8.74565 46.7056C8.72839 46.5451 8.66401 46.3933 8.56063 46.2692Z" fill="#FF0000"/>
<path d="M8.50535 26.9608C7.81055 26.8388 7.09519 26.9254 6.44958 27.2097C5.80396 27.4939 5.25704 27.9631 4.87785 28.5579C4.49865 29.1528 4.30419 29.8466 4.31901 30.5519C4.33383 31.2571 4.55726 31.9422 4.9611 32.5206C5.36495 33.099 5.9311 33.5448 6.58808 33.8016C7.24506 34.0585 7.96343 34.115 8.65249 33.964C9.34155 33.8129 9.97041 33.4611 10.4597 32.953C10.949 32.4448 11.2767 31.8031 11.4016 31.1088C11.4845 30.6462 11.4752 30.1718 11.3744 29.7128C11.2736 29.2538 11.0832 28.8192 10.8142 28.4338C10.5451 28.0485 10.2027 27.72 9.80652 27.4673C9.41033 27.2145 8.96816 27.0424 8.50535 26.9608Z" fill="white"/>
<path d="M8.84425 30.6806C7.03885 29.557 6.17161 29.0443 5.28255 28.7252C5.4904 28.4193 5.74968 28.1518 6.04889 27.9344C6.41756 27.9684 6.77606 28.074 7.10431 28.2453L7.34703 28.3762C7.56247 28.4989 7.78883 28.6489 8.04519 28.8207L8.27972 28.9789L9.1606 29.5625L9.31333 29.6634C9.29151 29.707 8.94788 30.4406 8.84425 30.6806ZM8.48154 31.5779C8.51699 31.4852 8.67516 31.0843 8.74062 30.9288C6.89159 29.7807 6.0298 29.2707 5.14073 28.9571C5.00002 29.2139 4.89627 29.4894 4.83256 29.7752C5.33982 30.4625 6.70068 31.147 8.48154 31.5779ZM8.27972 28.6543C8.97243 28.2425 9.76059 28.3544 10.3687 28.5616C10.1429 28.2656 9.86578 28.0125 9.55059 27.8144C9.21096 27.7265 8.85619 27.7142 8.51129 27.7783C8.16638 27.8424 7.83971 27.9813 7.55429 28.1853C7.78065 28.3216 8.01791 28.4798 8.27972 28.6543ZM5.51709 31.9651C5.60977 32.0309 5.7063 32.091 5.80617 32.1451C6.01539 32.2602 6.23332 32.3587 6.45796 32.4397C6.55342 32.4779 6.65432 32.5106 6.7525 32.5433C7.09885 32.6551 7.89519 32.8624 7.95519 32.8787L8.38063 31.8288C6.99795 31.4852 5.48981 30.8879 4.76984 30.1079C4.72797 30.4593 4.74548 30.8151 4.82165 31.1606C4.97646 31.4867 5.2168 31.7648 5.51709 31.9651ZM8.00155 33.1651L7.7152 33.0915C7.44248 33.0233 7.15612 32.9469 6.86159 32.8569C7.00398 33.1451 7.21349 33.3948 7.47248 33.5851C7.78693 33.6275 8.10601 33.622 8.41881 33.5687C8.26872 33.4461 8.12914 33.311 8.00155 33.1651ZM10.8869 29.5679C10.8177 29.3536 10.7263 29.147 10.6142 28.9516C10.0688 28.7089 9.2506 28.4716 8.51699 28.8262L9.51514 29.4861C9.70642 29.4686 9.89851 29.4613 10.0906 29.4643C10.186 29.4643 10.2733 29.4643 10.3633 29.4807C10.54 29.4951 10.7151 29.5243 10.8869 29.5679ZM10.3633 29.7452C10.3144 31.1084 9.79609 32.4128 8.89607 33.4378C9.42545 33.2558 9.89652 32.9355 10.2605 32.5102C10.6244 32.0849 10.868 31.57 10.966 31.0188C11.0344 30.6349 11.0289 30.2415 10.9496 29.8598C10.7586 29.8017 10.5621 29.7634 10.3633 29.7452ZM7.28976 28.0435C7.71521 27.6791 8.25687 27.4789 8.81698 27.4789C8.68618 27.4388 8.55325 27.4061 8.41881 27.3807C7.72255 27.2568 7.00484 27.3742 6.38433 27.7135C6.70482 27.7789 7.0137 27.8919 7.30066 28.0489L7.28976 28.0435ZM9.56696 29.7452C9.32969 30.2388 9.1906 30.5416 9.07333 30.817L8.9697 31.0679L8.74335 31.6324L8.64244 31.8861L8.20063 32.9769C8.31853 33.1285 8.45822 33.2617 8.61517 33.3724C9.52603 32.378 10.0546 31.0927 10.1069 29.7452C9.92709 29.7348 9.7468 29.7348 9.56696 29.7452ZM6.54523 32.7451C6.32606 32.6656 6.11122 32.5745 5.90162 32.4724C5.9751 32.6949 6.07586 32.9074 6.20161 33.1051C6.44016 33.2586 6.69902 33.3779 6.97067 33.4596C6.78054 33.2538 6.63561 33.0104 6.54523 32.7451ZM5.56345 32.3088C5.41629 32.2228 5.2775 32.1233 5.14892 32.0115C5.29631 32.2716 5.47997 32.5095 5.69435 32.7178C5.63885 32.5856 5.59504 32.4487 5.56345 32.3088Z" fill="#FF0000"/>
<path d="M16.104 61.3942L17.004 62.2505L16.3304 62.9596L15.4304 62.1005L14.2468 63.3414L13.2241 62.3651L15.9213 59.5342L16.1804 59.2615L18.1903 61.1706L17.5167 61.8796L16.5295 60.9387L16.104 61.3942ZM21.4057 64.5359C21.4019 65.0263 21.2445 65.5032 20.9557 65.8995C20.7852 66.1486 20.567 66.3614 20.3137 66.5257C20.0605 66.69 19.7772 66.8025 19.4803 66.8567C19.2092 66.9007 18.9322 66.8908 18.665 66.8277C18.3978 66.7645 18.1457 66.6493 17.923 66.4886C17.6986 66.3324 17.5075 66.133 17.361 65.9022C17.2144 65.6713 17.1153 65.4136 17.0694 65.1441C16.9864 64.5394 17.1379 63.9259 17.4929 63.4294C17.8479 62.9329 18.3794 62.5911 18.9785 62.4742C19.5241 62.3877 20.082 62.5186 20.5322 62.8388C20.9824 63.159 21.2892 63.643 21.3866 64.1868C21.4021 64.3025 21.4084 64.4192 21.4057 64.5359ZM19.7693 65.0404C19.9902 64.7323 20.4484 63.9768 19.9575 63.6278C19.4666 63.2787 18.9594 63.8868 18.6867 64.2714C18.4139 64.6559 18.0267 65.3622 18.493 65.6813C18.9594 66.0004 19.543 65.3513 19.7639 65.0404H19.7693ZM25.431 68.2121C25.2992 68.4839 25.115 68.727 24.8889 68.9273C24.6629 69.1276 24.3994 69.2813 24.1138 69.3794C23.5871 69.5474 23.0155 69.5021 22.5219 69.2533C22.0283 69.0044 21.652 68.5719 21.4738 68.0485C21.382 67.7597 21.3482 67.4556 21.3744 67.1537C21.4006 66.8518 21.4863 66.5581 21.6266 66.2895C22.202 65.1495 23.451 64.7023 24.5337 65.2504C25.6164 65.7986 26.001 67.0722 25.4255 68.2121H25.431ZM24.1247 67.5522C24.3345 67.2106 24.4166 66.8058 24.3565 66.4095C24.3328 66.3474 24.2963 66.291 24.2493 66.244C24.2023 66.197 24.1459 66.1604 24.0838 66.1368C23.571 65.864 23.1374 66.5431 22.9247 66.9549C22.7702 67.2328 22.6772 67.5407 22.652 67.8576C22.6442 67.9639 22.6676 68.0701 22.7195 68.1631C22.7714 68.2562 22.8493 68.332 22.9438 68.3812C23.002 68.4131 23.0661 68.433 23.1322 68.4395C23.1982 68.4461 23.265 68.4392 23.3283 68.4194C23.6866 68.2335 23.967 67.926 24.1192 67.5522H24.1247ZM26.7728 66.8186L26.5682 67.3804L27.2337 67.6122L26.1428 70.7293L27.4791 71.1984C27.4791 71.1984 28.3763 68.6349 28.57 68.0812L29.2327 68.3131L29.5572 67.3885L26.8955 66.4558L26.7728 66.8186ZM33.4435 69.3439C33.4432 69.4265 33.4341 69.5088 33.4162 69.5894C33.3636 69.8603 33.2167 70.1037 33.0016 70.2766C33.1509 70.4756 33.2313 70.7178 33.2307 70.9666C33.2314 71.1864 33.179 71.4031 33.0778 71.5983C32.9767 71.7935 32.8298 71.9613 32.6498 72.0875C32.4728 72.1945 32.2759 72.2644 32.071 72.293C31.8662 72.3216 31.6576 72.3083 31.4581 72.2538L29.6254 71.8666L30.4435 68.0485L30.5226 67.6831L32.3226 68.0622C32.631 68.1071 32.9132 68.2612 33.1178 68.4963C33.3225 68.7315 33.436 69.0322 33.438 69.3439H33.4435ZM31.8262 70.8575C31.833 70.7751 31.8088 70.6931 31.7583 70.6276C31.7079 70.562 31.6349 70.5176 31.5535 70.503L31.3762 70.4675C31.319 70.7403 31.2808 70.9257 31.2208 71.2011L31.3735 71.2339C31.4815 71.2695 31.5988 71.2646 31.7035 71.2202C31.7708 71.1549 31.8133 71.0681 31.8235 70.9748C31.8268 70.9357 31.8259 70.8964 31.8208 70.8575H31.8262ZM31.5535 69.5103L31.6462 69.5294C31.9571 69.5948 31.9899 69.4394 32.0144 69.3248C32.0181 69.2886 32.0181 69.252 32.0144 69.2158C32.0176 69.1718 32.0071 69.128 31.9844 69.0903C31.8995 69.0014 31.7871 68.9437 31.6653 68.9267L31.5535 69.5103ZM35.6225 68.6785L33.6671 72.6847L34.7825 72.772C34.7825 72.772 35.0852 72.1338 35.2079 71.8802L35.9116 71.9348C35.9988 72.2075 36.217 72.8811 36.217 72.8811L37.7033 72.9956L36.0425 67.844L35.6225 68.6785ZM40.0351 71.8775L39.8987 68.624L39.5251 68.6403L38.486 68.684L38.666 72.9629L41.4941 72.8456L41.4532 71.8202L40.0351 71.8775ZM43.9077 71.4711C43.8149 70.8902 43.4031 68.2531 43.4031 68.2531L43.0322 68.3131L42.0041 68.474L42.6695 72.7065L45.4676 72.2675L45.3094 71.253L43.9077 71.4711ZM52.0129 68.6212C52.0093 68.7983 51.9536 68.9704 51.8527 69.1159C51.7518 69.2614 51.6102 69.3739 51.4456 69.4394C51.3596 69.4769 51.2667 69.4963 51.1729 69.4963C51.079 69.4963 50.9862 69.4769 50.9002 69.4394C50.5802 69.2699 50.3365 68.9853 50.2184 68.643C50.0447 68.3012 50.0095 67.9056 50.1202 67.5385C50.1665 67.4383 50.233 67.3488 50.3156 67.2755C50.3982 67.2023 50.4951 67.147 50.6002 67.1131C50.8729 67.0067 51.1156 67.1131 51.4565 67.3067L51.7701 67.4922L52.291 66.674L51.9829 66.4722C51.7091 66.2886 51.395 66.1738 51.0674 66.1378C50.7398 66.1017 50.4082 66.1453 50.1011 66.2649C49.8272 66.3708 49.577 66.53 49.3649 66.7331C49.1529 66.9363 48.9832 67.1794 48.8657 67.4485C48.7488 67.7285 48.6886 68.0288 48.6886 68.3321C48.6886 68.6355 48.7488 68.9358 48.8657 69.2158C48.9704 69.483 49.1269 69.727 49.3261 69.9337C49.5253 70.1403 49.7634 70.3057 50.0266 70.4202C50.2898 70.5347 50.5731 70.5961 50.8601 70.601C51.1471 70.6058 51.4323 70.554 51.6992 70.4484C52.0701 70.3202 52.3938 70.0833 52.6282 69.7686C52.8626 69.4539 52.997 69.076 53.0137 68.684L53.041 68.3131L52.0183 68.2367L52.0129 68.6212ZM55.3073 67.454L53.7255 64.6068L53.3983 64.7895L52.4901 65.2968L54.5791 69.0358L57.0527 67.6558L56.5509 66.7586L55.3073 67.454ZM58.0563 61.6887L57.7536 61.9096L57.2245 62.2969L58.9563 64.6614C58.9841 64.6905 59.0051 64.7254 59.0178 64.7636C59.0306 64.8017 59.0347 64.8423 59.0299 64.8823C58.9873 65.0203 58.8975 65.1391 58.7763 65.2177C58.6869 65.2763 58.5797 65.3014 58.4736 65.2886C58.4281 65.2809 58.3848 65.2638 58.3463 65.2385C58.3078 65.2131 58.275 65.18 58.2499 65.1413L56.5345 62.8041L55.3946 63.6387L57.099 65.9649C57.2062 66.1236 57.3443 66.259 57.5051 66.363C57.6658 66.467 57.8459 66.5376 58.0345 66.5704C58.5079 66.6151 58.98 66.4721 59.349 66.1722C60.2408 65.5177 60.2271 64.6477 59.8399 64.1159L58.0563 61.6887ZM63.6497 61.7514C63.6377 61.9608 63.5831 62.1655 63.4893 62.353C63.3956 62.5406 63.2646 62.7071 63.1043 62.8423L61.7598 64.1486L58.779 61.0724L60.1017 59.7906C60.2189 59.6574 60.3622 59.5496 60.5228 59.474C60.6833 59.3983 60.8576 59.3564 61.035 59.3508C61.2124 59.3451 61.389 59.376 61.554 59.4413C61.719 59.5066 61.8689 59.6051 61.9943 59.7306C62.1858 59.9283 62.3017 60.187 62.3216 60.4615C62.4977 60.4491 62.6742 60.4762 62.8385 60.5408C63.0027 60.6055 63.1503 60.706 63.2707 60.8351C63.3926 60.9542 63.4898 61.0963 63.5567 61.2531C63.6236 61.4098 63.659 61.5783 63.6607 61.7487L63.6497 61.7514ZM60.4917 60.7806L60.9062 61.2087L60.9717 61.1406C61.009 61.112 61.0402 61.0763 61.0636 61.0356C61.0871 60.9949 61.1021 60.9499 61.108 60.9033C61.0999 60.8328 61.0647 60.7682 61.0098 60.7233C60.9253 60.6197 60.7998 60.5024 60.5026 60.7778L60.4917 60.7806ZM61.5825 61.9096L62.1062 62.4551L62.2152 62.3487C62.303 62.28 62.3653 62.1841 62.3925 62.076C62.375 61.9838 62.327 61.9002 62.2562 61.8387C62.2249 61.7974 62.1852 61.7632 62.1396 61.7385C62.0941 61.7139 62.0438 61.6992 61.9921 61.6956C61.9404 61.692 61.8886 61.6995 61.84 61.7176C61.7915 61.7357 61.7474 61.764 61.7107 61.8005L61.5825 61.9096Z" fill="#FBB700"/>
<path d="M15.7086 61.4024L16.6085 62.2614L16.3195 62.5614L15.4195 61.7051L14.2386 62.9432L13.6359 62.3542L16.1258 59.7442L16.1886 59.6761L17.7949 61.206L17.5058 61.506L16.5185 60.5624L15.7086 61.4024ZM21.0975 64.225C21.116 64.3276 21.1252 64.4317 21.1248 64.5359C21.1186 64.9648 20.9794 65.3812 20.7266 65.7277C20.4217 66.1658 19.9561 66.4658 19.4312 66.5622C18.9588 66.6346 18.4768 66.5203 18.0873 66.2433C17.6978 65.9663 17.4315 65.5486 17.3449 65.0786C17.274 64.5489 17.4069 64.0121 17.7168 63.5767C18.0266 63.1413 18.4903 62.8398 19.0139 62.7332C19.4862 62.6594 19.9686 62.7733 20.3579 63.0506C20.7473 63.3278 21.0128 63.7464 21.0975 64.2168V64.225ZM20.1157 63.4068C19.4203 62.9132 18.7221 63.7368 18.4521 64.1159C18.1821 64.495 17.634 65.4277 18.3267 65.9213C19.0194 66.4149 19.723 65.5886 19.993 65.2122C20.263 64.8359 20.8111 63.895 20.1157 63.3987V63.4068ZM25.1746 68.0949C25.0594 68.3334 24.8982 68.5468 24.7002 68.7227C24.5022 68.8987 24.2714 69.0338 24.021 69.1203C23.5652 69.2644 23.0712 69.2247 22.6442 69.0097C22.2173 68.7947 21.8912 68.4214 21.7356 67.9694C21.6559 67.716 21.6273 67.4493 21.6516 67.1847C21.676 66.9202 21.7528 66.6631 21.8775 66.4286C22.382 65.4304 23.4674 65.0377 24.4083 65.5122C25.3492 65.9868 25.6792 67.0885 25.1746 68.0867V68.0949ZM23.4265 68.6921C23.8819 68.5421 24.2119 67.9994 24.3701 67.6858C24.5283 67.3722 24.7683 66.7858 24.6183 66.3222C24.5856 66.2246 24.5335 66.1346 24.465 66.0578C24.3966 65.9809 24.3133 65.9187 24.2201 65.8749C23.4592 65.4904 22.892 66.4204 22.682 66.8267C22.472 67.2331 22.0684 68.2449 22.8265 68.6267C22.9172 68.677 23.0173 68.7081 23.1205 68.718C23.2238 68.7278 23.3279 68.7163 23.4265 68.6839V68.6921ZM27.0346 66.9195L26.9255 67.2222L27.5909 67.4567C27.5309 67.6231 26.5 70.5739 26.5 70.5739L27.3182 70.8466L28.4091 67.7267L29.0718 67.9585L29.2109 67.5685L27.0646 66.8349L27.0346 66.9195ZM33.1571 69.3494C33.157 69.4135 33.1506 69.4774 33.138 69.5403C33.1092 69.7001 33.0353 69.8483 32.9252 69.9676C32.8151 70.087 32.6732 70.1724 32.5162 70.2139C32.6464 70.294 32.7543 70.4058 32.8296 70.5389C32.9049 70.6719 32.9454 70.8219 32.9471 70.9748C32.9459 71.051 32.9368 71.1269 32.9198 71.2011C32.8961 71.3342 32.8461 71.4611 32.7725 71.5744C32.699 71.6878 32.6035 71.7853 32.4917 71.8611C32.3451 71.9463 32.183 72.0012 32.0148 72.0228C31.8467 72.0443 31.6759 72.032 31.5126 71.9866L29.9527 71.6566L30.6999 68.1112L30.719 68.0185L32.2462 68.3403C32.4941 68.367 32.7237 68.4835 32.8916 68.6679C33.0594 68.8524 33.1539 69.0919 33.1571 69.3412V69.3494ZM31.469 68.5994C31.4362 68.7467 31.259 69.5866 31.229 69.7339L31.5972 69.8103C31.6705 69.837 31.7489 69.8471 31.8267 69.8398C31.9044 69.8325 31.9795 69.808 32.0466 69.768C32.1137 69.7281 32.1711 69.6737 32.2146 69.6088C32.2581 69.544 32.2866 69.4703 32.298 69.393C32.3085 69.3373 32.314 69.2807 32.3144 69.2239C32.3165 69.1275 32.2899 69.0326 32.238 68.9512C32.1741 68.8697 32.0947 68.8018 32.0044 68.7512C31.914 68.7007 31.8145 68.6685 31.7117 68.6567L31.469 68.5994ZM31.1417 70.1403C31.1117 70.293 30.9044 71.2775 30.869 71.4275L31.2972 71.5148C31.3869 71.5429 31.4814 71.5528 31.5751 71.5439C31.6688 71.535 31.7597 71.5075 31.8426 71.463C31.9096 71.4126 31.9656 71.3491 32.0073 71.2765C32.049 71.2038 32.0756 71.1235 32.0853 71.0402C32.0972 70.9865 32.1027 70.9316 32.1017 70.8766C32.1132 70.7267 32.068 70.5779 31.9751 70.4598C31.8822 70.3416 31.7483 70.2626 31.5999 70.2384L31.1417 70.1403ZM35.9961 68.6021L37.3161 72.6929L36.4352 72.6247L36.1297 71.6784L35.0389 71.5939L34.6134 72.4856L34.1034 72.4447L35.8788 68.8094L35.9961 68.6021ZM35.2407 71.1902L35.9934 71.2502C35.9388 71.0757 35.7752 70.5466 35.6879 70.2712L35.2407 71.1902ZM39.776 72.1802C39.776 72.0029 39.6369 68.9267 39.6369 68.9267H39.5442L38.7833 68.9594L38.9387 72.6766L41.2078 72.5838L41.1887 72.1175L39.776 72.1802ZM43.684 71.7984L43.1795 68.5803L43.0868 68.5967L42.3368 68.7139L42.915 72.3902L45.1567 72.0384L45.0858 71.5775L43.684 71.7984ZM52.3047 68.6349C52.3003 68.8671 52.2273 69.0928 52.0948 69.2836C51.9623 69.4743 51.7762 69.6215 51.5601 69.7066C51.441 69.7587 51.3124 69.7855 51.1824 69.7855C51.0524 69.7855 50.9238 69.7587 50.8047 69.7066C50.4133 69.5114 50.1137 69.1708 49.9702 68.7576C49.7691 68.3474 49.7348 67.8752 49.8747 67.4404C49.936 67.306 50.0239 67.1855 50.1331 67.0861C50.2424 66.9867 50.3706 66.9105 50.5102 66.8622C50.9193 66.6986 51.2956 66.8867 51.6011 67.0749L51.6774 67.1213L51.9065 66.7613L51.8301 66.7122C51.5927 66.5512 51.3196 66.4505 51.0346 66.4186C50.7495 66.3868 50.4609 66.4248 50.1938 66.5295C49.9521 66.6208 49.7311 66.7595 49.5438 66.9375C49.3564 67.1155 49.2066 67.3291 49.103 67.5658C48.9997 67.8114 48.9465 68.0752 48.9465 68.3417C48.9465 68.6082 48.9997 68.8719 49.103 69.1176C49.289 69.5864 49.6529 69.9625 50.1154 70.1639C50.5778 70.3652 51.1012 70.3753 51.5711 70.1921C51.893 70.0839 52.1744 69.8805 52.378 69.6087C52.5816 69.3369 52.6977 69.0096 52.711 68.6703V68.5776L52.261 68.5449L52.3047 68.6349ZM55.2091 67.8412C55.1246 67.6858 53.6219 64.9968 53.6219 64.9968L53.5401 65.0432L52.8774 65.4141L54.6937 68.6621L56.6736 67.5549L56.4473 67.1485L55.2091 67.8412ZM58.0072 62.0842L57.9308 62.1414L57.6281 62.3623L59.1963 64.5004C59.2445 64.5604 59.2802 64.6294 59.3013 64.7035C59.3224 64.7775 59.3284 64.855 59.319 64.9313C59.2648 65.1438 59.1336 65.3284 58.9508 65.4495C58.8029 65.5522 58.622 65.5959 58.4436 65.5722C58.3601 65.5579 58.2806 65.5262 58.2101 65.4793C58.1396 65.4323 58.0798 65.3711 58.0345 65.2995L56.4854 63.1859L55.7982 63.6932L57.3363 65.7904C57.4211 65.9206 57.5316 66.032 57.661 66.1179C57.7905 66.2037 57.9361 66.2621 58.089 66.2895C58.4829 66.3161 58.8724 66.1934 59.1799 65.9459C59.9217 65.4004 59.9326 64.7159 59.6135 64.2823L58.0072 62.0842ZM63.3798 61.7542C63.3678 61.9232 63.3224 62.0881 63.2461 62.2393C63.1697 62.3905 63.0641 62.5251 62.9352 62.6351L61.7898 63.745L59.199 61.0724L60.3226 59.9815C60.958 59.3652 61.5771 59.6679 61.8171 59.9161C61.9861 60.0772 62.0842 60.2989 62.0898 60.5324C62.0881 60.6253 62.0715 60.7174 62.0407 60.8051C62.2151 60.7287 62.4089 60.7087 62.5952 60.7478C62.7815 60.7869 62.9509 60.8832 63.0798 61.0233C63.1751 61.1179 63.2508 61.2305 63.3022 61.3546C63.3537 61.4786 63.3801 61.6117 63.3798 61.746V61.7542ZM61.2226 60.5351C60.9498 60.2406 60.6308 60.2624 60.2817 60.6033L60.1017 60.7778L60.9198 61.6124L61.1926 61.3396C61.3207 61.2289 61.4001 61.0721 61.4135 60.9033C61.4093 60.8308 61.3902 60.7599 61.3574 60.6951C61.3245 60.6304 61.2786 60.5731 61.2226 60.5269V60.5351ZM62.4252 62.5505C62.5708 62.4303 62.6637 62.2581 62.6843 62.0705C62.6789 61.9882 62.6574 61.9078 62.6209 61.8339C62.5844 61.76 62.5336 61.6939 62.4716 61.6396C62.4137 61.5734 62.3431 61.5196 62.264 61.4813C62.1849 61.4429 62.0988 61.421 62.011 61.4166C61.9232 61.4123 61.8354 61.4257 61.7529 61.4561C61.6704 61.4864 61.5948 61.5331 61.5307 61.5933L61.198 61.9151C61.3071 62.0242 62.0162 62.7469 62.1143 62.8587L62.4252 62.5505Z" fill="white"/>
<path d="M21.6293 13.7475C22.0166 15.1548 21.6293 16.4284 20.4812 17.4211C19.7124 18.0855 18.7113 18.4177 17.6978 18.3446C16.6843 18.2714 15.7413 17.799 15.0759 17.0311C13.5732 15.3129 13.7123 12.9021 15.395 11.4267C15.8332 11.0521 16.3551 10.7885 16.9166 10.6579C17.4781 10.5274 18.0627 10.5339 18.6212 10.6767L19.1667 10.8104L18.8176 12.3049L18.2722 12.2012C17.5522 12.0567 17.0204 12.0431 16.6004 12.4112C16.4302 12.5417 16.2889 12.706 16.1852 12.8937C16.0814 13.0814 16.0176 13.2886 15.9977 13.5021C15.9595 14.0475 16.254 14.7184 16.854 15.4111C17.2855 15.942 17.9026 16.289 18.5803 16.382C18.7635 16.3943 18.9474 16.3695 19.1208 16.3091C19.2942 16.2486 19.4536 16.1538 19.5894 16.0302C19.843 15.8077 20.0261 15.516 20.1162 15.191C20.2063 14.8659 20.1995 14.5215 20.0966 14.2003L19.9085 13.6303L21.4711 13.2076L21.6293 13.7475ZM25.7201 5.36963L24.1247 6.12233C24.1247 6.12233 25.0165 8.00954 25.3219 8.66134L23.972 9.29132C23.6665 8.63952 22.7747 6.75231 22.7747 6.75231L20.6721 7.75046L23.8711 14.5412L25.9765 13.5485L24.6647 10.7695L26.0283 10.1313L27.3401 12.9103L29.4427 11.9203L26.2301 5.13236L25.7201 5.36963ZM32.8353 9.57768C32.7317 9.07042 32.6308 8.55771 32.5272 8.05318L34.908 7.57319L34.6025 6.06506L32.2299 6.54505C32.1344 6.08415 32.0581 5.69416 31.9572 5.23327L34.4771 4.72601L34.1744 3.21788L33.6289 3.3297L29.38 4.18603L30.8663 11.5494L35.7043 10.5731L35.3989 9.06496L32.8353 9.57768ZM39.6969 3.03243L37.3625 2.99425V3.56423L37.2179 10.5049L42.0996 10.6086L42.135 8.97224L39.5742 8.9177C39.596 8.00136 39.6997 3.04334 39.6997 3.04334L39.6969 3.03243ZM47.2403 6.83685C46.6376 6.39232 46.4576 6.21506 46.5203 5.97234C46.5284 5.90374 46.551 5.83763 46.5865 5.77839C46.622 5.71915 46.6697 5.66813 46.7264 5.62869C46.7831 5.58925 46.8476 5.56229 46.9155 5.54961C46.9834 5.53692 47.0532 5.53878 47.1203 5.55508C47.393 5.62053 47.6412 5.75689 47.7585 6.31869L47.8839 6.94321L49.4193 6.42505L49.3239 5.93961C49.2101 5.45207 48.9628 5.00583 48.6097 4.65085C48.2567 4.29587 47.8118 4.04616 47.3249 3.92968C46.9837 3.83791 46.6277 3.81476 46.2776 3.86158C45.9274 3.90839 45.59 4.02424 45.2849 4.20239C45.0157 4.36016 44.7806 4.56995 44.5933 4.81951C44.406 5.06907 44.2703 5.35342 44.1941 5.65598C43.8177 7.18593 44.854 7.92773 45.544 8.41862C46.234 8.90951 46.4222 9.11678 46.3185 9.53677C46.302 9.59941 46.2733 9.65817 46.234 9.70966C46.1947 9.76115 46.1455 9.80434 46.0894 9.83676C45.9507 9.91879 45.7863 9.94602 45.6286 9.91312C45.2604 9.82039 45.0995 9.6404 44.944 9.1686L44.7559 8.59589L43.215 9.22587L43.365 9.71676C43.6541 10.6686 44.344 11.2658 45.4731 11.5494C46.7412 11.8658 48.2794 11.2767 48.6612 9.75767C49.0539 8.16227 47.963 7.35775 47.2403 6.83685ZM52.7901 10.8404L54.9528 11.9312L55.6455 10.5676L53.4828 9.47677C53.6956 9.05678 53.8756 8.70498 54.0856 8.28499L56.3818 9.44404L57.0745 8.08045L52.7111 5.87143L52.4574 6.37323L49.3184 12.5421L53.7256 14.7675L54.4183 13.4039L52.0893 12.2203L52.7901 10.8404ZM62.7444 10.914L59.7445 19.7392L57.9009 18.1329C57.9009 18.1329 58.3291 16.8783 58.479 16.4311L57.3882 15.4929L55.8119 16.3275L54.4892 15.1548L61.4899 11.5331L62.7444 10.914Z" fill="#FBB700"/>
<path d="M21.2721 13.8457C21.6239 15.1248 21.2721 16.232 20.2385 17.1402C19.5445 17.738 18.642 18.0364 17.7285 17.9699C16.815 17.9035 15.965 17.4776 15.365 16.7856C14.0014 15.2257 14.1214 13.0439 15.6377 11.7103C16.0319 11.3718 16.5025 11.1341 17.0089 11.0177C17.5153 10.9013 18.0424 10.9097 18.5449 11.0422L18.7221 11.0858L18.5449 11.8685L18.3676 11.8331C17.7131 11.7049 16.9686 11.6094 16.374 12.1276C16.1663 12.2936 15.9945 12.5001 15.8688 12.7345C15.7432 12.9689 15.6664 13.2263 15.6431 13.4912C15.5995 14.1512 15.9159 14.9039 16.5922 15.6729C17.0795 16.2735 17.7782 16.6648 18.5449 16.7665C18.7769 16.7838 19.01 16.7535 19.23 16.6775C19.4499 16.6016 19.652 16.4815 19.8239 16.3247C20.1394 16.0538 20.3675 15.6956 20.4797 15.2952C20.5918 14.8948 20.5828 14.4701 20.4539 14.0748L20.3939 13.8894L21.2121 13.6657L21.2721 13.8457ZM25.8837 5.71053L24.6265 6.29142L25.8237 8.83043L23.792 9.78767L22.5975 7.24866L21.1712 7.92773L24.0511 14.0421L25.4774 13.3821L24.1656 10.6004L26.1974 9.64313L27.5064 12.4249L28.9327 11.7458L26.0528 5.62871L25.8837 5.71053ZM32.5462 10.0168C32.4862 9.72494 32.1481 8.05318 32.0881 7.75864L34.4635 7.27866L34.308 6.50687L31.9326 6.98685L31.5208 4.94146L34.038 4.43148L33.8826 3.65968L33.6998 3.69786L29.8191 4.48057L31.1554 11.1022L35.2462 10.284L35.0907 9.51222L32.5462 10.0168ZM39.3151 3.40878L37.7415 3.37606V3.56423L37.6052 10.1313L41.7259 10.2186L41.745 9.34041L39.1842 9.28587C39.2006 8.93679 39.3151 3.40878 39.3151 3.40878ZM47.224 5.18418C47.7258 5.3069 48.0148 5.64235 48.1376 6.23687L48.1812 6.44414L48.9993 6.17142L48.9666 6.00779C48.8756 5.6536 48.7043 5.32508 48.4661 5.0476C48.2279 4.77012 47.9291 4.5511 47.5928 4.40745C47.2565 4.26381 46.8917 4.19938 46.5265 4.21915C46.1613 4.23892 45.8056 4.34236 45.4867 4.52147C45.2594 4.65408 45.0608 4.83066 44.9025 5.04091C44.7443 5.25116 44.6295 5.49086 44.5649 5.74598C44.2404 7.03594 45.0831 7.63865 45.7567 8.12136C46.4303 8.60407 46.8476 8.93951 46.6785 9.63495C46.6516 9.74844 46.602 9.8553 46.5326 9.94906C46.4633 10.0428 46.3756 10.1215 46.2749 10.1804C46.0511 10.3139 45.7844 10.3559 45.5304 10.2977C45.034 10.1722 44.7749 9.90494 44.5786 9.30768L44.5186 9.11678L43.665 9.46586L43.7141 9.62949C43.9622 10.4476 44.5649 10.9604 45.5549 11.2085C46.6458 11.4812 47.9657 10.9876 48.2821 9.68949C48.623 8.3259 47.7367 7.67137 47.0085 7.1423C46.3922 6.68959 46.0213 6.38687 46.1494 5.88779C46.1654 5.76829 46.2067 5.65358 46.2707 5.55136C46.3346 5.44915 46.4197 5.36179 46.5201 5.29515C46.6206 5.22851 46.7342 5.18413 46.8532 5.16499C46.9723 5.14585 47.094 5.15239 47.2103 5.18418H47.224ZM53.9356 7.76137L56.2291 8.92042L56.5836 8.21681L52.8692 6.34596L52.7847 6.51505L49.823 12.3785L53.5592 14.2657L53.9165 13.5621L51.5874 12.3839L52.6347 10.3277L54.7973 11.4185L55.1546 10.7149L52.9919 9.62404C53.1119 9.36223 53.7883 8.02318 53.9219 7.76137H53.9356ZM62.0898 11.664L59.5754 19.0819L58.34 18.0183L58.9208 16.3165L57.4563 15.043L55.88 15.8775L55.1519 15.2448L61.6644 11.8767L62.0898 11.664ZM59.199 15.5011C59.3108 15.1766 59.6054 14.3366 59.7826 13.8266L58.2118 14.6448C58.46 14.8602 58.9481 15.2911 59.199 15.5011Z" fill="white"/>
</svg>
