<?xml version="1.0" encoding="utf-8"?>
<!-- Generator: Adobe Illustrator 23.0.2, SVG Export Plug-In . SVG Version: 6.00 Build 0)  -->
<svg version="1.1" id="_xB7__x2116_АМѕо_1" xmlns="http://www.w3.org/2000/svg" xmlns:xlink="http://www.w3.org/1999/xlink"
	 x="0px" y="0px" viewBox="0 0 24.3 24.6" style="enable-background:new 0 0 24.3 24.6;" xml:space="preserve">
<style type="text/css">
	.st0{fill:#FFF200;}
	.st1{fill:#FFDF00;}
	.st2{fill:#FFE100;}
	.st3{fill:#FFE300;}
	.st4{fill:#E22F22;}
	.st5{fill:#FFE600;}
</style>
<g>
	<path d="M13.3,23.5c-0.1,0.3-0.4,1-1.2,1c-0.9,0-1.2-0.9-1.2-1l0-0.1c0,0,0.7,0.1,1.1,0.1C12.5,23.5,13.2,23.5,13.3,23.5L13.3,23.5
		L13.3,23.5z"/>
	<path d="M15.6,23.1l0.2,0c-0.2,0.5-0.6,1.2-1.3,1.2c-0.7,0-1.1-0.4-1.2-0.7l-0.1-0.1C13.1,23.5,14.3,23.4,15.6,23.1L15.6,23.1z"/>
	<path d="M8.8,23.1l-0.2,0c0.2,0.5,0.6,1.2,1.3,1.2c0.7,0,1.1-0.4,1.3-0.7l0.1-0.1C11.3,23.5,10.1,23.4,8.8,23.1L8.8,23.1z"/>
	<path class="st0" d="M12.8,23.6c-0.1,0.2-0.2,0.2-0.3,0.2c-0.1,0-0.2,0.1-0.2,0.2c0,0.1,0.1,0.2,0.2,0.2c0.3,0,0.4-0.4,0.5-0.5
		c0,0,0.1,0,0.2,0c0,0-0.3,0.8-1,0.8c-0.7,0-1-0.8-1-0.8s0.6,0,0.9,0C12.5,23.6,12.7,23.6,12.8,23.6L12.8,23.6z"/>
	<path class="st0" d="M15.5,23.2c-0.5,0.1-0.8,0.2-1.5,0.3c0,0,0,0.1,0.2,0.1c0.1,0,0.1,0,0.1,0c0,0,0.1,0,0.1,0.1
		c0,0.1-0.1,0.1-0.2,0.1c-0.2,0-0.4-0.1-0.5-0.3c0,0-0.1,0-0.2,0c0,0,0.3,0.5,1,0.5C15.1,24,15.4,23.4,15.5,23.2L15.5,23.2z"/>
	<path class="st1" d="M15,23.7c0-0.1,0-0.2-0.1-0.3c-0.2,0.1-0.5,0.1-0.9,0.2c0,0,0,0,0,0c0,0,0.1,0,0.2,0c0.1,0,0.1,0,0.1,0
		c0,0,0.1,0,0.1,0.1c0,0.1-0.1,0.1-0.2,0.1c0,0-0.1,0-0.1,0c0,0.1,0.1,0.1,0.1,0.2c0.1,0,0.2,0,0.3,0c0.2,0,0.4-0.1,0.5-0.2
		C15,23.8,15,23.7,15,23.7L15,23.7z"/>
	<path class="st2" d="M15,23.7c0-0.1,0-0.2-0.1-0.3c-0.2,0.1-0.5,0.1-0.9,0.2c0,0,0,0,0,0c0,0,0.1,0,0.2,0c0.1,0,0.1,0,0.1,0
		c0,0,0.1,0,0.1,0.1c0,0.1-0.1,0.1-0.2,0.1c0,0-0.1,0-0.1,0c0,0.1,0.1,0.1,0.1,0.2c0.1,0,0.2,0,0.3,0c0.2,0,0.4-0.1,0.5-0.2
		C15,23.8,15,23.7,15,23.7L15,23.7z"/>
	<path class="st3" d="M15,23.7c0-0.1,0-0.2-0.1-0.3c-0.2,0.1-0.5,0.1-0.9,0.2c0,0,0,0,0,0c0,0,0.1,0,0.2,0c0.1,0,0.1,0,0.1,0
		c0,0,0.1,0,0.1,0.1c0,0.1-0.1,0.1-0.2,0.1c0,0-0.1,0-0.1,0c0,0.1,0.1,0.1,0.1,0.2c0.1,0,0.2,0,0.3,0c0.2,0,0.4-0.1,0.5-0.1
		C15,23.8,15,23.7,15,23.7L15,23.7z"/>
	<path class="st0" d="M8.9,23.2c0.5,0.1,0.8,0.2,1.5,0.3c0,0,0,0.1-0.2,0.1c-0.1,0-0.1,0-0.1,0c0,0-0.1,0-0.1,0.1
		c0,0.1,0.1,0.1,0.2,0.1c0.2,0,0.4-0.1,0.5-0.3c0,0,0.1,0,0.2,0c0,0-0.3,0.5-1,0.5C9.3,24,9,23.4,8.9,23.2L8.9,23.2z"/>
	<path class="st0" d="M12.1,19.5c2.4,0,5.1-1.5,7-3.6c0.2-0.2,0.5-0.7,1.4-0.7c0.8,0,1.9,0.7,1.8,2.1c-0.1,1-1.5,3.2-3.9,4.6
		c-2.4,1.4-4.6,1.7-6.2,1.7c-1.5,0-3.8-0.3-6.2-1.7c-2.4-1.4-3.8-3.6-3.9-4.6c-0.1-1.4,1-2.1,1.8-2.1s1.2,0.4,1.4,0.7
		C7,18,9.7,19.5,12.1,19.5L12.1,19.5z"/>
	<path d="M12.1,19.4c1.2,0,2.4-0.4,3.6-1c1.2-0.6,2.4-1.5,3.3-2.6c0.1-0.1,0.2-0.3,0.5-0.4c0.2-0.1,0.5-0.3,1-0.3c0,0,0.1,0,0.1,0
		c0.4,0,0.8,0.2,1.2,0.6c0.3,0.3,0.6,0.8,0.6,1.4c0,0.1,0,0.1,0,0.2c-0.1,0.6-0.5,1.5-1.4,2.5c-0.7,0.8-1.5,1.5-2.6,2.2
		c-1.2,0.7-2.4,1.1-3.4,1.4c-1.1,0.2-2,0.3-2.8,0.3c-0.8,0-1.7-0.1-2.8-0.3c-1.1-0.2-2.2-0.7-3.4-1.4c-1.1-0.6-2-1.4-2.6-2.2
		c-0.8-1-1.3-1.9-1.4-2.5c0-0.1,0-0.2,0-0.2c0-0.6,0.2-1.1,0.6-1.4c0.3-0.3,0.8-0.5,1.2-0.6c0.1,0,0.1,0,0.1,0c0.4,0,0.7,0.1,1,0.3
		c0.2,0.1,0.4,0.3,0.5,0.4c0.9,1.1,2.1,2,3.3,2.6C9.7,19,11,19.4,12.1,19.4L12.1,19.4z M12.1,19.6c-1.2,0-2.5-0.4-3.7-1
		C7.2,17.9,6,17,5.1,15.9c-0.1-0.1-0.2-0.3-0.4-0.4c-0.2-0.1-0.5-0.2-0.9-0.2c0,0-0.1,0-0.1,0c-0.4,0-0.8,0.2-1.1,0.5
		c-0.3,0.3-0.5,0.7-0.5,1.3c0,0.1,0,0.1,0,0.2c0.1,0.5,0.5,1.5,1.3,2.4c0.6,0.8,1.5,1.5,2.6,2.1c1.2,0.7,2.4,1.1,3.4,1.3
		c1,0.2,2,0.3,2.8,0.3c0.8,0,1.7-0.1,2.8-0.3c1-0.2,2.2-0.7,3.4-1.3c1.1-0.6,1.9-1.4,2.6-2.1c0.8-0.9,1.3-1.9,1.3-2.4
		c0-0.1,0-0.1,0-0.2c0-0.5-0.2-1-0.5-1.3c-0.3-0.3-0.7-0.5-1.1-0.5c0,0-0.1,0-0.1,0c-0.4,0-0.7,0.1-0.9,0.2
		c-0.2,0.1-0.3,0.3-0.4,0.4c-1,1.1-2.1,2-3.4,2.7C14.6,19.2,13.3,19.6,12.1,19.6L12.1,19.6z"/>
	<path class="st4" d="M4.9,16.1L4.9,16.1c-0.2-0.3-0.5-0.6-1.1-0.6c-0.4,0-0.8,0.2-1.1,0.5c-0.2,0.2-0.4,0.6-0.4,1.2
		c0.1,0.8,1.4,3,3.8,4.3c1.9,1.1,3.9,1.6,6,1.6s4.1-0.5,6-1.6c2.4-1.3,3.7-3.5,3.8-4.3c0.1-0.6-0.2-1-0.4-1.2
		c-0.3-0.3-0.7-0.5-1.1-0.5c-0.6,0-0.9,0.3-1.1,0.5l0,0c-2,2.3-4.8,3.7-7.2,3.7C9.7,19.8,6.9,18.4,4.9,16.1L4.9,16.1z"/>
	<path class="st0" d="M19.9,13.4c0-1.2,0.9-2.1,2.1-2.1s2.1,0.9,2.1,2.1c0,1.2-0.9,2.1-2.1,2.1S19.9,14.5,19.9,13.4L19.9,13.4z"/>
	<path d="M19.8,13.4c0-0.6,0.2-1.2,0.6-1.5c0.4-0.4,0.9-0.6,1.5-0.6c0.6,0,1.2,0.2,1.5,0.6c0.4,0.4,0.6,0.9,0.6,1.5
		c0,0.6-0.2,1.2-0.6,1.5c-0.4,0.4-0.9,0.6-1.5,0.6c-0.6,0-1.2-0.2-1.5-0.6C20,14.5,19.8,14,19.8,13.4L19.8,13.4z M20,13.4
		c0,0.6,0.2,1.1,0.6,1.4c0.4,0.4,0.9,0.6,1.4,0.6c0.6,0,1.1-0.2,1.4-0.6c0.4-0.4,0.6-0.9,0.6-1.4c0-0.6-0.2-1.1-0.6-1.4
		c-0.4-0.4-0.9-0.6-1.4-0.6c-0.6,0-1.1,0.2-1.4,0.6C20.2,12.3,20,12.8,20,13.4L20,13.4z"/>
	<path class="st0" d="M0.2,13.4c0-1.2,0.9-2.1,2.1-2.1c1.2,0,2.1,0.9,2.1,2.1c0,1.2-0.9,2.1-2.1,2.1C1.1,15.5,0.2,14.5,0.2,13.4
		L0.2,13.4z"/>
	<path d="M0.1,13.4c0-0.6,0.2-1.2,0.6-1.5c0.4-0.4,0.9-0.6,1.5-0.6c0.6,0,1.2,0.2,1.5,0.6c0.4,0.4,0.6,0.9,0.6,1.5
		c0,0.6-0.2,1.2-0.6,1.5c-0.4,0.4-0.9,0.6-1.5,0.6c-0.6,0-1.2-0.2-1.5-0.6C0.4,14.5,0.1,14,0.1,13.4L0.1,13.4z M0.3,13.4
		c0,0.6,0.2,1.1,0.6,1.4c0.4,0.4,0.9,0.6,1.4,0.6c0.6,0,1.1-0.2,1.4-0.6c0.4-0.4,0.6-0.9,0.6-1.4c0-0.6-0.2-1.1-0.6-1.4
		c-0.4-0.4-0.9-0.6-1.4-0.6c-0.6,0-1.1,0.2-1.4,0.6C0.5,12.3,0.3,12.8,0.3,13.4L0.3,13.4z"/>
	<path d="M22.6,7.7l0-0.6c0.2,0.1,0.5,0.1,0.7-0.1c0.1-0.1,0.1-0.2,0.1-0.4c0-0.2-0.1-0.3-0.2-0.5c-0.7-0.7-1.3-1.4-1.3-1.4
		c-0.1-0.1-0.2-0.2-0.2-0.2c-0.1,0-0.4-0.2-0.6,0.2c-0.2,0.3-0.2,0.8-0.1,0.9l0.7,0.9C21.8,6.9,22.4,7.6,22.6,7.7L22.6,7.7z"/>
	<path d="M8.4,1.9C9.3,1.6,10,1.3,11,1.3L8.4,1.9L8.4,1.9z"/>
	<path d="M8.4,1.9C9.3,1.6,10,1.3,11,1.3l0.2-0.1c-0.6-0.5-1.1-0.8-1.7-0.8c-0.4,0-1.1,0.2-1.2,1.5L8.4,1.9L8.4,1.9z"/>
	<path d="M15.8,1.9c-0.8-0.3-1.6-0.5-2.6-0.6L13,1.2c0.6-0.5,1.1-0.8,1.7-0.8c0.4,0,1.1,0.2,1.2,1.5L15.8,1.9L15.8,1.9z"/>
	<path d="M11.4,1.1c0.2,0,0.6,0,0.7,0c0.2,0,0.6,0,0.7,0L11.4,1.1L11.4,1.1z"/>
	<path d="M11.2,1.2c0.4-0.8,0.8-1.1,1-1.1c0.3,0,0.6,0.4,0.8,1l0.1,0.1l-0.2,0c-0.1,0-0.5,0-0.7,0c-0.2,0-0.5,0-0.7,0L11.2,1.2
		L11.2,1.2z"/>
	<polygon class="st0" points="10.4,20.3 10,21.7 9.3,20 8.9,19.8 8.3,21.8 8.8,22 9.2,20.5 9.9,22.2 10.3,22.4 10.8,20.4 10.4,20.3 
			"/>
	<polygon class="st0" points="12,20.5 11.5,20.5 11.3,22.5 11.9,22.5 12,20.5 	"/>
	<polygon class="st0" points="12.5,20.5 12.5,20.8 13.1,20.7 13.3,22.4 13.9,22.4 13.6,20.6 14.2,20.5 14.2,20.2 12.5,20.5 	"/>
	<path class="st0" d="M18,19.6c0.3,0.5,0.2,0.8-0.2,1l-0.2,0.1l-0.8-1.3l0.2-0.1C17.6,19.1,17.9,19.3,18,19.6L18,19.6z M17,19.1
		l-0.7,0.4l1,1.8l0.7-0.4c0.7-0.4,0.8-1,0.5-1.5C18.2,18.8,17.6,18.7,17,19.1L17,19.1z"/>
	<polygon class="st0" points="15.7,21.6 15.5,21 16.1,20.8 16,20.5 15.4,20.7 15.2,20.2 15.8,20 15.8,19.7 14.6,20.1 15.3,22.1 
		16.5,21.7 16.4,21.4 15.7,21.6 	"/>
	<path class="st0" d="M7.9,19.4l-0.6,1.1c-0.2,0.3-0.4,0.5-0.7,0.4c-0.3-0.2-0.2-0.4,0-0.8L7.2,19l-0.5-0.3L6,19.9
		c-0.4,0.6,0.1,1,0.4,1.2c0.4,0.2,0.9,0.4,1.3-0.3l0.6-1.2L7.9,19.4L7.9,19.4z"/>
	<path class="st0" d="M7.5,7.3v9.6l4.6,3l4.6-3l0-9.6c-0.1-0.1-0.5-0.4-0.7-0.6H8.2C8,6.9,7.6,7.3,7.5,7.3L7.5,7.3z"/>
	<polygon points="7.6,7.3 7.6,16.9 12.1,19.8 16.6,16.9 16.6,7.3 16.8,7.3 16.8,16.9 16.8,17 16.8,17 12.2,20 12.1,20 12.1,20 
		7.5,17 7.4,17 7.4,7.3 7.6,7.3 	"/>
	<path d="M16.7,7.4C16.6,7.4,16.7,7.4,16.7,7.4L16.7,7.4C16.5,7.2,16.2,7,16,6.9l0.1-0.1c0.2,0.1,0.5,0.4,0.7,0.5h0c0,0,0,0,0.1,0
		L16.7,7.4L16.7,7.4z"/>
	<polygon points="16,6.9 8.2,6.9 8.2,6.7 16,6.7 16,6.9 	"/>
	<path d="M8.2,6.8C8.2,6.9,8,7,7.9,7.1C7.8,7.2,7.6,7.3,7.6,7.4L7.5,7.3c0,0,0.2-0.2,0.3-0.3c0.1-0.1,0.3-0.2,0.4-0.3L8.2,6.8
		L8.2,6.8z"/>
	<path class="st4" d="M12.4,11.4c0,0-0.1,0.1-0.2,0.2c-0.1,0.1-0.1,0.2,0,0.2c0.1,0,0.2,0,0.2-0.1C12.5,11.6,12.5,11.4,12.4,11.4
		L12.4,11.4z M11.6,11.7c0,0.1,0.1,0.2,0.2,0.1c0.1,0,0.1-0.1,0-0.2c-0.1-0.1-0.2-0.2-0.2-0.2C11.5,11.4,11.6,11.6,11.6,11.7
		L11.6,11.7z M12,13c0.2-0.3,0.2-0.5,0.2-0.5h-0.4C11.8,12.4,11.9,12.7,12,13L12,13z M12.1,11.1l0.4-0.6l0.3,0.6h0.5
		c-0.3,0.3-0.4,0.7-0.4,0.9v0.3c0,0.1-0.1,0.3-0.1,0.3s0.4,0.3,0.5,0.4c0,0,0.1,0,0,0.1c0,0.1-0.3,0.2-0.3,0.2
		c-0.1,0.1-0.1,0.1-0.1,0.1c0,0.1,0.1,0.1,0.2,0c0.1,0,0.3-0.1,0.5-0.2c0.2-0.1,0.4-0.1,0.4-0.1v-0.3h-0.7v-1.1l-0.1-0.2l0.3-0.5
		l0.3,0.5l-0.1,0.2v0.6H14v-0.6l-0.1-0.2l0.3-0.5l0.3,0.5l-0.1,0.2v0.6h0.4v-0.6l-0.1-0.2l0.3-0.5l0.3,0.5l-0.1,0.2l0,1.1l-0.7,0
		v0.5c0.2,0.1,0.3,0.5,0.3,0.7c0,0.2-0.1,0.3-0.1,0.3c0,0.2,0,0.2,0,0.4c0,0.1-0.2,0.4-0.2,0.4v2.7c0,0.2-0.4,0.2-0.4,0v-2.6
		c-0.2-0.3-0.9-0.5-0.9-0.5c-0.2,0.2-0.4,0.6-0.4,0.6c0.1,0.1,0.3,0,0.3-0.1c0.1-0.1,0.2-0.1,0.3,0c0.1,0,0.1,0.1,0.1,0.2
		c0,0.1-0.1,0.3-0.1,0.4c0,0.1,0.1,0.1,0.2,0.1c0.2,0,0.2,0.3,0.2,0.4c0,0.1-0.1,0.4-0.1,0.6c0,0.2,0,0.3,0,0.4c0,0.1,0.1,0.2,0,0.3
		c0,0.2-0.1,0.2-0.2,0.1c-0.1-0.1-1.6-1.7-1.6-1.7c-0.1,0.3,0.3,0.9,0.4,1c0.1,0.2,0.1,0.3,0,0.4c-0.1,0.1-0.3,0.2-0.4,0.3
		c0,0.1,0.1,0.4,0.4,0.8c0.3,0.4-0.3,0.7-0.7,0.7c-0.4,0.1-0.4-0.2-0.4-0.3c0-0.1,0-0.2,0-0.4c0-0.1-0.1-0.3-0.3-0.5
		c-0.2-0.2-0.2-0.4-0.1-0.9c0.1-0.5,0.1-0.8,0.1-0.8s-0.2,0-0.4,0c-0.3,0-0.5-0.2-0.5-0.8c0-0.6,0-2.1-0.1-2.2
		c0-0.2-0.2-0.2-0.3-0.2c-0.1,0-0.1-0.1,0-0.2c0.2-0.1,0.4-0.3,0.3-0.5c-0.1-0.1-0.4-0.1-0.6,0C9.2,12.5,9,12.8,9,12.8
		c-0.1,0.1-0.1,0.1-0.1,0c0-0.1,0-0.4-0.1-0.5c0-0.1-0.1-0.3-0.2-0.4c0-0.1,0-0.1,0.1-0.1c0.1,0,0.2,0.1,0.3,0.1
		c0.1,0,0.2,0,0.3-0.1c0.1-0.1,0.2-0.4,0.2-0.5c0.1-0.1,0.2-0.1,0.2-0.1c0.1,0,0.1,0.1,0.2,0.1c0.1,0,0.1,0,0.2,0c0,0,0.1,0,0.1-0.1
		c0-0.1,0.1,0,0.1,0c0.2,1.2,0.7,1.3,0.7,1.3c-0.1,0.2-0.3,0.5-0.3,0.6c0,0.1-0.1,0.2-0.1,0.3c0,0.1,0,0.9,0.1,1.2
		c0.1,0.3,0.2,0.2,0.3,0.1c0.1-0.1,0.2-0.5,0.2-0.5s0-0.1,0-0.2c0-0.1-0.2-0.3-0.2-0.3c0-0.1-0.2-0.2-0.2-0.5c0-0.3,0.3-0.5,0.4-0.6
		c0.1-0.1,0.1-0.2,0.1-0.2c0-0.2-0.3-0.7-0.4-0.9c-0.1-0.2-0.3-0.5-0.3-0.5h0.5l0.3-0.6l0.3,0.6L12.1,11.1L12.1,11.1z M14,14.2v-0.4
		c0,0-0.1-0.1-0.3-0.1c-0.2,0-0.4,0.1-0.4,0.1C13.3,13.9,13.5,14.2,14,14.2L14,14.2z"/>
	<polygon class="st4" points="7.9,9.7 16.4,9.7 16.4,10.3 7.9,10.3 7.9,9.7 	"/>
	<polygon class="st4" points="7.9,9.4 7.9,7.1 16.4,7.1 16.4,9.4 7.9,9.4 	"/>
	<polygon class="st0" points="14.7,9.5 14.7,9.1 14.1,9.1 14.1,8.8 14.6,8.8 14.6,7.7 14.1,7.7 14,7.4 13.8,7.7 13.3,7.7 13.3,8.8 
		13.8,8.8 13.8,9.1 12.6,9.1 12.6,8.8 13.1,8.8 13.1,7.7 12.7,7.7 12.5,7.4 12.4,7.7 11.9,7.7 11.9,8.8 12.4,8.8 12.4,9.1 11.2,9.1 
		11.2,8.8 11.7,8.8 11.7,7.7 11.2,7.7 11.1,7.4 10.9,7.7 10.5,7.7 10.5,8.8 11,8.8 11,9.1 10,9.1 9,8.9 9.2,9.5 14.7,9.5 	"/>
	<polygon class="st0" points="9.3,8.8 10,9 10.3,8 10.3,7.8 9.3,8.8 	"/>
	<path class="st0" d="M10.9,1.2c-1,0.1-1.6,0.3-2.4,0.6C8.5,1.4,8.6,1.2,8.8,1c0,0.2,0.1,0.4,0.4,0.4c0.3,0,0.5-0.2,0.5-0.3
		c0-0.1-0.1-0.2-0.2-0.2C9.3,0.9,9.2,1,9.2,1c0,0,0,0.1-0.1,0.1c0,0-0.2-0.1-0.1-0.2c0-0.2,0.3-0.3,0.5-0.3
		C9.6,0.6,10.2,0.6,10.9,1.2L10.9,1.2z"/>
	<path class="st0" d="M15.8,1.8c-0.8-0.3-1.5-0.5-2.5-0.6c0.5-0.3,0.9-0.6,1.4-0.6c0.2,0,0.5,0.1,0.5,0.3c0,0.2-0.1,0.2-0.1,0.2
		c0,0-0.1,0-0.1-0.1c0,0,0-0.2-0.2-0.2c-0.2,0-0.2,0.1-0.2,0.3c0,0.1,0.2,0.3,0.5,0.3c0.3,0,0.4-0.2,0.4-0.4
		C15.6,1.2,15.7,1.4,15.8,1.8L15.8,1.8z"/>
	<path class="st0" d="M11.5,1c0,0-0.1,0.1-0.1,0.1c0.2,0,0.5,0,0.7,0c0.2,0,0.6,0,0.7,0c-0.1-0.3-0.4-0.8-0.6-0.8c0,0-0.1,0-0.3,0.2
		c0,0,0,0.1,0.1,0.1c0.1,0,0.2,0.1,0.2,0.2C12.1,0.9,12,1,11.8,1C11.6,1,11.5,1,11.5,1L11.5,1z"/>
	<path d="M2.8,6.7l0.7-0.9c0-0.2,0.1-0.6-0.1-0.9C3.1,4.5,2.8,4.6,2.7,4.6c-0.1,0-0.2,0.1-0.2,0.2c0,0-0.6,0.7-1.3,1.4
		C1,6.3,0.9,6.5,0.9,6.7C0.9,6.8,0.9,7,1,7.1c0.2,0.2,0.5,0.2,0.7,0.1l0,0.6C1.9,7.6,2.5,6.9,2.8,6.7L2.8,6.7z"/>
	<path class="st0" d="M12.1,5.3c3.8,0,5.9,3.5,6.4,4.2c0.8,1.1,1.9,2,3,1.7c1.7-0.4,1.6-3,1.6-3c-0.4-0.3-1.1-0.7-2.4-2.5
		c-1.3-1.8-4.2-4.5-8.7-4.5c-4.5,0-7.4,2.7-8.7,4.5C2.2,7.5,1.5,7.9,1,8.2c0,0-0.1,2.6,1.6,3c1.2,0.3,2.2-0.6,3-1.7
		C6.2,8.9,8.3,5.3,12.1,5.3L12.1,5.3z"/>
	<path d="M12.1,5.3c3.5,0,5.6,3,6.3,4c0.1,0.1,0.1,0.2,0.1,0.2c0.4,0.5,0.9,1,1.4,1.4c0.5,0.3,1,0.5,1.6,0.3
		c1.5-0.4,1.6-2.6,1.6-2.9c0,0-0.1,0-0.1-0.1c-0.4-0.3-1.1-0.8-2.3-2.4c-0.7-1-2-2.4-3.8-3.3c-1.3-0.7-2.9-1.2-4.8-1.2
		c-1.9,0-3.5,0.5-4.8,1.2C5.5,3.4,4.3,4.7,3.5,5.7C2.4,7.4,1.7,7.9,1.2,8.2c0,0-0.1,0.1-0.1,0.1c0,0.3,0,2.5,1.6,2.9
		c0.6,0.1,1.1,0,1.6-0.3c0.5-0.3,1-0.8,1.4-1.4c0,0,0.1-0.1,0.1-0.2C6.5,8.3,8.6,5.3,12.1,5.3L12.1,5.3z M12.1,5.4
		c-3.4,0-5.5,3-6.2,3.9C5.9,9.4,5.8,9.5,5.8,9.6c-0.4,0.6-0.9,1.1-1.4,1.4c-0.5,0.3-1.1,0.5-1.7,0.3C0.9,10.9,1,8.2,1,8.2l0,0l0,0
		c0,0,0.1-0.1,0.1-0.1c0.4-0.3,1.1-0.8,2.3-2.4c0.7-1.1,2-2.4,3.9-3.4c1.3-0.7,3-1.2,4.9-1.2c1.9,0,3.5,0.5,4.9,1.2
		c1.8,1,3.1,2.3,3.9,3.4C22,7.3,22.7,7.8,23.1,8c0.1,0,0.1,0.1,0.1,0.1l0,0l0,0c0,0,0.1,2.6-1.7,3.1c-0.6,0.2-1.2,0-1.7-0.3
		c-0.5-0.3-1-0.8-1.4-1.4c0-0.1-0.1-0.1-0.2-0.2C17.6,8.4,15.5,5.4,12.1,5.4L12.1,5.4z"/>
	<path class="st4" d="M12.1,5c3.6,0,5.8,3.1,6.5,4.1c0.1,0.1,0.1,0.2,0.1,0.2c1,1.3,1.8,1.8,2.7,1.6c1.2-0.3,1.4-2,1.4-2.5l0,0l0,0
		c-0.4-0.3-1.1-0.8-2.4-2.5c-0.7-1-3.5-4.4-8.4-4.4c-4.9,0-7.7,3.3-8.4,4.4C2.6,7.6,1.8,8.1,1.4,8.4l0,0l0,0c0,0.5,0.2,2.2,1.4,2.5
		c0.8,0.2,1.7-0.3,2.7-1.6c0,0,0.1-0.1,0.1-0.2C6.3,8.1,8.5,5,12.1,5L12.1,5z"/>
	<polygon class="st0" points="4.3,6.4 3.9,6.9 4.6,8.4 3.1,7.9 2.8,8.3 4.3,9.6 4.6,9.3 3.5,8.4 4.9,8.8 5.1,8.7 4.4,7.2 5.5,8.2 
		5.9,7.8 4.3,6.4 	"/>
	<path class="st0" d="M6.3,6.1L5.9,6.5L5.5,5.8L6.3,6.1L6.3,6.1z M5.4,5.2L5.1,5.6l1,2l0.2-0.3L6,6.8l0.5-0.5l0.5,0.2L7.5,6L5.4,5.2
		L5.4,5.2z"/>
	<polygon class="st0" points="7.8,3.3 8.6,4.6 6.9,3.9 6.5,4.2 7.6,5.9 8,5.7 7.2,4.4 9,5.1 9.3,4.8 8.3,3.1 7.8,3.3 	"/>
	<polygon class="st0" points="14.3,4.3 14.5,3.7 15.1,3.9 15.2,3.7 14.6,3.5 14.8,2.9 15.4,3.1 15.5,2.9 14.4,2.5 13.7,4.4 15,4.9 
		15.1,4.6 14.3,4.3 	"/>
	<polygon class="st0" points="17.8,4.2 17.7,4.4 18.1,4.8 16.9,6.1 17.3,6.5 18.5,5.2 18.9,5.6 19.1,5.3 17.8,4.2 	"/>
	<polygon class="st0" points="18.4,7.3 18.9,6.9 19.3,7.4 19.6,7.2 19.1,6.7 19.6,6.3 20,6.8 20.2,6.7 19.4,5.7 17.9,7.1 18.7,8.1 
		18.9,7.9 18.4,7.3 	"/>
	<path class="st0" d="M20.8,7.8c0.1,0.2,0.1,0.3,0,0.5c-0.2,0.1-0.4,0.1-0.5-0.1l-0.1-0.1l0.5-0.5L20.8,7.8L20.8,7.8z M20.5,8.8
		c0,0,0.3,0.2,0.7-0.2c0.3-0.3,0.2-0.6-0.1-1l-0.6-0.6L19,8.5l0.4,0.4L20,8.3l0.2,0.2l-0.4,0.9l0.5,0.4L20.5,8.8L20.5,8.8z"/>
	<polygon class="st0" points="12.8,2.3 12.8,3.2 12,3.1 12,2.3 11.5,2.3 11.4,4.3 12,4.4 12,3.4 12.8,3.4 12.8,4.4 13.3,4.4 
		13.4,2.3 12.8,2.3 	"/>
	<path class="st0" d="M15.7,5.4c0.4,0.2,0.8,0.2,1-0.1c0.1-0.2,0.1-0.4,0-0.7c0-0.1-0.1-0.2-0.1-0.3c-0.1-0.1-0.1-0.3-0.1-0.4
		c0.1-0.1,0.2-0.1,0.4,0c0.2,0.1,0.2,0.3,0.3,0.4l0.2-0.1c-0.1-0.2-0.2-0.4-0.4-0.5c-0.4-0.3-0.8-0.2-0.9,0.1
		c-0.2,0.2-0.1,0.5,0,0.7c0,0,0.1,0.1,0.1,0.2c0.1,0.2,0.2,0.4,0.1,0.5c-0.1,0.2-0.3,0.2-0.4,0.1c-0.2-0.1-0.3-0.3-0.3-0.4l-0.3,0.1
		C15.3,5,15.4,5.2,15.7,5.4L15.7,5.4z"/>
	<path class="st0" d="M10.1,2.4C9.5,2.6,9,3.1,9.2,3.7c0.1,0.4,0.4,1,1.4,0.8c0.3-0.1,0.4-0.2,0.6-0.3L11,4
		c-0.1,0.1-0.2,0.2-0.4,0.2C10.1,4.4,9.8,4,9.7,3.6c-0.1-0.5,0.2-0.9,0.5-0.9c0.2-0.1,0.4,0,0.5,0l0,0l0.1-0.3
		C10.6,2.4,10.4,2.4,10.1,2.4L10.1,2.4z"/>
	<path class="st0" d="M21,5.8c0-0.1-0.1-0.6,0.1-0.9c0.2-0.3,0.3-0.2,0.4-0.1c0,0,0.2,0.1,0.2,0.2c0,0.1,0,0.2-0.1,0.3
		c-0.1,0.2-0.4,0.3-0.4,0.3s0.4,0.7,1.1,1.4l0,0.5C21.4,6.5,21,5.8,21,5.8L21,5.8z"/>
	<path class="st0" d="M21.5,5.7c0.1,0.2,0.4,0.6,1,1.2c0.1,0.1,0.4,0.2,0.5,0c0.1-0.1,0.1-0.2,0.1-0.3c0-0.1-0.1-0.3-0.2-0.3
		c-0.1-0.1-0.7-0.7-1.1-1.1c0,0.1-0.1,0.2-0.1,0.2C21.8,5.5,21.7,5.6,21.5,5.7L21.5,5.7z"/>
	<path class="st0" d="M1.9,7.5l0-0.5C2.7,6.3,3,5.6,3,5.6S2.7,5.5,2.6,5.3C2.5,5.3,2.5,5.1,2.5,5c0-0.2,0.1-0.2,0.2-0.2
		c0.1,0,0.3-0.1,0.4,0.1c0.2,0.3,0.1,0.8,0.1,0.9C3.3,5.8,2.9,6.5,1.9,7.5L1.9,7.5z"/>
	<path class="st0" d="M2.7,5.7c-0.1,0.2-0.4,0.6-1,1.2C1.6,7,1.3,7.1,1.2,6.9C1.1,6.9,1.1,6.8,1.1,6.7c0-0.1,0.1-0.3,0.2-0.3
		c0.1-0.1,0.7-0.7,1.1-1.1c0,0.1,0.1,0.2,0.1,0.2C2.5,5.5,2.6,5.6,2.7,5.7L2.7,5.7z"/>
	<path class="st4" d="M0.6,13.4c0-0.9,0.8-1.7,1.7-1.7c0.9,0,1.7,0.8,1.7,1.7c0,0.9-0.8,1.7-1.7,1.7C1.4,15.1,0.6,14.3,0.6,13.4
		L0.6,13.4z"/>
	<path class="st0" d="M3.2,12.1c0,0,0.1,0.1,0.1,0.1c0.1,0.1,0.3,0.3,0.4,0.5c0.1,0.2-0.2,0.6-0.3,0.7c-0.4,0.4-0.6,0.4-0.8,0.4
		c-0.1,0-0.2-0.1-0.2-0.2c0-0.3,0.2-0.8,0.3-0.9c0-0.1,0.1-0.1,0.1-0.1c0.1,0,0.3-0.1,0.4-0.2C3.2,12.2,3.2,12.1,3.2,12.1L3.2,12.1z
		 M1.8,11.9c0.2-0.1,0.3-0.1,0.5-0.1c0.3,0,0.5,0,0.7,0.2c0.1,0,0.1,0.1,0.1,0.1c0,0.2-0.3,0.3-0.5,0.3c-0.2,0-0.5-0.1-0.7-0.1
		c-0.2-0.1-0.2-0.2-0.2-0.2C1.7,12,1.7,11.9,1.8,11.9L1.8,11.9z M1.1,14.4c-0.2-0.2-0.4-0.6-0.4-1c0-0.2,0-0.3,0.1-0.4
		c0,0,0-0.1,0.1,0C0.9,13,0.9,13,1,13c0,0.1,0.2,0.2,0.2,0.3C1.1,13.7,1.2,14.2,1.1,14.4C1.2,14.4,1.2,14.4,1.1,14.4L1.1,14.4z
		 M1.2,13.1C1.1,13,1,12.8,1,12.8c0,0,0-0.2,0-0.2c0.1-0.2,0.3-0.4,0.5-0.5c0,0,0.1,0,0.1,0.1c0,0,0,0.1,0,0.1c0,0,0,0.1,0,0.2
		c0,0.1-0.3,0.4-0.3,0.6C1.2,13.1,1.2,13.1,1.2,13.1L1.2,13.1z M2.3,14.9C2.3,14.9,2.3,14.9,2.3,14.9c-0.3,0-0.6-0.1-0.8-0.2
		c-0.2-0.1-0.3-0.6-0.3-0.8c0-0.8,0.3-1.3,0.4-1.4c0.1-0.1,0.2-0.1,0.3-0.1c0.1,0,0.1,0,0.2,0.1c0.1,0,0.2,0,0.2,0.1
		c0.1,0,0.2,0,0.1,0.2c-0.1,0.2-0.2,0.5-0.2,1c0,0.4,0,0.8,0.1,1C2.4,14.9,2.4,14.9,2.3,14.9L2.3,14.9z M2.7,14.9
		c-0.1,0-0.1,0-0.2-0.1c-0.2-0.2-0.2-0.7-0.2-0.7c0-0.1,0-0.1,0.1-0.1c0.4,0,0.7-0.1,0.9-0.3c0.3-0.2,0.4-0.4,0.4-0.5
		c0,0,0.1,0,0.1,0c0,0.1,0,0.2,0,0.3C3.8,14.1,3.4,14.7,2.7,14.9L2.7,14.9z"/>
	<path class="st4" d="M23.7,13.4c0-0.9-0.8-1.7-1.7-1.7c-0.9,0-1.7,0.8-1.7,1.7c0,0.9,0.8,1.7,1.7,1.7C23,15.1,23.7,14.3,23.7,13.4
		L23.7,13.4z"/>
	<path class="st0" d="M21.2,12.3c0.1,0.1,0.2,0.1,0.4,0.2c0,0,0.1,0,0.1,0.1c0.1,0.1,0.3,0.6,0.3,0.9c0,0.1-0.1,0.2-0.2,0.2
		c-0.1,0-0.4,0-0.8-0.4c-0.1-0.1-0.4-0.4-0.3-0.7c0.1-0.2,0.2-0.3,0.4-0.5c0,0,0.1-0.1,0.1-0.1C21.1,12.1,21.1,12.2,21.2,12.3
		L21.2,12.3z M22.6,12.1c0,0,0,0.2-0.2,0.2c-0.2,0.1-0.4,0.1-0.7,0.1c-0.2,0-0.5-0.1-0.5-0.3c0-0.1,0-0.1,0.1-0.1
		c0.2-0.1,0.5-0.2,0.7-0.2c0.2,0,0.3,0,0.5,0.1C22.6,11.9,22.6,12,22.6,12.1L22.6,12.1z M23.1,14.3c0-0.1,0.1-0.6,0-1
		c0-0.1,0.2-0.2,0.2-0.3c0-0.1,0.1-0.1,0.1-0.1c0-0.1,0.1,0,0.1,0c0,0.1,0.1,0.3,0.1,0.4C23.6,13.8,23.4,14.2,23.1,14.3
		C23.2,14.4,23.1,14.4,23.1,14.3L23.1,14.3z M23.1,13c-0.1-0.2-0.3-0.6-0.3-0.6c0-0.1,0-0.1,0-0.2c0,0,0-0.1,0-0.1
		c0-0.1,0-0.1,0.1-0.1c0.2,0.1,0.4,0.3,0.5,0.5c0,0.1,0,0.2,0,0.2C23.3,12.8,23.2,13,23.1,13C23.1,13.1,23.1,13.1,23.1,13L23.1,13z
		 M22,14.7c0.1-0.2,0.1-0.6,0.1-1c0-0.4-0.2-0.8-0.2-1c-0.1-0.2,0-0.2,0.1-0.2c0.1,0,0.2,0,0.2-0.1c0.1,0,0.1,0,0.2-0.1
		c0.1,0,0.2,0,0.3,0.1c0.1,0.1,0.4,0.6,0.4,1.4c0,0.2-0.1,0.7-0.3,0.8c-0.2,0.1-0.5,0.2-0.8,0.2c0,0,0,0,0,0
		C21.9,14.9,21.9,14.9,22,14.7L22,14.7z M20.5,13.4c0-0.1,0-0.2,0-0.3c0-0.1,0.1-0.1,0.1,0c0,0,0.1,0.3,0.4,0.5
		c0.3,0.2,0.5,0.3,0.9,0.3c0,0,0.1,0.1,0.1,0.1c0,0.1,0,0.6-0.2,0.7c0,0-0.1,0.1-0.2,0.1C20.9,14.7,20.5,14.1,20.5,13.4L20.5,13.4z"
		/>
	<path class="st5" d="M20.3,13.4c0-0.5,0.2-0.9,0.5-1.2c0.3-0.3,0.7-0.5,1.2-0.5c0.5,0,0.9,0.2,1.2,0.5c0.3,0.3,0.5,0.7,0.5,1.2
		c0,0.5-0.2,0.9-0.5,1.2s-0.7,0.5-1.2,0.5c-0.5,0-0.9-0.2-1.2-0.5C20.5,14.3,20.3,13.8,20.3,13.4L20.3,13.4z M20.3,13.4
		c0,0.5,0.2,0.9,0.5,1.2c0.3,0.3,0.7,0.5,1.2,0.5s0.9-0.2,1.2-0.5c0.3-0.3,0.5-0.7,0.5-1.2c0-0.5-0.2-0.9-0.5-1.2
		c-0.3-0.3-0.7-0.5-1.2-0.5c-0.5,0-0.9,0.2-1.2,0.5C20.5,12.5,20.3,12.9,20.3,13.4L20.3,13.4z"/>
</g>
</svg>
