<svg width="328" height="59" viewBox="0 0 328 59" fill="none" xmlns="http://www.w3.org/2000/svg">
<path d="M79.04 17.4752C79.1 18.3952 76.15 19.3852 74.73 19.4752C70.28 19.7852 67.94 16.6952 67.58 11.4752C67.39 8.74515 67.74 6.71515 69.06 5.12515C69.5998 4.47475 70.2686 3.9434 71.0243 3.56472C71.7799 3.18604 72.6059 2.96829 73.45 2.92517C74.9848 2.82451 76.5101 3.23216 77.79 4.08514C77.99 4.20514 78.09 4.31515 78.1 4.47515C78.1035 4.54511 78.1035 4.61519 78.1 4.68515L77.18 7.40515C77.1632 7.45791 77.1317 7.50481 77.0892 7.54025C77.0467 7.57569 76.9949 7.59821 76.94 7.60516C76.877 7.61447 76.813 7.61447 76.75 7.60516C75.99 7.31516 74.92 6.53516 73.85 6.60516C72.78 6.67516 71.85 7.60516 72.08 10.7352C72.36 14.8152 73.54 15.8951 74.8 15.8051C75.7875 15.6069 76.7091 15.1633 77.48 14.5152C77.55 14.5152 77.62 14.5752 77.7 14.7052L79.01 17.2451C79.0419 17.3173 79.0524 17.3972 79.04 17.4752Z" fill="white"/>
<path d="M85.3 18.1251C85.3074 18.1597 85.307 18.1955 85.2989 18.2299C85.2908 18.2644 85.2753 18.2966 85.2533 18.3243C85.2313 18.352 85.2034 18.3745 85.1718 18.3902C85.1401 18.4059 85.1053 18.4144 85.0699 18.4151L81.23 18.6351C80.89 18.6351 80.86 18.4951 80.84 18.2651L79.98 3.26514C79.98 2.99514 80.08 2.91512 80.33 2.90512L84.15 2.68512C84.1868 2.67909 84.2246 2.68141 84.2604 2.69189C84.2963 2.70238 84.3294 2.72075 84.3572 2.7457C84.385 2.77064 84.4069 2.80152 84.4212 2.83603C84.4355 2.87054 84.4419 2.90782 84.4399 2.94513L84.7599 8.64514H85.4999C86.4999 8.59514 86.93 7.96511 87.05 6.83511L87.23 5.46512C87.3622 4.49554 87.8393 3.60606 88.5739 2.95959C89.3085 2.31313 90.2515 1.95299 91.23 1.94513C91.59 1.94513 91.76 2.00514 91.84 2.20514L92.6899 4.59512C92.7039 4.64075 92.7039 4.68951 92.6899 4.73514C92.6923 4.8052 92.6709 4.874 92.6291 4.9303C92.5873 4.9866 92.5277 5.02708 92.46 5.04514L91.8699 5.24512C91.3199 5.41512 90.9999 5.82514 90.8699 6.70514L90.6899 7.86514C90.6254 8.3385 90.4316 8.78488 90.1299 9.15533C89.8283 9.52579 89.4304 9.80597 88.98 9.96512V10.0351C89.5373 10.1667 90.0454 10.4551 90.4441 10.8662C90.8428 11.2773 91.1155 11.794 91.23 12.3551L91.5599 13.6451C91.8499 14.7851 92.32 14.8251 92.78 14.9351L93.2499 15.0251C93.3899 15.0251 93.6 15.1151 93.61 15.3251C93.6246 15.3638 93.6246 15.4065 93.61 15.4451L92.9299 18.0851C92.8699 18.2751 92.83 18.4351 92.42 18.4551C90.88 18.5451 88.42 18.4051 87.85 15.5851L87.35 13.2451C87.3278 13.0531 87.2675 12.8676 87.1726 12.6992C87.0777 12.5309 86.9501 12.3832 86.7973 12.2649C86.6445 12.1466 86.4696 12.06 86.2829 12.0102C86.0962 11.9605 85.9014 11.9485 85.71 11.9751L84.9299 12.0251L85.3 18.1251Z" fill="white"/>
<path d="M104.77 3.02513C106.62 4.84513 106.89 7.83513 106.96 9.43513C107.03 11.0351 107.03 14.0451 105.34 16.0251C104.186 17.2156 102.621 17.92 100.964 17.9944C99.3081 18.0688 97.6859 17.5074 96.4299 16.4252C94.5699 14.5952 94.3 11.6151 94.23 10.0051C94.16 8.39514 94.17 5.40514 95.85 3.41514C97.0057 2.22326 98.5737 1.51879 100.232 1.44627C101.891 1.37375 103.515 1.93866 104.77 3.02513ZM98.7699 9.80513C98.8999 12.8851 99.57 13.9151 99.98 14.3351C100.089 14.4557 100.224 14.5499 100.375 14.6105C100.525 14.6712 100.688 14.6967 100.85 14.6851C102.55 14.6051 102.56 11.1751 102.49 9.68513C102.34 6.33513 101.56 5.42514 101.27 5.16514C101.158 5.0508 101.024 4.96003 100.876 4.89821C100.729 4.83638 100.57 4.80473 100.41 4.80513C98.74 4.83513 98.66 8.03513 98.74 9.80513H98.7699Z" fill="white"/>
<path d="M114.36 11.1851H113.65L113.83 16.5752C113.83 17.0152 113.76 17.0652 113.37 17.0752L109.85 17.1952C109.41 17.1952 109.37 17.1952 109.35 16.7352L108.85 1.90514C108.85 1.47514 108.85 1.44514 109.32 1.43514L113.84 1.28515C116.07 1.20515 117.34 1.41516 118.34 2.20516C118.823 2.63833 119.21 3.16668 119.479 3.75698C119.747 4.34728 119.891 4.98674 119.9 5.63515C120.01 8.85515 117.81 11.0651 114.36 11.1851ZM114.07 4.52514H113.42L113.54 7.83513H114.06C115.49 7.78513 115.93 7.29514 115.89 6.02514C115.85 4.75514 115.21 4.47514 114.07 4.52514Z" fill="white"/>
<path d="M131.67 2.19516C133.49 4.05516 133.67 7.04515 133.74 8.65515C133.81 10.2652 133.74 13.2552 131.98 15.2052C130.801 16.3709 129.221 17.0428 127.564 17.0837C125.906 17.1246 124.295 16.5314 123.06 15.4252C121.24 13.5552 121.06 10.5652 121 8.95517C120.94 7.34517 121 4.35515 122.75 2.40515C123.928 1.23635 125.509 0.563258 127.168 0.5242C128.827 0.485141 130.438 1.08309 131.67 2.19516ZM125.5 8.85516C125.58 11.9352 126.22 12.9752 126.63 13.4052C126.732 13.5323 126.864 13.6325 127.014 13.697C127.164 13.7615 127.327 13.7883 127.49 13.7751C129.19 13.7751 129.27 10.3051 129.23 8.77515C129.15 5.41515 128.39 4.48516 128.11 4.22516C128 4.1076 127.867 4.01405 127.719 3.95038C127.571 3.88671 127.411 3.85431 127.25 3.85516C125.62 3.87516 125.46 7.08516 125.5 8.85516Z" fill="white"/>
<path d="M146.45 10.4752H145.74L145.8 15.8752C145.8 16.3152 145.71 16.3552 145.32 16.3652H141.8C141.36 16.3652 141.32 16.3652 141.31 15.8952L141.15 1.05515C141.15 0.625145 141.15 0.595154 141.63 0.595154L146.16 0.545166C148.39 0.545166 149.66 0.765166 150.64 1.54517C151.111 1.98692 151.486 2.5215 151.741 3.11526C151.996 3.70902 152.125 4.34908 152.12 4.99515C152.15 8.28515 149.9 10.4752 146.45 10.4752ZM146.31 3.80515H145.67V7.11517H146.21C147.64 7.11517 148.09 6.61515 148.08 5.34515C148.07 4.07515 147.46 3.80516 146.31 3.81516V3.80515Z" fill="white"/>
<path d="M163.95 1.87512C165.73 3.77512 165.88 6.76512 165.88 8.37512C165.88 9.98512 165.76 12.9751 164 14.8951C162.795 16.0352 161.199 16.6704 159.54 16.6704C157.881 16.6704 156.285 16.0352 155.08 14.8951C153.3 12.9951 153.15 10.0051 153.14 8.39514C153.13 6.78514 153.26 3.79513 155.03 1.88513C156.236 0.747345 157.832 0.113586 159.49 0.113586C161.148 0.113586 162.744 0.747345 163.95 1.88513V1.87512ZM157.65 8.41513C157.65 11.4951 158.29 12.5451 158.65 12.9851C158.753 13.1097 158.884 13.2094 159.031 13.2769C159.178 13.3444 159.338 13.378 159.5 13.3751C161.2 13.3751 161.35 9.93512 161.35 8.37512C161.35 5.01512 160.59 4.07511 160.35 3.80511C160.24 3.68578 160.107 3.58976 159.96 3.52277C159.812 3.45577 159.652 3.41917 159.49 3.41513C157.86 3.47513 157.64 6.64513 157.65 8.41513Z" fill="white"/>
<path d="M168.86 7.19513C168.854 7.13225 168.861 7.06871 168.883 7.00925C168.904 6.94979 168.939 6.89594 168.984 6.85172C169.029 6.8075 169.084 6.77403 169.144 6.75385C169.204 6.73366 169.267 6.72728 169.33 6.73514H169.81C170.81 6.73514 172 6.44514 172 5.13514C172.015 4.90839 171.981 4.68099 171.9 4.46866C171.819 4.25633 171.693 4.06413 171.531 3.90534C171.368 3.74655 171.173 3.62493 170.959 3.54892C170.745 3.47292 170.516 3.44433 170.29 3.46512C169.814 3.47329 169.348 3.59684 168.93 3.82514C168.52 4.05514 168.12 4.48514 167.73 4.48514C167.688 4.49022 167.646 4.48118 167.609 4.45945C167.573 4.43772 167.545 4.40453 167.53 4.36515L166.53 2.36515C166.486 2.28891 166.462 2.20299 166.46 2.11515C166.464 2.02673 166.487 1.9402 166.527 1.86103C166.566 1.78185 166.622 1.71172 166.69 1.65513C167.96 0.601858 169.584 0.0725706 171.23 0.175145C172.77 0.175145 176.29 0.765131 176.23 4.50513C176.259 5.25662 176.053 5.9984 175.641 6.62742C175.228 7.25643 174.63 7.74147 173.93 8.01514C174.784 8.25472 175.527 8.78623 176.029 9.51712C176.532 10.248 176.762 11.132 176.68 12.0151C176.68 16.4551 172.85 16.7751 171.24 16.7551C170.163 16.7634 169.092 16.5945 168.07 16.2551C167.36 15.9951 166.13 15.3851 166.13 14.7651C166.12 14.6619 166.148 14.5586 166.21 14.4751L167.21 12.3051C167.227 12.2577 167.258 12.2168 167.299 12.1881C167.341 12.1594 167.39 12.1444 167.44 12.1451C167.548 12.1554 167.651 12.1933 167.74 12.2551C168.107 12.6199 168.545 12.9057 169.026 13.0949C169.508 13.284 170.023 13.3726 170.54 13.3551C170.791 13.388 171.046 13.3667 171.288 13.2926C171.53 13.2185 171.754 13.0934 171.943 12.9256C172.133 12.7579 172.284 12.5514 172.387 12.3201C172.49 12.0889 172.542 11.8382 172.54 11.5851C172.54 10.2451 171.54 9.77512 170.37 9.77512H169.37C169.308 9.78375 169.245 9.77771 169.186 9.75748C169.126 9.73725 169.073 9.70341 169.029 9.65866C168.985 9.61392 168.953 9.55952 168.934 9.49985C168.915 9.44019 168.91 9.37692 168.92 9.31513L168.86 7.19513Z" fill="white"/>
<path d="M178.64 0.935148C178.64 0.635148 178.85 0.585152 179.06 0.595152L182.67 0.665159C182.712 0.66296 182.754 0.670349 182.793 0.686765C182.832 0.703181 182.867 0.728197 182.895 0.759947C182.923 0.791696 182.943 0.829349 182.954 0.870084C182.966 0.91082 182.968 0.953568 182.96 0.995145L182.85 6.58514H184.44C185.872 6.51726 187.278 6.98018 188.39 7.88516C188.826 8.34802 189.161 8.89623 189.375 9.49521C189.588 10.0942 189.675 10.7309 189.63 11.3652C189.52 16.4452 185.8 16.4852 183.68 16.4452L178.78 16.3351C178.42 16.3351 178.33 16.1652 178.33 15.8652L178.64 0.935148ZM182.71 13.1152H183.43C184.65 13.1152 185.55 12.7951 185.58 11.4351C185.61 10.0751 184.81 9.65515 183.41 9.62515H182.79L182.71 13.1152ZM195.37 16.3152C195.37 16.5052 195.37 16.7152 195.06 16.7052L191.18 16.6252C190.97 16.6252 190.9 16.5052 190.91 16.3152L191.22 1.12515C191.218 1.08843 191.225 1.05179 191.238 1.01767C191.252 0.983547 191.273 0.952728 191.299 0.927213C191.326 0.901699 191.357 0.882077 191.392 0.869657C191.427 0.857237 191.463 0.852302 191.5 0.855161L195.39 0.935148C195.433 0.937535 195.474 0.948699 195.512 0.967924C195.55 0.987149 195.584 1.01402 195.611 1.04687C195.639 1.07973 195.659 1.11787 195.671 1.15887C195.682 1.19987 195.686 1.24285 195.68 1.28515L195.37 16.3152Z" fill="white"/>
<path d="M207.68 4.57515C207.62 4.93515 207.5 4.93516 207.16 4.92516L202.68 4.76515L202.28 16.4651C202.28 16.9051 202.17 16.9451 201.78 16.9351L198.29 16.8151C197.85 16.8151 197.81 16.7551 197.82 16.3151L198.33 1.49513C198.33 1.05513 198.39 1.03513 198.83 1.05513L207.83 1.35515C208.17 1.35515 208.26 1.43514 208.25 1.62514C208.261 1.72148 208.261 1.8188 208.25 1.91515L207.68 4.57515Z" fill="white"/>
<path d="M214.12 11.5251H213.41L213.16 16.9252C213.16 17.3652 213.05 17.4051 212.66 17.3851L209.14 17.2251C208.71 17.2251 208.66 17.1551 208.68 16.7251L209.35 1.89516C209.35 1.46516 209.42 1.44513 209.86 1.46513L214.38 1.66515C216.61 1.76515 217.86 2.07514 218.79 2.94514C219.238 3.4143 219.583 3.97099 219.805 4.58022C220.027 5.18944 220.121 5.83803 220.08 6.48515C219.94 9.64515 217.57 11.6851 214.12 11.5251ZM214.35 4.85515H213.71L213.56 8.16515H214.09C215.51 8.22515 215.99 7.76514 216.09 6.50514C216.19 5.24514 215.5 4.90515 214.35 4.85515Z" fill="white"/>
<path d="M221.79 2.30514C221.79 2.00514 222.02 1.96516 222.23 1.98516L225.83 2.19516C225.872 2.19417 225.915 2.20283 225.953 2.22048C225.992 2.23814 226.026 2.26434 226.053 2.29708C226.08 2.32983 226.099 2.36827 226.109 2.40951C226.119 2.45075 226.119 2.49372 226.11 2.53515L225.77 8.11517L227.36 8.21514C228.796 8.20415 230.185 8.72415 231.26 9.67517C231.678 10.1533 231.991 10.7132 232.181 11.3193C232.37 11.9253 232.431 12.5642 232.36 13.1952C232.05 18.2752 228.36 18.1952 226.21 18.0352L221.32 17.7352C220.95 17.7352 220.87 17.5451 220.89 17.2451L221.79 2.30514ZM225.38 14.6452H226.09C227.31 14.7152 228.23 14.4052 228.31 13.0452C228.39 11.6852 227.61 11.2352 226.21 11.1452H225.59L225.38 14.6452ZM237.9 18.3451C237.9 18.5352 237.85 18.7352 237.58 18.7252L233.7 18.4852C233.49 18.4852 233.43 18.3552 233.44 18.1752L234.36 2.99514C234.361 2.95879 234.37 2.92306 234.385 2.8901C234.401 2.85714 234.423 2.82765 234.45 2.80337C234.477 2.77909 234.508 2.76053 234.543 2.74881C234.577 2.73708 234.614 2.73245 234.65 2.73516L238.53 2.96514C238.572 2.97008 238.613 2.98337 238.65 3.00421C238.687 3.02504 238.719 3.05301 238.745 3.08651C238.772 3.12002 238.791 3.15837 238.802 3.19934C238.813 3.2403 238.816 3.28309 238.81 3.32516L237.9 18.3451Z" fill="white"/>
<path d="M255.28 4.63515C255.28 4.33515 255.51 4.33514 255.6 4.34514L259.38 4.65514C259.418 4.65109 259.456 4.65609 259.492 4.66972C259.527 4.68336 259.559 4.70524 259.584 4.73357C259.61 4.76189 259.628 4.79584 259.638 4.83263C259.647 4.86941 259.648 4.90799 259.64 4.94515L258.4 19.9451C258.401 20.0015 258.389 20.0574 258.366 20.1088C258.343 20.1601 258.308 20.2056 258.265 20.242C258.222 20.2784 258.171 20.3047 258.117 20.3191C258.062 20.3335 258.005 20.3355 257.95 20.3252L240.58 18.8851C240.35 18.8851 240.27 18.7251 240.28 18.5851L241.53 3.48515C241.53 3.30515 241.6 3.14515 241.88 3.16515L245.63 3.47514C245.668 3.47282 245.707 3.47934 245.742 3.49422C245.777 3.5091 245.809 3.53195 245.834 3.56096C245.859 3.58997 245.877 3.62437 245.887 3.66152C245.897 3.69866 245.898 3.73753 245.89 3.77513L244.89 15.6051L247.41 15.8051L248.41 4.02513C248.408 3.98292 248.415 3.94076 248.432 3.90181C248.448 3.86286 248.473 3.82815 248.505 3.80025C248.537 3.77235 248.574 3.75198 248.615 3.74071C248.656 3.72943 248.698 3.72755 248.74 3.73515L252.54 4.04515C252.576 4.04728 252.611 4.05709 252.642 4.0739C252.674 4.09071 252.702 4.11414 252.724 4.14259C252.745 4.17105 252.761 4.20387 252.769 4.23882C252.777 4.27377 252.777 4.31002 252.77 4.34514L251.77 16.1651L254.29 16.3751L255.28 4.63515Z" fill="white"/>
<path d="M13.34 53.8552L9.85998 54.3952C9.42998 54.4652 9.39998 54.3952 9.32998 53.9952L7.53997 42.4752L4.92999 42.8852L6.71999 54.3952C6.78999 54.8352 6.71997 54.8952 6.31997 54.9552L2.83999 55.4952C2.40999 55.5552 2.37999 55.4952 2.30999 55.0852L0.0299916 40.4752C-0.0300084 40.0852 -0.0200035 40.0152 0.409997 39.9452L10.91 38.3152C11.34 38.2452 11.4 38.3152 11.46 38.6952L13.74 53.3452C13.81 53.7352 13.77 53.7852 13.34 53.8552Z" fill="white"/>
<path d="M24.61 37.7751C26.61 39.4251 27.16 42.3751 27.37 43.9651C27.58 45.5551 27.85 48.5452 26.37 50.6752C25.3249 51.9611 23.8294 52.8008 22.1874 53.0237C20.5454 53.2466 18.8801 52.8359 17.53 51.8752C15.53 50.2152 14.98 47.2752 14.76 45.6752C14.54 44.0752 14.28 41.0951 15.76 38.9651C16.8054 37.676 18.3038 36.8348 19.9488 36.6136C21.5938 36.3924 23.2611 36.8079 24.61 37.7751ZM19.21 45.0751C19.62 48.0751 20.38 49.0751 20.83 49.4751C20.9454 49.5889 21.0867 49.6729 21.2417 49.7199C21.3967 49.7669 21.5609 49.7756 21.72 49.7452C23.41 49.5152 23.11 46.0951 22.9 44.5751C22.45 41.2451 21.6 40.4052 21.29 40.1752C21.166 40.0711 21.0227 39.9928 20.8681 39.9447C20.7136 39.8967 20.5511 39.8798 20.39 39.8951C18.77 40.1151 18.97 43.3151 19.21 45.0751Z" fill="white"/>
<path d="M38.38 37.9752C38.38 38.3052 38.21 38.3651 37.92 38.3951L33.46 38.9252L33.73 41.2051L37.41 40.7751C37.8 40.7751 37.89 40.7751 37.94 41.1951L38.25 43.8251C38.25 44.2151 38.25 44.2951 37.83 44.3351L34.15 44.7751L34.46 47.4451L39.24 46.8851C39.67 46.8851 39.7 46.8852 39.75 47.2852L40.06 49.9352C40.06 50.3652 40.06 50.4151 39.66 50.4651L30.93 51.4651C30.5 51.5151 30.45 51.4652 30.4 51.0452L28.67 36.3052C28.67 35.9152 28.67 35.8452 29.09 35.7952L38 34.7452C38.34 34.7452 38.44 34.7451 38.46 34.9451C38.4694 35.0449 38.4694 35.1454 38.46 35.2452L38.38 37.9752Z" fill="white"/>
<path d="M42.79 40.9751C42.7763 40.9143 42.7767 40.8512 42.7911 40.7905C42.8054 40.7299 42.8334 40.6733 42.873 40.6251C42.9125 40.5768 42.9625 40.5383 43.0192 40.5123C43.0759 40.4863 43.1377 40.4736 43.2 40.4751H43.68C44.68 40.3651 45.83 39.9451 45.68 38.6451C45.6721 38.4169 45.6141 38.1932 45.5102 37.9899C45.4063 37.7865 45.259 37.6085 45.0787 37.4683C44.8985 37.3281 44.6896 37.2291 44.467 37.1785C44.2443 37.1278 44.0132 37.1267 43.79 37.1752C43.3182 37.2355 42.8684 37.4107 42.48 37.6852C42.1 37.9552 41.75 38.4251 41.36 38.4651C41.25 38.4651 41.17 38.4652 41.14 38.3752L39.91 36.4651C39.8577 36.3945 39.8233 36.3121 39.81 36.2251C39.8065 36.1372 39.8206 36.0494 39.8515 35.967C39.8824 35.8845 39.9295 35.8091 39.99 35.7452C41.131 34.5468 42.6876 33.8311 44.34 33.7452C45.88 33.5852 49.43 33.7452 49.82 37.5052C49.9302 38.2473 49.8064 39.0052 49.4659 39.6736C49.1254 40.3421 48.585 40.8879 47.92 41.2352C48.7883 41.3847 49.5782 41.8297 50.1559 42.4949C50.7336 43.1601 51.0636 44.0045 51.09 44.8851C51.55 49.2951 47.81 50.0351 46.21 50.1951C45.1392 50.3245 44.0542 50.2738 43 50.0452C42.27 49.8652 41 49.3951 40.91 48.7851C40.8861 48.7069 40.8861 48.6234 40.91 48.5452L41.64 46.2751C41.6527 46.2256 41.681 46.1815 41.7205 46.1491C41.7601 46.1167 41.809 46.0978 41.86 46.0951C41.9656 46.093 42.0696 46.1208 42.16 46.1752C42.5675 46.4949 43.0351 46.7295 43.5349 46.8652C44.0348 47.0009 44.5568 47.0349 45.07 46.9651C45.3213 46.9627 45.5693 46.9073 45.7978 46.8027C46.0263 46.698 46.2302 46.5464 46.3962 46.3578C46.5622 46.1691 46.6866 45.9476 46.7614 45.7076C46.8361 45.4677 46.8595 45.2147 46.83 44.9651C46.69 43.6451 45.66 43.2851 44.47 43.4051L43.47 43.5052C43.4092 43.5189 43.3461 43.5185 43.2854 43.5041C43.2247 43.4898 43.1682 43.4618 43.1199 43.4222C43.0717 43.3827 43.0332 43.3327 43.0072 43.276C42.9812 43.2193 42.9685 43.1575 42.97 43.0951L42.79 40.9751Z" fill="white"/>
<path d="M55.76 48.8251L56.06 52.2452C56.06 52.5152 55.97 52.5752 55.74 52.5952L52.65 52.8652C52.4 52.8652 52.28 52.8652 52.26 52.5552L51.68 46.0251C51.68 45.6851 51.85 45.5951 52.03 45.5851L53.03 45.4952C54.03 43.2352 54.29 41.2252 53.88 36.6652L53.61 33.5352C53.61 33.2552 53.69 33.1752 53.94 33.1552L63.38 32.3152C63.56 32.3152 63.72 32.3152 63.75 32.5652L64.81 44.4752L65.96 44.3752C66.18 44.3752 66.35 44.4552 66.38 44.7552L66.97 51.3552C66.9777 51.3928 66.9767 51.4317 66.967 51.4688C66.9573 51.506 66.9392 51.5403 66.914 51.5693C66.8889 51.5983 66.8574 51.6212 66.8221 51.636C66.7867 51.6509 66.7483 51.6575 66.71 51.6552L63.53 51.9352C63.3 51.9352 63.18 51.9352 63.16 51.6252L62.86 48.2352L55.76 48.8251ZM59.76 36.2151L57.76 36.3951L57.96 38.6351C58.0396 39.7795 57.9994 40.9292 57.84 42.0652C57.7413 43.1154 57.4921 44.1459 57.1 45.1252L60.49 44.8251L59.76 36.2151Z" fill="white"/>
<path d="M72.39 47.1652C72.3956 47.1996 72.394 47.2348 72.3853 47.2685C72.3765 47.3022 72.3608 47.3338 72.3392 47.3611C72.3175 47.3884 72.2904 47.4109 72.2595 47.4271C72.2287 47.4433 72.1947 47.4528 72.16 47.4551L68.33 47.7352C67.98 47.7352 67.9499 47.6052 67.9299 47.3752L66.8199 32.3752C66.8199 32.1052 66.91 32.0252 67.16 32.0052L70.97 31.7252C71.0067 31.7177 71.0447 31.7185 71.0811 31.7277C71.1174 31.7368 71.1512 31.754 71.1801 31.778C71.2089 31.802 71.2319 31.8322 71.2475 31.8663C71.2631 31.9005 71.2707 31.9377 71.27 31.9752L71.6899 37.6652L72.42 37.6152C73.42 37.5352 73.8399 36.9051 73.9399 35.7751L74.1 34.3951C74.2185 33.4305 74.6775 32.5399 75.3943 31.8836C76.1111 31.2273 77.0386 30.8484 78.0099 30.8152C78.3699 30.8152 78.5399 30.8152 78.6199 31.0652L79.5099 33.4451C79.5328 33.4863 79.5461 33.5321 79.5486 33.5791C79.5512 33.6261 79.543 33.6731 79.5247 33.7165C79.5063 33.7599 79.4784 33.7985 79.4429 33.8295C79.4075 33.8604 79.3654 33.8829 79.3199 33.8951L78.73 34.1052C78.19 34.2852 77.88 34.6951 77.78 35.5751L77.61 36.7452C77.556 37.2185 77.3724 37.6678 77.0795 38.0436C76.7867 38.4194 76.3958 38.7072 75.95 38.8752V38.9451C76.5082 39.0662 77.0202 39.3442 77.4258 39.7463C77.8315 40.1485 78.114 40.658 78.24 41.2151L78.59 42.5052C78.91 43.6352 79.37 43.6751 79.84 43.7751L80.3099 43.8552C80.4499 43.8552 80.66 43.9452 80.67 44.1552C80.6774 44.1725 80.6812 44.1912 80.6812 44.2101C80.6812 44.229 80.6774 44.2478 80.67 44.2651L80.04 46.9252C79.98 47.1052 79.95 47.2752 79.53 47.3052C78 47.4152 75.53 47.3052 74.92 44.5052L74.3799 42.1752C74.3543 41.9839 74.2907 41.7997 74.1929 41.6333C74.0952 41.4669 73.9652 41.3217 73.8106 41.2062C73.656 41.0908 73.4799 41.0073 73.2926 40.9608C73.1053 40.9142 72.9107 40.9055 72.72 40.9352L71.9399 40.9952L72.39 47.1652Z" fill="white"/>
<path d="M94.62 45.7252C94.62 45.9752 94.47 46.0151 94.29 46.0251L90.82 46.2252C90.57 46.2252 90.45 46.2252 90.43 45.9052L90.09 40.1652C90.03 39.0352 90.09 37.0952 90.09 36.3152H89.98C89.77 37.1552 89.47 38.2352 88.46 41.1252L86.73 46.1252C86.7064 46.2288 86.6515 46.3228 86.5728 46.3943C86.4941 46.4658 86.3955 46.5115 86.29 46.5251L82.34 46.7552C82.3029 46.7633 82.2643 46.7625 82.2275 46.7528C82.1908 46.7431 82.1567 46.7248 82.1284 46.6994C82.1001 46.674 82.0782 46.6423 82.0646 46.6068C82.0509 46.5712 82.046 46.533 82.05 46.4952L81.16 31.3652C81.16 31.0852 81.25 31.0152 81.5 30.9952L85.04 30.7952C85.0763 30.7874 85.1139 30.7881 85.1498 30.7972C85.1858 30.8064 85.2191 30.8238 85.2472 30.848C85.2753 30.8722 85.2974 30.9026 85.3118 30.9368C85.3261 30.971 85.3324 31.0081 85.33 31.0452L85.6 35.5751C85.68 36.9251 85.66 39.6752 85.6 39.8552H85.73C86.37 37.7952 86.73 37.1252 87.28 35.2952L88.73 30.9052C88.7326 30.8451 88.7471 30.7862 88.7727 30.7319C88.7984 30.6776 88.8346 30.629 88.8793 30.5889C88.9241 30.5489 88.9764 30.5181 89.0332 30.4986C89.09 30.4791 89.1501 30.4711 89.21 30.4752L93.32 30.2252C93.53 30.2252 93.69 30.2251 93.71 30.5251L94.62 45.7252Z" fill="white"/>
<path d="M113.79 45.1451L110.27 45.2852C109.84 45.2852 109.81 45.2851 109.79 44.8251L109.56 39.0552L106.56 39.1752L106.8 44.9451C106.8 45.3851 106.72 45.4351 106.33 45.4451L102.82 45.5952C102.38 45.5952 102.36 45.5951 102.34 45.1351L101.73 30.3052C101.73 29.9152 101.73 29.8451 102.17 29.8251L105.68 29.6852C106.08 29.6852 106.17 29.6852 106.19 30.1252L106.41 35.5452L109.41 35.4252L109.18 30.0052C109.18 29.6152 109.18 29.5451 109.62 29.5251L113.14 29.3752C113.58 29.3752 113.63 29.4252 113.64 29.8152L114.25 44.6451C114.27 45.0751 114.21 45.1251 113.79 45.1451Z" fill="white"/>
<path d="M130.1 44.3652C130.1 44.5752 130 44.6452 129.65 44.6552L125.77 44.7651C125.37 44.7651 125.35 44.7651 125.25 44.3951L124.25 41.1252L121.25 41.2151L120.4 44.5352C120.29 44.9052 120.3 44.9252 119.93 44.9352L116.34 45.0452C115.97 45.0452 115.86 44.9651 115.85 44.8251C115.86 44.715 115.887 44.6071 115.93 44.5052L120.31 29.5052C120.39 29.1652 120.41 29.1152 120.8 29.1052L124.23 29.0052C124.6 29.0052 124.62 29.0052 124.77 29.3752L130.03 44.0751C130.066 44.1682 130.09 44.2658 130.1 44.3652ZM123.01 35.3652C122.87 34.7252 122.63 33.4452 122.52 32.7552C122.44 33.4952 122.32 34.7551 122.2 35.3951L121.68 38.0952H123.54L123.01 35.3652Z" fill="white"/>
<path d="M146.84 44.0251C146.84 44.3051 146.78 44.3752 146.5 44.3752L142.75 44.4252C142.45 44.4252 142.38 44.3152 142.38 44.0552V42.0552H142.05C141.269 42.1152 140.483 42.0167 139.741 41.7659C138.999 41.515 138.315 41.1168 137.73 40.5952C136.767 39.2594 136.24 37.6591 136.22 36.0126C136.2 34.366 136.689 32.7535 137.62 31.3951C138.767 30.333 140.288 29.7685 141.85 29.8251H142.21V27.8251C142.21 27.5451 142.21 27.4252 142.59 27.4252H146.32C146.55 27.4252 146.66 27.4252 146.67 27.7252V29.8652H147.04C147.814 29.8162 148.589 29.9208 149.322 30.1731C150.055 30.4254 150.731 30.8203 151.31 31.3351C152.381 32.6122 152.922 34.2515 152.82 35.9152C152.973 37.5741 152.475 39.2275 151.43 40.5251C150.861 41.0638 150.187 41.4809 149.452 41.7508C148.716 42.0207 147.933 42.1379 147.15 42.0952H146.83L146.84 44.0251ZM142.1 32.7952C140.7 32.7952 140.04 33.4651 140.1 36.0151C140.1 38.0151 140.51 39.1651 142.1 39.1451H142.47L142.39 32.7952H142.1ZM146.62 39.0851H146.99C148.85 39.0851 148.99 37.3852 148.99 35.9152C148.99 34.4452 148.79 32.7152 146.88 32.7452H146.58L146.62 39.0851Z" fill="white"/>
<path d="M156.63 39.1752C156.42 39.1752 156.4 39.0851 156.35 38.9651L152.63 29.2352C152.574 29.1106 152.534 28.9796 152.51 28.8452C152.51 28.6852 152.65 28.5952 153.17 28.5652L156.46 28.3652H156.81C156.99 28.3652 157.11 28.4252 157.22 28.8152L158.42 33.1852C158.63 33.9452 158.79 34.5651 159.26 36.4651H159.37C159.82 34.3251 160 33.5851 160.12 33.0151L160.95 28.8452C161.04 28.4552 161.11 28.3451 161.36 28.3351L164.88 28.5052C165.13 28.5052 165.36 28.5752 165.36 28.7852C165.343 28.9178 165.313 29.0485 165.27 29.1752L162.47 39.7151C161.3 44.1151 159.47 44.7151 157.39 44.7151C156.375 44.7341 155.367 44.5292 154.44 44.1152C153.94 43.8652 153.82 43.7452 153.82 43.6052C153.814 43.5453 153.814 43.485 153.82 43.4252L154.66 40.8652C154.694 40.8194 154.744 40.7875 154.8 40.7751C155.462 41.1106 156.181 41.3176 156.92 41.3851C157.92 41.3851 158.41 40.9452 158.66 39.8552L158.82 39.1951L156.63 39.1752Z" fill="white"/>
<path d="M177.03 32.0151C176.96 32.3451 176.89 32.4052 176.54 32.4052H173.76L173.67 43.8752C173.67 44.3152 173.67 44.3652 173.21 44.3552H169.69C169.25 44.3552 169.21 44.3552 169.21 43.8752L169.3 32.3951H166.3C165.87 32.3951 165.82 32.3452 165.82 31.9052V29.0352C165.82 28.6452 165.87 28.5751 166.3 28.5751L177.11 28.6652C177.46 28.6652 177.55 28.7351 177.55 28.9451C177.562 29.0347 177.562 29.1256 177.55 29.2151L177.03 32.0151Z" fill="white"/>
<path d="M183 34.7151H184.73C186.179 34.6337 187.606 35.0975 188.73 36.0151C189.172 36.4866 189.511 37.0447 189.726 37.654C189.941 38.2633 190.028 38.9107 189.98 39.5552C189.89 44.1952 186.12 44.4951 184.05 44.4551L179.05 44.3652C178.64 44.3652 178.59 44.1051 178.6 43.8951L178.87 29.0452C178.87 28.6252 179.14 28.5851 179.34 28.5851L188.75 28.7651C189.02 28.7651 189.09 28.8852 189.09 29.0052C189.09 29.1252 189.09 29.1852 189.09 29.2552L188.53 31.9852C188.504 32.1005 188.434 32.2011 188.335 32.2663C188.236 32.3315 188.116 32.3561 188 32.3351L183.19 32.2452L183 34.7151ZM182.88 41.1351H183.6C184.6 41.1351 185.72 40.9952 185.75 39.4752C185.771 39.24 185.74 39.0031 185.657 38.7819C185.575 38.5606 185.444 38.3606 185.274 38.1966C185.104 38.0326 184.9 37.9086 184.676 37.834C184.452 37.7593 184.214 37.7358 183.98 37.7651H182.98L182.88 41.1351Z" fill="white"/>
<path d="M202.61 30.5852C204.32 32.5852 204.36 35.5852 204.31 37.1552C204.26 38.7252 204.03 41.7452 202.19 43.5952C200.947 44.6936 199.332 45.2762 197.674 45.2241C196.017 45.1721 194.441 44.4894 193.27 43.3152C191.56 41.3152 191.52 38.3152 191.57 36.7452C191.62 35.1752 191.86 32.1552 193.69 30.2952C194.935 29.2004 196.55 28.621 198.207 28.6748C199.864 28.7287 201.439 29.4118 202.61 30.5852ZM196.08 36.8852C195.98 39.9752 196.57 41.0452 196.94 41.4952C197.038 41.625 197.165 41.7305 197.311 41.8033C197.457 41.8762 197.617 41.9144 197.78 41.9152C199.48 41.9752 199.78 38.5452 199.78 37.0052C199.89 33.6552 199.18 32.6852 198.92 32.3952C198.705 32.1533 198.403 32.006 198.08 31.9852C196.47 31.9352 196.13 35.1152 196.08 36.8852Z" fill="white"/>
<path d="M211.88 34.5351C211.81 35.9551 211.71 37.7252 211.5 39.2352C211.29 40.7452 210.95 42.7551 209.5 44.0751C208.362 44.9783 206.953 45.4716 205.5 45.4752C205.2 45.4752 205.11 45.3752 205.07 45.2552L204.32 42.4551C204.32 42.4551 204.32 42.4051 204.32 42.3851C204.324 42.3137 204.35 42.2453 204.395 42.1897C204.44 42.134 204.501 42.094 204.57 42.0751L204.98 42.0052C205.575 41.9709 206.142 41.7465 206.6 41.3652C207.82 40.2452 207.88 35.5252 208.01 32.6052L208.13 29.8752C208.129 29.811 208.142 29.7474 208.169 29.6889C208.195 29.6304 208.234 29.5783 208.283 29.5364C208.331 29.4944 208.388 29.4637 208.45 29.4462C208.512 29.4287 208.577 29.425 208.64 29.4352L217.97 29.8552C218.032 29.8512 218.094 29.8613 218.151 29.8848C218.209 29.9083 218.26 29.9445 218.302 29.9907C218.343 30.0369 218.373 30.0919 218.39 30.1516C218.407 30.2113 218.411 30.274 218.4 30.3351L217.73 45.2252C217.73 45.5052 217.73 45.6352 217.37 45.6252L213.81 45.4651C213.46 45.4651 213.4 45.3552 213.41 45.0552L213.94 33.3152L211.94 33.2252L211.88 34.5351Z" fill="white"/>
<path d="M233.65 46.3652C232.657 46.5221 231.648 46.5423 230.65 46.4252L225.92 46.1051C225.48 46.1051 225.44 46.0351 225.47 45.5951L226.47 30.7951C226.47 30.4051 226.55 30.3352 226.99 30.3652L231.51 30.6651C234.01 30.8251 235.01 31.0751 235.94 32.0151C236.35 32.456 236.664 32.9765 236.864 33.5443C237.063 34.1121 237.144 34.7149 237.1 35.3152C237.091 35.9668 236.888 36.601 236.515 37.1357C236.143 37.6705 235.618 38.0813 235.01 38.3152C235.727 38.6338 236.325 39.1709 236.718 39.8498C237.112 40.5288 237.28 41.3146 237.2 42.0951C237.168 43.1004 236.801 44.0662 236.158 44.8396C235.515 45.613 234.632 46.1498 233.65 46.3652ZM230.94 39.8951H230.18L229.97 43.0851L230.91 43.1451C232.5 43.2451 232.91 42.6851 233.01 41.7151C233.11 40.7451 232.82 40.0151 230.94 39.8951ZM231.43 33.8951L230.58 33.8351L230.38 36.8351L231.32 36.8951C232.45 36.9751 232.89 36.4652 232.96 35.4352C233.03 34.4052 232.74 33.9251 231.43 33.8451V33.8951Z" fill="white"/>
<path d="M257.56 48.2951C257.56 48.5051 257.42 48.5651 257.08 48.5351L253.21 48.1852C252.82 48.1852 252.79 48.1252 252.74 47.7552L252.16 44.4051L249.16 44.1351L247.93 47.3251C247.78 47.6851 247.78 47.7051 247.41 47.6751L243.84 47.3551C243.47 47.3551 243.37 47.2251 243.38 47.0851C243.401 46.9755 243.442 46.8705 243.5 46.7751L249.59 32.4751C249.71 32.1451 249.74 32.0951 250.13 32.1351L253.54 32.4352C253.91 32.4352 253.93 32.4951 254.04 32.8651L257.54 48.0652C257.55 48.1352 257.56 48.2251 257.56 48.2951ZM251.56 38.5351C251.5 37.8851 251.41 36.5851 251.38 35.8851C251.22 36.6151 250.95 37.8051 250.76 38.4651L249.92 41.0851L251.78 41.2552L251.56 38.5351Z" fill="white"/>
<path d="M270.29 49.9451L266.79 49.5652C266.36 49.5152 266.34 49.4751 266.39 49.0351L267.01 43.2951L264.01 42.9751L263.4 48.7151C263.35 49.1551 263.25 49.1851 262.86 49.1451L259.36 48.7651C258.93 48.7651 258.91 48.6752 258.96 48.2352L260.56 33.4751C260.56 33.0851 260.63 33.0252 261.07 33.0652L264.57 33.4451C264.96 33.4451 265.04 33.5651 265 33.9551L264.42 39.3551L267.42 39.6752L268 34.2751C268 33.8851 268.08 33.8152 268.51 33.8652L272.01 34.2452C272.44 34.2452 272.48 34.3652 272.44 34.7452L270.83 49.4751C270.78 49.9451 270.73 49.9851 270.29 49.9451Z" fill="white"/>
<path d="M284.11 38.9952C284.01 39.3552 283.9 39.3352 283.56 39.2952L279.11 38.7352L277.65 50.3552C277.6 50.7852 277.5 50.8252 277.11 50.7752L273.64 50.3452C273.21 50.2852 273.17 50.2352 273.23 49.8052L275.07 35.0751C275.07 34.6451 275.17 34.6252 275.6 34.6852L284.5 35.7952C284.85 35.7952 284.93 35.9152 284.91 36.0952C284.887 36.1971 284.857 36.2974 284.82 36.3952L284.11 38.9952Z" fill="white"/>
<path d="M290.07 41.5751C289.87 42.9851 289.6 44.7351 289.25 46.2151C288.9 47.6951 288.36 49.6651 286.82 50.8451C285.584 51.6347 284.12 51.9869 282.66 51.8451C282.37 51.8451 282.29 51.6951 282.26 51.5751L281.78 48.7251C281.78 48.7251 281.78 48.7251 281.78 48.6551C281.79 48.5852 281.822 48.52 281.87 48.4682C281.918 48.4165 281.981 48.3805 282.05 48.3651H282.47C283.065 48.3876 283.651 48.2156 284.14 47.8752C285.47 46.8752 285.97 42.1952 286.39 39.3052L286.77 36.5951C286.775 36.5322 286.794 36.4711 286.826 36.4161C286.857 36.3611 286.9 36.3135 286.951 36.2765C287.002 36.2395 287.061 36.214 287.123 36.2017C287.185 36.1894 287.248 36.1905 287.31 36.2051L296.56 37.5151C296.622 37.5178 296.683 37.5342 296.738 37.5631C296.793 37.5921 296.841 37.633 296.878 37.6828C296.915 37.7325 296.941 37.7899 296.954 37.8509C296.966 37.9118 296.965 37.9747 296.95 38.0351L294.85 52.7951C294.85 53.0651 294.79 53.2051 294.45 53.1551L290.92 52.6551C290.58 52.6551 290.53 52.5051 290.57 52.2051L292.21 40.5552L290.21 40.2751L290.07 41.5751Z" fill="white"/>
<path d="M309.65 55.3252C309.65 55.5752 309.45 55.5752 309.26 55.5452L305.84 54.9752C305.59 54.9752 305.49 54.8452 305.53 54.5752L306.47 48.9052C306.65 47.7852 307.11 45.9052 307.3 45.1452H307.19C306.8 45.9252 306.27 46.9052 304.65 49.5052L301.86 53.9652C301.812 54.0575 301.738 54.1341 301.648 54.1855C301.557 54.237 301.454 54.2612 301.35 54.2552L297.44 53.6052C297.402 53.6042 297.365 53.5943 297.332 53.5762C297.298 53.5581 297.27 53.5325 297.248 53.5012C297.227 53.47 297.213 53.4342 297.208 53.3966C297.203 53.3591 297.207 53.3209 297.22 53.2852L299.69 38.3352C299.69 38.0652 299.86 38.0152 300.11 38.0552L303.6 38.6352C303.638 38.6367 303.675 38.6468 303.708 38.6648C303.742 38.6828 303.771 38.7083 303.793 38.7391C303.815 38.7699 303.83 38.8054 303.836 38.8429C303.843 38.8803 303.841 38.9187 303.83 38.9552L303.09 43.4152C302.87 44.7552 302.24 47.4152 302.19 47.6052H302.32C303.4 45.7352 303.85 45.1552 304.84 43.5052L307.23 39.5052C307.278 39.4141 307.356 39.3419 307.45 39.3002C307.544 39.2585 307.65 39.2497 307.75 39.2752L311.82 39.9452C312.02 39.9452 312.17 40.0452 312.13 40.3152L309.65 55.3252Z" fill="white"/>
<path d="M324.37 58.1252C324.37 58.3752 324.16 58.3751 323.98 58.3351L320.57 57.6752C320.32 57.6752 320.22 57.5451 320.27 57.2651L321.36 51.6252C321.58 50.5152 322.08 48.6251 322.29 47.8951H322.18C321.77 48.6551 321.18 49.6252 319.53 52.1852L316.62 56.5652C316.569 56.6563 316.493 56.7305 316.401 56.7786C316.308 56.8266 316.204 56.8462 316.1 56.8351L312.21 56.0851C312.172 56.0849 312.135 56.0753 312.102 56.0572C312.068 56.0391 312.04 56.013 312.019 55.9814C311.999 55.9497 311.986 55.9134 311.983 55.8757C311.979 55.838 311.985 55.8 312 55.7651L314.86 40.8851C314.91 40.6151 315.04 40.5652 315.29 40.6152L318.77 41.2852C318.808 41.2861 318.845 41.2961 318.878 41.3141C318.912 41.3322 318.94 41.3579 318.962 41.3891C318.983 41.4203 318.997 41.4562 319.002 41.4937C319.007 41.5313 319.003 41.5695 318.99 41.6052L318.13 46.0552C317.87 47.3852 317.13 50.0551 317.13 50.2151H317.26C318.39 48.3751 318.85 47.8051 319.89 46.2151L322.37 42.3152C322.423 42.2243 322.505 42.1535 322.603 42.1138C322.7 42.074 322.808 42.0675 322.91 42.0951L326.91 42.8652C327.11 42.8652 327.26 42.9852 327.21 43.2552L324.37 58.1252Z" fill="white"/>
</svg>
