<svg width="367" height="68" viewBox="0 0 367 68" fill="none" xmlns="http://www.w3.org/2000/svg">
<g filter="url(#filter0_d)">
<path d="M10.1819 26.9471C9.95545 26.9471 9.91018 26.8792 9.84225 26.766L4.18116 16.3948C4.10447 16.2628 4.04366 16.1222 4 15.9759C4 15.7948 4.11322 15.6702 4.70197 15.557L8.35904 14.8437L8.74399 14.7644C8.94779 14.7644 9.08366 14.7645 9.27614 15.2174L11.2688 19.9387C11.6198 20.7539 11.8916 21.4332 12.7068 23.4939H12.8313C13.0238 21.0256 13.1143 20.1651 13.1596 19.5084L13.4653 14.7079C13.4653 14.255 13.5672 14.1078 13.8503 14.0738L17.8244 13.7342C18.1074 13.7342 18.3791 13.7342 18.4131 13.972C18.4266 14.1226 18.4266 14.2741 18.4131 14.4248L16.8393 26.6754C16.1827 31.793 14.1786 32.7214 11.8916 33.0385C10.7558 33.2137 9.59519 33.1324 8.4949 32.8007C7.89483 32.5969 7.74762 32.4837 7.72497 32.3252C7.71597 32.2537 7.71597 32.1815 7.72497 32.11L8.27978 29.121C8.29213 29.0897 8.31201 29.062 8.33769 29.0402C8.36337 29.0185 8.39407 29.0034 8.42697 28.9964C9.2203 29.2685 10.0571 29.3914 10.8952 29.3587C12.0274 29.2116 12.5029 28.6455 12.6162 27.3887L12.6954 26.6188L10.1819 26.9471Z" fill="white"/>
<path d="M29.4296 23.5052C28.4965 24.1051 27.4322 24.4703 26.3273 24.5695C24.9654 24.8062 23.5639 24.5363 22.3872 23.8109C21.8416 23.3995 21.3984 22.8677 21.092 22.257C20.7856 21.6462 20.6244 20.973 20.6209 20.2897L19.851 13.8813C19.851 13.4624 20.0322 13.4397 20.1681 13.4171L24.4818 12.8963C24.5837 12.8963 24.8215 12.8963 24.8554 13.202L25.5348 18.8631C25.7386 20.5387 26.667 20.7426 27.4595 20.652C28.0212 20.5876 28.5561 20.3768 29.0107 20.0406L28.1502 12.9077C28.1502 12.4887 28.3087 12.4661 28.4899 12.4434L32.713 11.9339C33.098 11.9339 33.132 12.0132 33.1546 12.149V12.217L35.2152 29.3701C35.2152 29.4946 35.2152 29.6305 34.8303 29.6758L30.5844 30.1852C30.4599 30.1852 30.2222 30.1853 30.1769 29.8456L29.4296 23.5052Z" fill="white"/>
<path d="M52.5722 27.4793C52.5722 27.7057 52.4703 27.7963 52.0853 27.8416L47.7149 28.2944C47.2734 28.2944 47.2394 28.2945 47.0922 27.9095L45.7336 24.309L42.3369 24.66L41.6576 28.4756C41.567 28.9059 41.567 28.9285 41.1594 28.9738L37.1174 29.3927C36.6985 29.3927 36.5626 29.3927 36.5513 29.1889C36.5318 29.0651 36.5318 28.9391 36.5513 28.8153L40.2423 11.549C40.3102 11.1527 40.3216 11.0961 40.7631 11.0508L44.624 10.6545C45.0429 10.6545 45.0656 10.6545 45.2694 11.0281L52.4363 27.1736C52.487 27.273 52.5324 27.375 52.5722 27.4793ZM43.8088 17.912C43.605 17.1987 43.22 15.7721 43.0389 15.0136C43.0389 15.8514 43.0389 17.278 42.903 18.0026L42.5407 21.1049L44.6466 20.8898L43.8088 17.912Z" fill="white"/>
<path d="M65.2756 25.1809C65.3662 26.2112 62.0488 27.4453 60.4411 27.5472C55.414 28.0001 52.6967 24.5469 52.1759 18.6933C51.9041 15.6023 52.2438 13.3039 53.7044 11.4697C54.2994 10.722 55.0436 10.1063 55.8896 9.66181C56.7356 9.21738 57.6648 8.9539 58.6182 8.88825C60.3535 8.7474 62.0881 9.16815 63.566 10.0884C63.7811 10.2356 63.8943 10.3488 63.917 10.53C63.9265 10.609 63.9265 10.6888 63.917 10.7678L62.9432 13.8587C62.9261 13.9206 62.8913 13.976 62.843 14.0183C62.7947 14.0605 62.7351 14.0878 62.6715 14.0965C62.6007 14.1129 62.5272 14.1129 62.4564 14.0965C61.5959 13.7795 60.3731 12.9643 59.1503 13.0322C57.9275 13.1001 56.8859 14.255 57.2482 17.7535C57.6558 22.373 59.0145 23.5505 60.4411 23.4146C61.5564 23.1726 62.59 22.646 63.4414 21.8862C63.5207 21.8862 63.6113 21.9541 63.7019 22.1013L65.2303 24.9431C65.2639 25.0177 65.2794 25.0992 65.2756 25.1809Z" fill="white"/>
<path d="M77.3677 11.7075C77.3111 12.0698 77.2432 12.1604 76.8582 12.183L73.7106 12.4321L74.707 25.3846C74.707 25.8828 74.707 25.9395 74.2315 25.9734L70.2574 26.2791C69.7705 26.2791 69.7139 26.2791 69.6799 25.781L68.6723 12.8171L65.2756 13.0774C64.7888 13.0774 64.7322 13.0774 64.6869 12.5679L64.4378 9.32981C64.4378 8.88825 64.4378 8.80899 64.9473 8.7637L77.1526 7.82394C77.5376 7.82394 77.6508 7.824 77.6734 8.09573C77.6839 8.20115 77.6839 8.30731 77.6734 8.41272L77.3677 11.7075Z" fill="white"/>
<path d="M89.4372 24.6261C88.335 24.9567 87.1912 25.1282 86.0405 25.1356L80.6851 25.4866C80.1983 25.4866 80.1417 25.4866 80.1077 24.9771L78.9755 8.22026C78.9755 7.7787 78.9755 7.68813 79.485 7.66548L84.6026 7.32576C87.4331 7.14461 88.588 7.32578 89.7768 8.18626C90.3269 8.61016 90.7824 9.14444 91.1139 9.75474C91.4453 10.365 91.6455 11.0379 91.7016 11.7301C91.7964 12.469 91.6668 13.2194 91.3296 13.8837C90.9924 14.548 90.4632 15.0955 89.8108 15.4551C90.6615 15.7076 91.4106 16.2223 91.9515 16.9258C92.4923 17.6293 92.7971 18.4856 92.8225 19.3726C92.9218 20.4999 92.6429 21.6281 92.0299 22.5794C91.4169 23.5306 90.5047 24.2507 89.4372 24.6261ZM85.1007 10.9036H84.1384L84.3535 14.3003L85.4178 14.2323C86.6972 14.1531 87.1275 13.519 87.0482 12.3528C86.9689 11.1866 86.5726 10.8017 85.1007 10.9036ZM85.4404 17.7648H84.58L84.8177 21.3766L85.882 21.3087C87.6709 21.1955 88.1464 20.4822 88.0219 19.3952C87.8973 18.3083 87.569 17.629 85.4404 17.7648Z" fill="white"/>
<path d="M97.9401 18.6027C97.7137 18.6027 97.6797 18.5121 97.6231 18.3762L92.8678 7.5749C92.7996 7.43764 92.7464 7.29338 92.7093 7.14465C92.7093 6.96349 92.8564 6.85027 93.4452 6.79366L97.1589 6.38608C97.3174 6.38608 97.4419 6.38608 97.5438 6.38608C97.6457 6.38608 97.8835 6.44268 98.042 6.87293L99.6384 11.7414C99.9102 12.5906 100.137 13.2813 100.771 15.4098H100.895C101.291 12.9642 101.45 12.1151 101.552 11.4584L102.254 6.70307C102.333 6.25018 102.412 6.12567 102.695 6.10303H106.681C106.975 6.10303 107.236 6.10303 107.247 6.38608C107.232 6.53505 107.205 6.6826 107.168 6.82759L104.586 18.9084C103.454 23.9468 101.427 24.7167 99.1176 24.8412C97.9608 24.9207 96.8008 24.7428 95.721 24.3204C95.1322 24.06 94.9963 23.9354 94.9963 23.7769C94.9826 23.7097 94.9826 23.6404 94.9963 23.5731L95.8002 20.6293C95.8372 20.5733 95.8937 20.533 95.9587 20.5161C96.722 20.862 97.5445 21.058 98.3817 21.0936C99.5139 21.0936 100.046 20.5048 100.272 19.2707L100.408 18.5121L97.9401 18.6027Z" fill="white"/>
<path d="M123.925 22.8825C123.925 23.1655 123.755 23.1994 123.54 23.2108L119.611 23.3806C119.328 23.3806 119.192 23.3127 119.181 23.007L118.909 16.4967C118.909 15.2286 118.909 13.0321 118.965 12.149H118.875C118.626 13.1 118.263 14.3116 117.075 17.5724L115.014 23.1542C114.935 23.3127 114.821 23.5844 114.504 23.5958L109.976 23.7769C109.934 23.7837 109.891 23.7811 109.85 23.7692C109.81 23.7573 109.772 23.7365 109.741 23.7083C109.709 23.68 109.685 23.6451 109.668 23.6061C109.652 23.567 109.645 23.5247 109.647 23.4825L108.934 6.32944C108.934 6.02374 109.047 5.93311 109.33 5.92179L113.338 5.76333C113.38 5.75411 113.424 5.75498 113.466 5.76596C113.507 5.77693 113.546 5.79767 113.578 5.82642C113.61 5.85518 113.635 5.89112 113.65 5.93133C113.666 5.97154 113.671 6.01482 113.667 6.05765L113.882 11.1866C113.95 12.7151 113.882 15.8287 113.882 16.0325H114.04C114.799 13.7114 115.172 12.9642 115.886 10.9036L117.607 5.95579C117.64 5.84134 117.71 5.74121 117.806 5.67142C117.903 5.60163 118.02 5.56619 118.139 5.57081L122.792 5.37835C123.03 5.37835 123.211 5.37833 123.223 5.718L123.925 22.8825ZM120.335 0.238105C120.63 0.238105 120.63 0.475867 120.641 0.589089V0.668353C120.766 3.55551 117.244 4.40464 115.852 4.46125C114.108 4.52919 110.87 3.78192 110.757 1.0646V1.008C110.749 0.96548 110.749 0.921703 110.759 0.879469C110.768 0.837234 110.786 0.79741 110.812 0.762405C110.837 0.7274 110.87 0.697978 110.907 0.675954C110.944 0.65393 110.986 0.639777 111.029 0.634353L113.474 0.136175C113.553 0.136175 113.633 0.136175 113.689 0.136175C113.746 0.136175 113.87 0.136188 113.961 0.362632L114.074 0.668353C114.178 1.03057 114.401 1.34711 114.707 1.56693C115.013 1.78674 115.385 1.89695 115.761 1.87976C116.138 1.86796 116.498 1.72436 116.78 1.47398C117.061 1.2236 117.245 0.882388 117.301 0.509826L117.369 0.249369C117.377 0.178333 117.413 0.113213 117.467 0.0670004C117.522 0.0207879 117.592 -0.00305513 117.663 0.000314009H117.743L120.335 0.238105Z" fill="white"/>
<path d="M147.01 22.2145C147.01 22.4975 146.841 22.5315 146.637 22.5428L142.697 22.6447C142.414 22.6447 142.289 22.5767 142.278 22.2597L142.108 15.7495C142.108 14.4701 142.176 12.2849 142.232 11.4018H142.097C141.836 12.3415 141.451 13.553 140.206 16.7912L138.055 22.339C138.025 22.4546 137.959 22.5581 137.868 22.6351C137.777 22.7122 137.664 22.759 137.545 22.7692L133.016 22.8938C132.973 22.9009 132.93 22.8981 132.888 22.8856C132.847 22.8731 132.809 22.8513 132.777 22.8218C132.745 22.7922 132.721 22.7558 132.705 22.7153C132.69 22.6748 132.684 22.6313 132.688 22.5881L132.246 5.42366C132.246 5.11796 132.371 5.03873 132.654 5.02741L136.662 4.92548C136.877 4.92548 136.979 5.01608 136.979 5.2312L137.115 10.3602C137.115 11.8887 137.024 14.9909 137.013 15.206H137.16C137.964 12.9416 138.292 12.149 139.085 10.0997L140.896 5.1746C140.93 5.0612 141 4.96241 141.097 4.89452C141.194 4.82662 141.311 4.79363 141.429 4.80095L146.093 4.67642C146.32 4.67642 146.512 4.67642 146.512 5.02741L147.01 22.2145Z" fill="white"/>
<path d="M168.364 22.2144L164.379 22.271C163.88 22.271 163.858 22.2711 163.846 21.7276L163.688 8.52591H160.699L160.857 21.7276C160.857 22.2258 160.756 22.2711 160.314 22.2824H156.329C155.842 22.2824 155.808 22.2824 155.808 21.7389L155.604 4.94813C155.604 4.50656 155.604 4.42728 156.125 4.42728L168.149 4.28009C168.647 4.28009 168.692 4.34804 168.704 4.7896L168.896 21.5917C168.908 22.1578 168.851 22.2144 168.364 22.2144Z" fill="white"/>
<path d="M183.468 5.86523C185.483 8.01644 185.653 11.4018 185.653 13.2246C185.653 15.0475 185.517 18.4329 183.524 20.5954C182.159 21.8836 180.352 22.6012 178.475 22.6012C176.597 22.6012 174.791 21.8836 173.425 20.5954C171.41 18.4442 171.24 15.0588 171.229 13.236C171.217 11.4131 171.364 8.02775 173.368 5.85389C174.733 4.56313 176.54 3.8439 178.418 3.8439C180.296 3.8439 182.103 4.56313 183.468 5.85389V5.86523ZM176.335 13.2586C176.335 16.7459 177.059 17.946 177.467 18.4328C177.584 18.5745 177.731 18.6878 177.897 18.7643C178.064 18.8408 178.246 18.8784 178.429 18.8744C180.366 18.8744 180.524 14.9796 180.524 13.2133C180.524 9.42038 179.664 8.35609 179.392 8.03906C179.268 7.90344 179.118 7.79438 178.95 7.71849C178.783 7.64259 178.602 7.60148 178.418 7.59755C176.618 7.63152 176.324 11.2546 176.335 13.2586Z" fill="white"/>
<path d="M200.53 22.2824H196.556C196.058 22.2824 196.035 22.2258 196.035 21.7276L196.149 8.52591H193.16L193.046 21.7276C193.046 22.2145 192.933 22.271 192.492 22.2597H188.506C188.008 22.2597 187.985 22.2597 187.985 21.7163L188.133 4.92547C188.133 4.47258 188.133 4.40469 188.665 4.40469L200.689 4.50655C201.187 4.50655 201.232 4.59717 201.232 5.03873L201.085 21.8295C201.085 22.2257 201.029 22.2824 200.53 22.2824Z" fill="white"/>
<path d="M219.019 22.3164C219.019 22.5541 218.884 22.6333 218.499 22.622L214.094 22.5315C213.653 22.5315 213.63 22.5314 213.528 22.0786L212.622 18.3309L209.226 18.263L208.094 21.9654C207.958 22.373 207.958 22.4069 207.539 22.3955L203.485 22.305C203.067 22.305 202.931 22.1918 202.942 22.0446C202.958 21.9144 202.996 21.788 203.055 21.671L208.841 4.99337C208.954 4.60841 208.977 4.5518 209.418 4.56312L213.302 4.64238C213.721 4.64238 213.743 4.64241 213.891 5.0953L219.008 22.0106C219.02 22.1121 219.024 22.2143 219.019 22.3164ZM211.502 11.7414C211.388 11.0168 211.185 9.55622 211.094 8.76367C210.969 9.60151 210.766 11.0281 210.596 11.7301L209.848 14.7531H211.966L211.502 11.7414Z" fill="white"/>
<path d="M223.526 22.7806L223.401 26.6641C223.401 26.9698 223.254 27.015 222.994 27.015L219.484 26.8905C219.201 26.8905 219.065 26.7999 219.076 26.4829L219.325 19.0669C219.325 18.682 219.574 18.614 219.789 18.614H220.922C222.326 16.2137 222.926 13.9945 223.107 8.80896L223.22 5.25385C223.22 4.93683 223.367 4.86887 223.65 4.86887L234.372 5.23118C234.576 5.23118 234.757 5.23116 234.757 5.5595L234.361 19.1122H235.663C235.725 19.1079 235.787 19.1176 235.844 19.1407C235.901 19.1637 235.952 19.1995 235.994 19.2453C236.035 19.2911 236.066 19.3457 236.083 19.405C236.1 19.4644 236.104 19.5268 236.093 19.5877L235.833 27.083C235.833 27.2981 235.72 27.3887 235.516 27.3887L231.893 27.2642C231.632 27.2642 231.508 27.1735 231.519 26.8565L231.655 23.007L223.526 22.7806ZM229.832 9.12601L227.568 9.05808L227.488 11.6056C227.418 12.9019 227.217 14.1878 226.888 15.4438C226.624 16.6092 226.201 17.733 225.632 18.7839L229.481 18.9084L229.832 9.12601Z" fill="white"/>
<path d="M251.673 23.6524C251.673 23.9354 251.469 23.9581 251.265 23.9468L247.336 23.7542C247.053 23.7542 246.917 23.6524 246.94 23.3467L247.246 16.8364C247.314 15.5683 247.574 13.4398 247.699 12.5113H247.563C247.234 13.4284 246.759 14.6059 245.298 17.7422L242.739 23.1202C242.701 23.2321 242.629 23.3297 242.534 23.4004C242.44 23.4711 242.325 23.5116 242.207 23.5165L237.735 23.3014C237.692 23.3055 237.648 23.2995 237.608 23.2841C237.567 23.2687 237.531 23.2442 237.501 23.2125C237.472 23.1807 237.45 23.1426 237.437 23.1011C237.425 23.0596 237.422 23.0158 237.429 22.973L238.267 5.83129C238.267 5.51427 238.414 5.44632 238.697 5.45764L242.705 5.6501C242.748 5.64785 242.79 5.6551 242.829 5.67131C242.868 5.68753 242.903 5.7123 242.931 5.7438C242.959 5.7753 242.98 5.81273 242.992 5.85333C243.004 5.89394 243.007 5.93666 243 5.97841L242.751 11.1074C242.683 12.6359 242.32 15.7269 242.286 15.9307H242.445C243.407 13.6662 243.838 12.9642 244.709 10.9829L246.872 6.20487C246.914 6.09279 246.993 5.99832 247.096 5.93668C247.199 5.87503 247.319 5.84984 247.438 5.86522L252.091 6.09168C252.329 6.09168 252.499 6.17089 252.488 6.47659L251.673 23.6524Z" fill="white"/>
<path d="M273.355 25.3733L269.38 25.0902C268.882 25.0902 268.86 25.011 268.894 24.5129L269.347 17.9913L265.95 17.7535L265.497 24.2751C265.497 24.7732 265.35 24.8185 264.908 24.7846L260.934 24.5129C260.447 24.5129 260.425 24.4223 260.459 23.9354L261.591 7.16728C261.591 6.72572 261.659 6.65773 262.146 6.6917L266.12 6.96349C266.561 6.96349 266.663 7.0767 266.629 7.51827L266.21 13.6549L269.607 13.8813L270.037 7.75599C270.037 7.31442 270.094 7.23518 270.592 7.26914L274.566 7.54086C275.053 7.54086 275.109 7.66541 275.076 8.10697L273.943 24.8638C273.898 25.3507 273.853 25.4073 273.355 25.3733Z" fill="white"/>
<path d="M291.742 26.5848C291.742 26.8226 291.583 26.8905 291.198 26.8565L286.817 26.4829C286.375 26.4829 286.341 26.415 286.273 25.9961L285.605 22.1918L282.209 21.9087L280.827 25.5318C280.657 25.9281 280.657 25.9621 280.25 25.9168L276.196 25.5772C275.778 25.5772 275.664 25.43 275.676 25.2715C275.7 25.1473 275.746 25.0285 275.811 24.9205L282.605 8.63917C282.741 8.26554 282.775 8.20889 283.216 8.24286L287.077 8.58258C287.496 8.58258 287.519 8.63918 287.632 9.06942L291.662 26.2678C291.699 26.3708 291.725 26.4769 291.742 26.5848ZM284.948 15.5457C284.881 14.8097 284.779 13.3379 284.733 12.5567C284.563 13.3719 284.269 14.7305 284.043 15.4777L283.114 18.4555L285.209 18.6367L284.948 15.5457Z" fill="white"/>
<path d="M315.734 29.053C315.734 29.37 315.609 29.4606 315.167 29.4153L311.42 28.9964C310.922 28.9964 310.888 28.8379 310.933 28.3964L311.51 22.5088C311.59 21.7842 312.043 18.9537 312.269 17.8214C311.782 19.1122 310.933 21.2181 310.707 21.7389L309.574 24.6713C309.427 25.0789 309.348 25.0676 308.929 25.0223L306.664 24.7619C306.246 24.7619 306.178 24.7619 306.121 24.2638L305.702 21.1728C305.623 20.5048 305.317 18.2517 305.17 17.0289C305.113 18.1611 304.83 21.0256 304.751 21.7503L304.038 27.6151C304.038 28.0794 303.902 28.1473 303.46 28.102L299.656 27.6831C299.248 27.6831 299.158 27.5132 299.192 27.2075L302.124 10.5073C302.204 10.0657 302.283 9.99782 302.724 10.0431L306.71 10.4847C307.095 10.4847 307.174 10.5639 307.265 10.9715L308.272 16.2137C308.397 16.9383 308.521 17.98 308.623 18.7499C308.884 18.0139 309.303 17.0402 309.586 16.3948L311.85 11.481C312.02 11.1074 312.054 11.0848 312.461 11.1301L316.3 11.549C316.707 11.6056 316.798 11.6848 316.775 12.1377L315.858 28.9058L315.734 29.053Z" fill="white"/>
<path d="M332.932 31.442C332.932 31.6798 332.762 31.7364 332.377 31.6911L328.018 31.1023C327.576 31.1023 327.554 31.0231 327.509 30.5929L327.022 26.766L323.625 26.3244L322.074 29.8682C321.893 30.2645 321.881 30.2871 321.474 30.2305L317.443 29.6984C317.035 29.6984 316.922 29.5285 316.945 29.37C316.974 29.2456 317.024 29.1269 317.092 29.0191L324.701 13.0887C324.859 12.7151 324.893 12.6698 325.335 12.7264L329.173 13.2359C329.592 13.2359 329.614 13.3265 329.705 13.7568L332.909 31.125C332.927 31.2296 332.935 31.3359 332.932 31.442ZM326.648 20.1198C326.648 19.3839 326.569 17.8554 326.569 17.1194C326.354 17.9346 325.991 19.2706 325.742 20.0066L324.61 22.9277L326.705 23.2108L326.648 20.1198Z" fill="white"/>
<path d="M346.903 19.7576C346.779 20.1086 346.688 20.1765 346.303 20.1199L343.19 19.6443L341.242 32.4837C341.163 32.9819 341.129 33.0271 340.642 32.9479L336.702 32.3478C336.215 32.2799 336.17 32.2233 336.249 31.7251L338.197 18.8857L334.868 18.3762C334.381 18.3083 334.336 18.2517 334.415 17.7535L334.902 14.5381C334.97 14.1078 335.026 14.0286 335.525 14.1078L347.583 15.9193C347.968 15.9759 348.058 16.0779 348.024 16.3043C348.013 16.4085 347.991 16.511 347.956 16.61L346.903 19.7576Z" fill="white"/>
<path d="M355.508 28.5662C354.448 28.872 353.328 28.9148 352.247 28.6908C350.87 28.5353 349.598 27.8735 348.681 26.8339C348.276 26.2848 348.004 25.6494 347.887 24.9775C347.769 24.3057 347.808 23.6157 348.002 22.9617L349.134 16.5986C349.213 16.191 349.44 16.2363 349.564 16.259L353.855 16.9949C353.957 16.9949 354.184 16.9949 354.127 17.3912L353.165 22.9843C352.87 24.6487 353.719 25.1129 354.489 25.2488C355.043 25.3442 355.612 25.2974 356.142 25.1129L357.376 18.0252C357.444 17.6176 357.648 17.6516 357.829 17.6856L362.007 18.4102C362.392 18.4781 362.403 18.6027 362.381 18.7385V18.8065L359.437 35.7897C359.437 35.9143 359.369 36.0388 358.984 35.9709L354.784 35.2463C354.648 35.2463 354.421 35.1557 354.489 34.7934L355.508 28.5662Z" fill="white"/>
<path d="M74.2088 57.6529C73.1083 57.9979 71.9651 58.1885 70.8122 58.219L65.4681 58.6719C64.97 58.6719 64.9246 58.6719 64.8794 58.1737L63.4754 41.4282C63.4754 40.9867 63.4754 40.9074 63.9736 40.8621L69.0912 40.4432C71.9105 40.2054 73.0766 40.3073 74.2767 41.2018C74.8104 41.6283 75.2505 42.1599 75.57 42.7637C75.8894 43.3675 76.0813 44.0305 76.1336 44.7116C76.2451 45.449 76.1305 46.2029 75.8051 46.8739C75.4797 47.5449 74.9588 48.1015 74.3107 48.4706C75.1681 48.7044 75.9292 49.2041 76.4847 49.8979C77.0401 50.5917 77.3611 51.4437 77.4017 52.3314C77.5259 53.4457 77.2807 54.57 76.7039 55.5313C76.127 56.4927 75.2504 57.2381 74.2088 57.6529ZM69.612 43.9983L68.6497 44.0889L68.944 47.4856L70.0083 47.395C71.2764 47.2931 71.6953 46.659 71.5934 45.4815C71.4915 44.304 71.0952 43.8851 69.612 43.9983ZM70.0875 50.8596L69.2271 50.9388L69.5328 54.5393L70.597 54.4487C72.3859 54.3016 72.7935 53.5882 72.7029 52.5013C72.6124 51.4144 72.2161 50.6897 70.0875 50.8596Z" fill="white"/>
<path d="M95.4719 56.1357C94.3697 56.4663 93.2259 56.6378 92.0752 56.6452L86.7198 56.9849C86.233 56.9849 86.1764 56.9849 86.1424 56.4754L85.0102 39.7186C85.0102 39.277 85.0102 39.1978 85.5197 39.1638L90.6373 38.8354C93.4678 38.6543 94.6227 38.8354 95.8115 39.6959C96.3367 40.1324 96.7665 40.6723 97.0742 41.2819C97.382 41.8916 97.5611 42.558 97.6005 43.2398C97.6966 43.9785 97.5663 44.7291 97.2266 45.3922C96.887 46.0553 96.3541 46.5997 95.6984 46.9534C96.552 47.206 97.304 47.722 97.8469 48.4276C98.3898 49.1332 98.6959 49.9923 98.7214 50.8822C98.826 51.9923 98.5652 53.1063 97.9786 54.0546C97.3921 55.0028 96.5119 55.7336 95.4719 56.1357ZM91.1355 42.4019L90.1844 42.4699L90.3995 45.8665L91.4638 45.7986C92.7432 45.708 93.1735 45.0852 93.0942 43.9191C93.0149 42.7529 92.6187 42.3113 91.1355 42.4019ZM91.4751 49.2745H90.626L90.8524 52.8863L91.9167 52.8183C93.7169 52.6938 94.1812 51.9918 94.068 50.9049C93.9661 49.7047 93.615 49.1386 91.4751 49.2745Z" fill="white"/>
<path d="M111.425 41.3036C111.425 41.6659 111.21 41.7339 110.87 41.7452L105.809 42.0169L105.945 44.6097L110.123 44.3946C110.564 44.3946 110.678 44.3946 110.7 44.9154L110.859 47.9045C110.859 48.346 110.779 48.4253 110.338 48.4479L106.149 48.6744L106.307 51.7087L111.742 51.4256C112.24 51.4256 112.274 51.4256 112.297 51.9238L112.455 54.9355C112.455 55.4337 112.455 55.479 111.957 55.5129L102.027 56.0338C101.541 56.0338 101.484 56.0337 101.45 55.5129L100.578 38.7448C100.578 38.3032 100.578 38.224 101.088 38.19L111.278 37.6579C111.663 37.6579 111.776 37.6579 111.787 37.9183C111.796 38.0313 111.796 38.1449 111.787 38.2579L111.425 41.3036Z" fill="white"/>
<path d="M120.811 42.8435C120.879 44.4513 120.935 46.4552 120.811 48.1762C120.686 49.8972 120.528 52.2069 119.056 53.8373C117.846 54.9775 116.286 55.6757 114.629 55.8187C114.289 55.8187 114.187 55.7394 114.131 55.6035L112.999 52.5239C112.999 52.5239 112.999 52.5239 112.999 52.4447C113 52.3652 113.025 52.2878 113.069 52.2217C113.113 52.1555 113.175 52.1033 113.248 52.071L113.712 51.9465C114.387 51.8416 115.009 51.515 115.478 51.0181C116.746 49.6368 116.35 44.3041 116.214 40.998L116.078 37.907C116.081 37.8405 116.097 37.7753 116.126 37.7152C116.154 37.6551 116.194 37.6013 116.244 37.557C116.294 37.5126 116.352 37.4787 116.414 37.4572C116.477 37.4356 116.544 37.4269 116.61 37.4315L127.174 37.0012C127.244 36.9888 127.316 36.9926 127.385 37.0126C127.453 37.0325 127.516 37.0679 127.569 37.1161C127.621 37.1643 127.662 37.224 127.688 37.2904C127.714 37.3569 127.724 37.4284 127.717 37.4994L128.408 54.3581C128.408 54.6638 128.408 54.8223 128.034 54.845L124.004 55.0035C123.608 55.0035 123.528 54.9243 123.517 54.5846L122.973 41.2923L120.709 41.3829L120.811 42.8435Z" fill="white"/>
<path d="M145.471 53.9731C145.471 54.2562 145.289 54.2902 145.086 54.3015L141.157 54.4147C140.862 54.4147 140.738 54.3468 140.727 54.0297L140.534 47.5308C140.534 46.2514 140.534 44.0549 140.647 43.1718H140.511C139.98 45.0024 139.357 46.805 138.643 48.5725L136.503 54.1317C136.472 54.2465 136.406 54.349 136.315 54.4259C136.225 54.5027 136.112 54.5501 135.994 54.5619L131.465 54.6978C131.25 54.6978 131.148 54.5959 131.148 54.3921L130.639 37.239C130.639 36.922 130.763 36.8427 131.046 36.8314L135.054 36.7182C135.096 36.7089 135.14 36.7099 135.182 36.7209C135.223 36.7318 135.262 36.7525 135.294 36.7813C135.326 36.81 135.351 36.846 135.366 36.8862C135.381 36.9264 135.387 36.9697 135.383 37.0126L135.53 42.1415C135.53 43.6813 135.45 46.7836 135.439 46.9987H135.586C136.379 44.7343 136.719 43.9417 137.5 41.8924L139.289 36.9673C139.322 36.8528 139.392 36.7527 139.488 36.6829C139.585 36.6131 139.702 36.5777 139.821 36.5823L144.486 36.4464C144.712 36.4464 144.904 36.4464 144.904 36.7974L145.471 53.9731Z" fill="white"/>
<path d="M153.283 53.8373C153.288 53.8772 153.284 53.9177 153.272 53.9561C153.26 53.9945 153.24 54.0298 153.213 54.0598C153.186 54.0898 153.153 54.1137 153.117 54.13C153.08 54.1463 153.04 54.1546 153 54.1544L148.652 54.2223C148.267 54.2223 148.233 54.0524 148.233 53.792L147.939 36.8088C147.939 36.4918 148.063 36.4125 148.346 36.4125L152.671 36.3333C152.713 36.328 152.756 36.3322 152.796 36.3456C152.836 36.3589 152.873 36.3811 152.903 36.4104C152.933 36.4397 152.957 36.4754 152.972 36.5149C152.986 36.5545 152.992 36.5968 152.989 36.6389L153.102 43.0926H153.974C155.106 43.0926 155.638 42.3906 155.819 41.1112L156.079 39.5714C156.273 38.4883 156.848 37.5101 157.699 36.8126C158.55 36.1152 159.622 35.7445 160.722 35.7672C161.141 35.7672 161.333 35.8577 161.412 36.0955L162.261 38.8354C162.277 38.8871 162.277 38.9423 162.261 38.9939C162.26 39.0744 162.232 39.1521 162.18 39.214C162.129 39.2758 162.057 39.318 161.978 39.3336L161.31 39.5261C160.688 39.6959 160.303 40.1488 160.178 41.1339L159.918 42.4472C159.818 42.9715 159.577 43.4589 159.222 43.8576C158.868 44.2563 158.411 44.5514 157.902 44.7116V44.7909C158.527 44.9635 159.089 45.311 159.522 45.7925C159.955 46.274 160.242 46.8693 160.348 47.5082L160.654 48.9914C160.937 50.2822 161.458 50.3501 161.978 50.4972L162.51 50.6218C162.658 50.6218 162.895 50.7463 162.907 50.9841C162.917 51.0249 162.917 51.0678 162.907 51.1087L162.012 54.0638C161.944 54.2789 161.888 54.46 161.424 54.4713C159.68 54.4713 156.895 54.2336 156.385 51.0747L155.921 48.4027C155.905 48.1852 155.846 47.9731 155.747 47.7789C155.648 47.5846 155.511 47.4122 155.345 47.2718C155.178 47.1314 154.985 47.0258 154.776 46.9614C154.568 46.897 154.349 46.875 154.132 46.8968H153.249L153.283 53.8373Z" fill="white"/>
<path d="M175.927 37.5787C177.943 39.7299 178.124 43.1039 178.192 44.9267C178.26 46.7496 178.079 50.135 176.086 52.3202C174.729 53.6176 172.927 54.3473 171.05 54.3599C169.172 54.3726 167.361 53.6672 165.986 52.3881C163.96 50.2369 163.779 46.8628 163.722 45.0399C163.665 43.2171 163.846 39.8318 165.828 37.6579C167.184 36.3557 168.987 35.6218 170.867 35.6071C172.748 35.5924 174.562 36.2978 175.939 37.5787H175.927ZM168.817 44.9947C168.817 48.4932 169.553 49.6821 169.949 50.1689C170.067 50.3121 170.216 50.4264 170.385 50.5029C170.553 50.5795 170.738 50.6163 170.923 50.6105C172.848 50.6105 173.006 46.7157 172.983 44.9494C172.983 41.1452 172.123 40.0809 171.851 39.7752C171.729 39.6404 171.581 39.5318 171.415 39.4559C171.25 39.38 171.071 39.3384 170.889 39.3336C169.032 39.3789 168.806 42.9907 168.817 44.9947Z" fill="white"/>
<path d="M185.495 42.8322H187.442C189.073 42.7263 190.686 43.2263 191.971 44.2361C192.476 44.7666 192.867 45.3948 193.12 46.0822C193.373 46.7695 193.483 47.5014 193.443 48.2328C193.443 53.4863 189.14 53.8939 186.797 53.8939H181.135C180.671 53.8939 180.615 53.6109 180.626 53.3731L180.705 36.5596C180.705 36.0841 181 36.0388 181.237 36.0388H191.88C192.197 36.0388 192.277 36.1747 192.277 36.2992C192.277 36.4238 192.277 36.5144 192.277 36.5823L191.688 39.6846C191.655 39.8145 191.576 39.9279 191.466 40.0031C191.355 40.0783 191.22 40.11 191.088 40.0921H185.642L185.495 42.8322ZM185.495 50.101H186.31C187.442 50.101 188.699 49.9085 188.71 48.1875C188.731 47.9224 188.693 47.656 188.597 47.4078C188.502 47.1596 188.352 46.936 188.158 46.7535C187.965 46.571 187.733 46.4341 187.48 46.3531C187.226 46.2721 186.958 46.249 186.695 46.2854H185.562L185.495 50.101Z" fill="white"/>
<path d="M201.527 47.3497H200.712L200.632 53.4636C200.632 53.9618 200.519 54.0071 200.077 54.0071H196.092C195.594 54.0071 195.549 53.9392 195.549 53.4523L195.798 36.6502C195.798 36.1634 195.854 36.1294 196.352 36.1407L201.481 36.22C204.006 36.22 205.433 36.5596 206.508 37.5107C207.032 38.0257 207.444 38.6437 207.717 39.3258C207.989 40.0079 208.118 40.7392 208.094 41.4735C207.992 45.0173 205.388 47.4063 201.527 47.3497ZM201.527 39.7978H200.791L200.734 43.5454H201.334C202.953 43.5454 203.485 43.0246 203.497 41.598C203.508 40.1714 202.817 39.8205 201.527 39.7978Z" fill="white"/>
<path d="M223.922 54.1996C223.922 54.4939 223.729 54.5053 223.514 54.5053L219.642 54.4147C219.359 54.4147 219.235 54.3241 219.235 54.0071L219.416 47.4969C219.416 46.2288 219.665 44.1002 219.767 43.1605H219.631C218.998 44.9555 218.272 46.7166 217.457 48.4366L215.023 53.8713C214.985 53.9844 214.914 54.0836 214.819 54.1562C214.724 54.2289 214.61 54.2716 214.491 54.2788L209.962 54.1543C209.92 54.1584 209.878 54.1528 209.839 54.138C209.8 54.1232 209.764 54.0994 209.736 54.0688C209.707 54.0381 209.686 54.0012 209.675 53.961C209.663 53.9209 209.66 53.8785 209.667 53.8373L210.12 36.6729C210.12 36.3672 210.256 36.2879 210.55 36.2992L214.559 36.4011C214.601 36.3966 214.645 36.4022 214.685 36.4176C214.725 36.433 214.761 36.4578 214.79 36.4899C214.819 36.5219 214.839 36.5605 214.85 36.6021C214.861 36.6438 214.862 36.6874 214.853 36.7295L214.717 41.8584C214.717 43.3869 214.389 46.4778 214.355 46.693H214.513C215.43 44.4285 215.849 43.7039 216.71 41.6999L218.759 36.8767C218.802 36.7667 218.879 36.6734 218.979 36.6103C219.079 36.5471 219.196 36.5175 219.314 36.5257L223.979 36.6502C224.216 36.6502 224.398 36.7182 224.386 37.0352L223.922 54.1996Z" fill="white"/>
<path d="M238.765 41.1112C238.675 41.4735 238.595 41.5527 238.199 41.5301L235.052 41.4056L234.542 54.4147C234.542 54.9129 234.542 54.9582 233.999 54.9356L230.013 54.7771C229.515 54.7771 229.47 54.7091 229.492 54.211L230.002 41.2244L226.605 41.0999C226.107 41.0999 226.062 41.0206 226.084 40.5224L226.209 37.273C226.209 36.8314 226.288 36.7521 226.775 36.7748L239.003 37.2616C239.399 37.2616 239.501 37.3636 239.49 37.59C239.498 37.6955 239.498 37.8015 239.49 37.907L238.765 41.1112Z" fill="white"/>
<path d="M253.609 55.547C253.609 55.7847 253.462 55.8527 253.065 55.83L248.672 55.6036C248.231 55.6036 248.208 55.6036 248.129 55.1394L247.325 51.3691L243.928 51.188L242.672 54.8563C242.524 55.2639 242.524 55.2866 242.105 55.2639L238.052 55.0601C237.633 55.0601 237.509 54.9242 237.52 54.7657C237.535 54.6375 237.578 54.5141 237.644 54.4034L243.94 37.9183C244.064 37.5334 244.098 37.4881 244.54 37.5107L248.412 37.7032C248.831 37.7032 248.853 37.7032 248.989 38.1787L253.518 55.2299C253.556 55.3333 253.586 55.4393 253.609 55.547ZM246.419 44.7456C246.329 44.0097 246.17 42.5491 246.102 41.7566C245.955 42.5831 245.706 43.953 245.513 44.7003L244.675 47.712L246.781 47.8139L246.419 44.7456Z" fill="white"/>
<path d="M268.112 56.8603L264.138 56.5885C263.64 56.5885 263.617 56.498 263.651 55.9998L264.093 49.4782L260.696 49.2518L260.255 55.7734C260.255 56.2716 260.119 56.3169 259.677 56.2829L255.692 56.0111C255.205 56.0111 255.182 55.9319 255.216 55.4337L256.349 38.6768C256.349 38.2353 256.417 38.156 256.903 38.19L260.877 38.4617C261.319 38.4617 261.421 38.575 261.387 39.0166L260.979 45.1532L264.376 45.3796L264.795 39.243C264.795 38.8014 264.795 38.7221 265.35 38.7561L269.324 39.0278C269.811 39.0278 269.867 39.1411 269.833 39.5827L268.701 56.3508C268.667 56.8377 268.611 56.8829 268.112 56.8603Z" fill="white"/>
<path d="M285.662 57.9925C285.662 58.2756 285.458 58.2869 285.243 58.2643L281.325 57.9359C281.042 57.9359 280.918 57.8227 280.952 57.5057L281.495 51.0181C281.597 49.75 281.937 47.6214 282.095 46.7043H281.914C281.182 48.4635 280.358 50.183 279.446 51.8559L276.695 57.1433C276.651 57.2515 276.576 57.3441 276.479 57.4088C276.382 57.4734 276.268 57.5072 276.151 57.5057L271.622 57.1321C271.418 57.1321 271.328 57.0075 271.339 56.7923L272.856 39.6959C272.856 39.3789 273.015 39.3223 273.298 39.3449L277.295 39.6846C277.337 39.68 277.381 39.6856 277.421 39.7011C277.461 39.7165 277.497 39.7413 277.526 39.7734C277.555 39.8054 277.575 39.8439 277.586 39.8855C277.597 39.9272 277.598 39.9709 277.589 40.0129L277.147 45.1305C277.023 46.659 276.547 49.7273 276.513 49.9311H276.661C277.714 47.6667 278.166 47.0213 279.14 45.0626L281.473 40.3752C281.519 40.2652 281.602 40.1741 281.706 40.1166C281.811 40.0591 281.932 40.0385 282.05 40.0582L286.692 40.4545C286.93 40.4545 287.1 40.5338 287.077 40.8508L285.662 57.9925Z" fill="white"/>
<path d="M302.554 59.7248C302.554 60.0079 302.339 60.0079 302.136 59.9965L298.218 59.589C297.935 59.589 297.81 59.4644 297.844 59.1474L298.524 52.6824C298.66 51.4143 299.033 49.2858 299.203 48.38H299.079C298.694 49.2744 298.161 50.4293 296.508 53.475L293.655 58.7058C293.609 58.8137 293.532 58.9051 293.433 58.9678C293.333 59.0305 293.218 59.0615 293.1 59.0568L288.64 58.6039C288.596 58.6058 288.553 58.5973 288.513 58.579C288.474 58.5607 288.439 58.5332 288.413 58.4988C288.386 58.4644 288.368 58.4241 288.36 58.3814C288.353 58.3386 288.355 58.2945 288.368 58.253L290.134 41.1904C290.134 40.8734 290.304 40.8168 290.598 40.8394L294.584 41.2584C294.626 41.257 294.668 41.2655 294.706 41.2832C294.744 41.3008 294.778 41.3273 294.805 41.3602C294.831 41.3932 294.849 41.4318 294.858 41.4731C294.867 41.5144 294.866 41.5571 294.855 41.598L294.323 46.7043C294.165 48.2328 293.644 51.2898 293.599 51.4936H293.746C294.878 49.2971 295.308 48.6177 296.316 46.6817L298.739 42.0396C298.787 41.9317 298.871 41.8431 298.975 41.7877C299.08 41.7323 299.2 41.7134 299.316 41.7339L303.958 42.2094C304.185 42.2094 304.366 42.3113 304.332 42.617L302.554 59.7248Z" fill="white"/>
</g>
<defs>
<filter id="filter0_d" x="0" y="0" width="366.388" height="68" filterUnits="userSpaceOnUse" color-interpolation-filters="sRGB">
<feFlood flood-opacity="0" result="BackgroundImageFix"/>
<feColorMatrix in="SourceAlpha" type="matrix" values="0 0 0 0 0 0 0 0 0 0 0 0 0 0 0 0 0 0 127 0" result="hardAlpha"/>
<feOffset dy="4"/>
<feGaussianBlur stdDeviation="2"/>
<feComposite in2="hardAlpha" operator="out"/>
<feColorMatrix type="matrix" values="0 0 0 0 0.407843 0 0 0 0 0.121569 0 0 0 0 0.0901961 0 0 0 1 0"/>
<feBlend mode="normal" in2="BackgroundImageFix" result="effect1_dropShadow"/>
<feBlend mode="normal" in="SourceGraphic" in2="effect1_dropShadow" result="shape"/>
</filter>
</defs>
</svg>
