<svg width="365" height="191" viewBox="0 0 365 191" fill="none" xmlns="http://www.w3.org/2000/svg">
<g filter="url(#filter0_d)">
<path d="M100.89 173.3L91.58 173.97C90.43 174.05 90.36 173.97 90.28 172.78L88.05 141.94L81.05 142.44L83.28 173.29C83.36 174.44 83.13 174.58 82.09 174.66L72.79 175.33C71.63 175.41 71.56 175.33 71.48 174.14L68.64 134.9C68.57 133.9 68.64 133.68 69.77 133.6L97.88 131.6C99.03 131.51 99.17 131.68 99.24 132.72L102.08 171.96C102.2 173.08 102.05 173.22 100.89 173.3Z" fill="#FEF035"/>
<path d="M134.54 133.58C139.44 138.45 140.13 146.36 140.31 150.58C140.49 154.8 140.44 162.79 135.95 168.04C132.57 172.04 128.1 173.04 124.32 173.21C120.54 173.38 116 172.7 112.32 169C107.42 164.14 106.73 156.23 106.55 152C106.37 147.77 106.42 139.8 110.91 134.55C114.29 130.55 118.76 129.55 122.54 129.37C126.32 129.19 130.85 129.89 134.54 133.58ZM118.49 151.53C118.82 159.7 120.58 162.44 121.66 163.53C121.942 163.86 122.296 164.122 122.695 164.296C123.093 164.469 123.526 164.549 123.96 164.53C128.47 164.34 128.53 155.24 128.36 151.16C128 142.26 125.95 139.84 125.18 139.16C124.882 138.856 124.526 138.616 124.132 138.454C123.738 138.292 123.316 138.213 122.89 138.22C118.56 138.32 118.3 146.82 118.49 151.53Z" fill="#FEF035"/>
<path d="M157.53 145.39L162.1 145.32C164.91 145.32 169.49 145.51 172.7 148.39C175.7 151.09 176.28 154.93 176.32 157.67C176.5 169.99 166.52 171.12 161.03 171.2L147.67 171.4C146.57 171.4 146.44 170.75 146.43 170.2L145.84 130.8C145.84 129.7 146.49 129.57 147.04 129.56L171.99 129.19C172.72 129.19 172.91 129.48 172.91 129.78C172.91 130.08 172.8 130.28 172.8 130.46L171.57 137.74C171.507 138.051 171.329 138.327 171.071 138.513C170.813 138.698 170.495 138.779 170.18 138.74L157.43 138.93L157.53 145.39ZM157.78 162.39H159.68C162.3 162.39 165.28 161.81 165.22 157.79C165.22 154.43 162.83 153.37 160.39 153.41H157.65L157.78 162.39Z" fill="#FEF035"/>
<path d="M206.74 137.85C206.61 138.7 206.18 138.85 205.39 138.85L193.5 138.76V144.86L203.32 144.93C204.32 144.93 204.6 145.06 204.6 146.22L204.54 153.22C204.54 154.22 204.29 154.44 203.25 154.43L193.43 154.36V161.49L206.18 161.59C207.34 161.59 207.4 161.78 207.39 162.82L207.34 169.89C207.34 171.05 207.27 171.17 206.11 171.16L182.81 171C181.65 171 181.53 170.86 181.54 169.71L181.82 130.36C181.82 129.36 181.95 129.14 183.11 129.15L206.9 129.32C207.82 129.32 208.06 129.51 208.06 130C208.037 130.266 207.993 130.53 207.93 130.79L206.74 137.85Z" fill="#FEF035"/>
<path d="M219.42 171.47L219.09 180.55C219.09 181.28 218.76 181.39 218.15 181.37L209.92 181.07C209.25 181.07 208.92 180.86 208.98 180.12L209.6 162.75C209.6 161.84 210.19 161.67 210.68 161.69L213.36 161.79C216.67 156.17 218.08 150.97 218.52 138.79L218.82 130.44C218.82 129.71 219.16 129.54 219.82 129.56L244.94 130.47C245.42 130.47 245.85 130.56 245.82 131.23L244.68 162.87L247.68 162.98C247.823 162.979 247.965 163.008 248.095 163.067C248.226 163.125 248.343 163.21 248.437 163.317C248.532 163.424 248.603 163.551 248.645 163.687C248.687 163.824 248.699 163.968 248.68 164.11L248.04 181.67C248.051 181.769 248.039 181.869 248.004 181.963C247.969 182.056 247.913 182.14 247.841 182.208C247.768 182.276 247.68 182.326 247.584 182.354C247.489 182.382 247.388 182.388 247.29 182.37L238.81 182.07C238.2 182.07 237.91 181.85 237.93 181.07L238.26 172.07L219.42 171.47ZM234.2 139.59L228.96 139.4L228.74 145.4C228.581 148.441 228.105 151.458 227.32 154.4C226.693 157.135 225.683 159.768 224.32 162.22L233.32 162.55L234.2 139.59Z" fill="#FEF035"/>
<path d="M279.03 141.3C278.85 142.15 278.41 142.24 277.62 142.18L265.75 141.36L265.33 147.44L275.13 148.12C276.13 148.2 276.4 148.34 276.32 149.49L275.83 156.49C275.76 157.49 275.5 157.69 274.47 157.62L264.67 156.94L264.18 164.06L276.9 164.94C278.05 165.02 278.1 165.21 278.03 166.24L277.54 173.3C277.46 174.46 277.39 174.57 276.23 174.49L252.99 172.88C251.83 172.8 251.72 172.67 251.8 171.51L254.52 132.26C254.6 131.26 254.73 131.05 255.89 131.13L279.62 132.78C280.53 132.85 280.76 133.05 280.73 133.53C280.692 133.798 280.631 134.062 280.55 134.32L279.03 141.3Z" fill="#FEF035"/>
<path d="M290.79 177.98C289.414 177.839 288.111 177.294 287.045 176.414C285.979 175.533 285.197 174.357 284.799 173.032C284.401 171.708 284.404 170.296 284.807 168.973C285.211 167.65 285.997 166.477 287.067 165.601C288.137 164.725 289.442 164.185 290.818 164.05C292.195 163.915 293.58 164.19 294.8 164.842C296.02 165.493 297.019 166.491 297.672 167.71C298.326 168.929 298.603 170.314 298.47 171.69C298.278 173.539 297.363 175.238 295.925 176.416C294.486 177.594 292.641 178.156 290.79 177.98ZM297.56 159.22C297.4 160.22 297.26 160.41 296.23 160.31L288.76 159.57C287.76 159.47 287.62 159.28 287.67 158.24L288.56 133.81C288.63 133.08 288.83 132.97 289.86 133.08L300.3 134.08C301.3 134.19 301.56 134.39 301.48 135.08V135.45L297.56 159.22Z" fill="#FEF035"/>
<path d="M62.76 70.2C59.13 71.46 57.33 71.85 50.46 72.59L30.8 74.7C28.99 74.9 28.8 74.7001 28.58 72.91L21.96 11.3501C21.78 9.73005 21.96 9.42006 23.76 9.23006L42.56 7.23006C52.96 6.12006 57.24 6.43006 61.74 9.61006C63.7467 11.1281 65.4184 13.044 66.6504 15.2379C67.8825 17.4318 68.6483 19.8565 68.9 22.3601C69.53 28.1801 67.9 32.7001 62.49 36.3601C69.89 38.7501 73.49 43.6701 74.23 50.3601C75.14 58.7301 70.57 67.43 62.76 70.2ZM44.64 20.3001L41.11 20.6801L42.47 33.28L46.38 32.8601C51.06 32.3601 52.54 29.9801 52.08 25.6801C51.62 21.3801 50.08 19.7201 44.64 20.3001ZM46.97 45.53L43.82 45.8701L45.25 59.14L49.16 58.72C55.75 58.01 57.16 55.34 56.77 51.33C56.28 46.76 54.8 44.7 46.97 45.53Z" fill="#FEF035"/>
<path d="M130.37 66.78L115.71 67.57C113.88 67.67 113.78 67.48 113.71 65.66L111.1 17.0601L100.1 17.65L102.71 66.25C102.8 68.07 102.43 68.2501 100.8 68.3701L86.14 69.16C84.31 69.26 84.21 69.07 84.14 67.25L80.82 5.42005C80.74 3.79005 80.82 3.50005 82.64 3.42005L126.92 1.05005C128.74 0.950053 128.92 1.23005 129.04 2.86005L132.36 64.6801C132.37 66.5301 132.2 66.69 130.37 66.78Z" fill="#FEF035"/>
<path d="M180.84 13.53C180.67 14.87 180 15.07 178.75 15.09L160.04 15.36L160.17 24.96L175.63 24.7401C177.26 24.7401 177.63 24.9001 177.63 26.7401L177.79 37.7401C177.79 39.3801 177.43 39.67 175.79 39.69L160.34 39.91L160.5 51.15L180.56 50.86C182.38 50.86 182.48 51.12 182.56 52.75L182.72 63.89C182.72 65.71 182.65 65.89 180.83 65.89L144.16 66.41C142.33 66.41 142.16 66.25 142.11 64.41L141.2 2.53003C141.2 0.900029 141.36 0.610029 143.2 0.530029L180.64 0C182.08 0 182.47 0.26 182.48 1C182.455 1.42034 182.398 1.83818 182.31 2.25L180.84 13.53Z" fill="#FEF035"/>
<path d="M213.32 41.77L210.32 41.71L209.82 64.26C209.82 66.08 209.4 66.26 207.76 66.26L193.08 65.94C191.26 65.94 191.08 65.7 191.08 63.88L192.45 1.97001C192.45 0.150011 192.68 0.0600164 194.5 0.100016L213.41 0.50999C222.72 0.71999 227.98 1.88998 231.93 5.43998C235.6 8.77998 237.78 14.44 237.66 20.06C237.41 33.37 227.71 42.09 213.32 41.77ZM213.65 13.93L210.96 13.87L210.65 27.69L212.86 27.74C218.86 27.87 220.78 25.9 220.86 20.62C221 15.63 218.44 14.04 213.65 13.93Z" fill="#FEF035"/>
<path d="M284.35 17.4601C284.07 18.7901 283.35 18.9301 282.14 18.8501L263.46 17.6101L262.83 27.1901L278.25 28.1901C279.88 28.3001 280.25 28.5201 280.13 30.3401L279.4 41.3401C279.29 42.9701 278.89 43.2301 277.26 43.1201L261.84 42.1201L261.09 53.3301L281.09 54.6601C282.91 54.7801 282.99 55.0801 282.88 56.7101L282.2 67.8301C282.08 69.6501 281.97 69.8301 280.15 69.7101L243.56 67.2801C241.74 67.1601 241.56 66.9601 241.68 65.1401L245.78 3.3501C245.89 1.7201 246.1 1.45007 247.92 1.57007L285.2 4.05011C286.64 4.14011 287.01 4.46009 286.95 5.22009C286.899 5.63772 286.809 6.04955 286.68 6.45007L284.35 17.4601Z" fill="#FEF035"/>
<path d="M300.6 71.77L298.75 85.96C298.6 87.1 298.1 87.23 297.15 87.11L284.3 85.4301C283.25 85.2901 282.81 84.94 282.96 83.8L286.5 56.67C286.68 55.24 287.58 55.07 288.34 55.17L292.53 55.71C298.53 47.4 301.53 39.46 304 20.51L305.7 7.51001C305.85 6.37001 306.36 6.15003 307.41 6.28003L346.63 11.4C347.39 11.5 348.04 11.68 347.91 12.73L341.46 62.14L346.22 62.76C346.449 62.7661 346.674 62.8248 346.878 62.9316C347.081 63.0383 347.257 63.1903 347.392 63.3757C347.527 63.5612 347.618 63.7753 347.658 64.0014C347.697 64.2275 347.684 64.4597 347.62 64.6801L344.04 92.1C344.047 92.2598 344.015 92.4188 343.948 92.5638C343.881 92.7089 343.78 92.8357 343.654 92.9337C343.527 93.0316 343.379 93.0978 343.222 93.1268C343.065 93.1557 342.903 93.1465 342.75 93.1L329.52 91.38C328.52 91.25 328.12 90.91 328.27 89.76L330.11 75.67L300.6 71.77ZM328.42 23.9901L320.2 22.92L318.98 32.25C318.286 36.985 317.096 41.6339 315.43 46.1201C314.063 50.3185 312.107 54.3015 309.62 57.95L323.71 59.79L328.42 23.9901Z" fill="#FEF035"/>
<path d="M181.08 111.86C181.087 111.922 181.081 111.984 181.062 112.043C181.043 112.101 181.012 112.155 180.97 112.201C180.928 112.246 180.877 112.282 180.82 112.306C180.763 112.331 180.702 112.342 180.64 112.34H174.01C173.42 112.34 173.38 112.06 173.38 111.66L173.51 85.7201C173.51 85.2401 173.71 85.1201 174.15 85.1301H180.74C180.805 85.1216 180.87 85.1282 180.932 85.1495C180.994 85.1708 181.049 85.2061 181.095 85.2527C181.141 85.2992 181.175 85.3558 181.195 85.4178C181.215 85.4798 181.22 85.5457 181.21 85.6101V95.4501H182.48C184.23 95.4501 185.02 94.4501 185.35 92.4501L185.8 90.1101C186.127 88.4629 187.035 86.988 188.358 85.9544C189.682 84.9209 191.333 84.3977 193.01 84.4801C193.64 84.4801 193.92 84.6401 194.01 85.0001L195.22 89.2101C195.24 89.2889 195.24 89.3713 195.22 89.4501C195.213 89.57 195.167 89.6843 195.089 89.7761C195.012 89.868 194.907 89.9325 194.79 89.9601L193.79 90.2301C192.84 90.4701 192.24 91.1401 191.96 92.6401L191.51 94.6401C191.349 95.4452 190.97 96.1907 190.414 96.7954C189.859 97.4002 189.148 97.841 188.36 98.0701V98.1901C189.302 98.4783 190.143 99.0277 190.786 99.7747C191.428 100.522 191.846 101.435 191.99 102.41L192.41 104.68C192.8 106.68 193.59 106.79 194.41 107.03L195.21 107.23C195.44 107.31 195.8 107.43 195.8 107.79C195.819 107.855 195.819 107.925 195.8 107.99L194.25 112.53C194.13 112.85 194.05 113.13 193.33 113.12C190.67 113.12 186.51 112.61 185.78 107.69L185.2 103.53C185.181 103.198 185.096 102.873 184.95 102.574C184.804 102.275 184.599 102.009 184.349 101.79C184.098 101.571 183.807 101.404 183.491 101.3C183.175 101.195 182.842 101.154 182.51 101.18H181.16L181.08 111.86Z" fill="#FEF035"/>
<path d="M358.68 113.99C358.557 114.005 358.433 114.005 358.31 113.99C335.88 109.69 300.83 103.76 261.2 99.9901C260.937 99.9651 260.682 99.8887 260.449 99.7651C260.216 99.6415 260.009 99.4733 259.841 99.2699C259.673 99.0666 259.547 98.8321 259.47 98.5799C259.392 98.3277 259.365 98.0627 259.39 97.8001C259.415 97.5374 259.491 97.2823 259.615 97.0492C259.739 96.8161 259.907 96.6096 260.11 96.4415C260.314 96.2734 260.548 96.1471 260.8 96.0696C261.052 95.9922 261.317 95.9651 261.58 95.9901C301.36 99.7601 336.58 105.71 359.06 109.99C359.318 110.039 359.564 110.139 359.783 110.283C360.003 110.427 360.192 110.613 360.34 110.831C360.487 111.048 360.591 111.292 360.644 111.549C360.697 111.807 360.699 112.072 360.65 112.33C360.57 112.795 360.328 113.216 359.968 113.52C359.607 113.823 359.151 113.99 358.68 113.99Z" fill="#FEF035"/>
<path d="M6.99005 111.43C6.45962 111.479 5.9314 111.315 5.52164 110.975C5.11187 110.635 4.85412 110.146 4.80505 109.615C4.75599 109.085 4.91963 108.556 5.26001 108.147C5.60039 107.737 6.08962 107.479 6.62006 107.43C6.99006 107.36 44.5201 100.32 102.27 96.9101C102.533 96.8943 102.796 96.9305 103.045 97.0164C103.293 97.1024 103.523 97.2364 103.719 97.411C103.916 97.5856 104.077 97.7972 104.192 98.0339C104.307 98.2705 104.374 98.5275 104.39 98.7901C104.406 99.0527 104.37 99.3159 104.284 99.5646C104.198 99.8133 104.064 100.043 103.889 100.239C103.715 100.436 103.503 100.597 103.266 100.712C103.03 100.827 102.773 100.894 102.51 100.91C45.01 104.31 7.73005 111.29 7.36005 111.37C7.23854 111.4 7.11481 111.42 6.99005 111.43Z" fill="#FEF035"/>
</g>
<mask id="mask0" style="mask-type:alpha" maskUnits="userSpaceOnUse" x="4" y="0" width="357" height="183">
<path d="M100.89 173.3L91.58 173.97C90.43 174.05 90.36 173.97 90.28 172.78L88.05 141.94L81.05 142.44L83.28 173.29C83.36 174.44 83.13 174.58 82.09 174.66L72.79 175.33C71.63 175.41 71.56 175.33 71.48 174.14L68.64 134.9C68.57 133.9 68.64 133.68 69.77 133.6L97.88 131.6C99.03 131.51 99.17 131.68 99.24 132.72L102.08 171.96C102.2 173.08 102.05 173.22 100.89 173.3Z" fill="#FEF035"/>
<path d="M134.54 133.58C139.44 138.45 140.13 146.36 140.31 150.58C140.49 154.8 140.44 162.79 135.95 168.04C132.57 172.04 128.1 173.04 124.32 173.21C120.54 173.38 116 172.7 112.32 169C107.42 164.14 106.73 156.23 106.55 152C106.37 147.77 106.42 139.8 110.91 134.55C114.29 130.55 118.76 129.55 122.54 129.37C126.32 129.19 130.85 129.89 134.54 133.58ZM118.49 151.53C118.82 159.7 120.58 162.44 121.66 163.53C121.942 163.86 122.296 164.122 122.695 164.296C123.093 164.469 123.526 164.549 123.96 164.53C128.47 164.34 128.53 155.24 128.36 151.16C128 142.26 125.95 139.84 125.18 139.16C124.882 138.856 124.526 138.616 124.132 138.454C123.738 138.292 123.316 138.213 122.89 138.22C118.56 138.32 118.3 146.82 118.49 151.53Z" fill="#FEF035"/>
<path d="M157.53 145.39L162.1 145.32C164.91 145.32 169.49 145.51 172.7 148.39C175.7 151.09 176.28 154.93 176.32 157.67C176.5 169.99 166.52 171.12 161.03 171.2L147.67 171.4C146.57 171.4 146.44 170.75 146.43 170.2L145.84 130.8C145.84 129.7 146.49 129.57 147.04 129.56L171.99 129.19C172.72 129.19 172.91 129.48 172.91 129.78C172.91 130.08 172.8 130.28 172.8 130.46L171.57 137.74C171.507 138.051 171.329 138.327 171.071 138.513C170.813 138.698 170.495 138.779 170.18 138.74L157.43 138.93L157.53 145.39ZM157.78 162.39H159.68C162.3 162.39 165.28 161.81 165.22 157.79C165.22 154.43 162.83 153.37 160.39 153.41H157.65L157.78 162.39Z" fill="#FEF035"/>
<path d="M206.74 137.85C206.61 138.7 206.18 138.85 205.39 138.85L193.5 138.76V144.86L203.32 144.93C204.32 144.93 204.6 145.06 204.6 146.22L204.54 153.22C204.54 154.22 204.29 154.44 203.25 154.43L193.43 154.36V161.49L206.18 161.59C207.34 161.59 207.4 161.78 207.39 162.82L207.34 169.89C207.34 171.05 207.27 171.17 206.11 171.16L182.81 171C181.65 171 181.53 170.86 181.54 169.71L181.82 130.36C181.82 129.36 181.95 129.14 183.11 129.15L206.9 129.32C207.82 129.32 208.06 129.51 208.06 130C208.037 130.266 207.993 130.53 207.93 130.79L206.74 137.85Z" fill="#FEF035"/>
<path d="M219.42 171.47L219.09 180.55C219.09 181.28 218.76 181.39 218.15 181.37L209.92 181.07C209.25 181.07 208.92 180.86 208.98 180.12L209.6 162.75C209.6 161.84 210.19 161.67 210.68 161.69L213.36 161.79C216.67 156.17 218.08 150.97 218.52 138.79L218.82 130.44C218.82 129.71 219.16 129.54 219.82 129.56L244.94 130.47C245.42 130.47 245.85 130.56 245.82 131.23L244.68 162.87L247.68 162.98C247.823 162.979 247.965 163.008 248.095 163.067C248.226 163.125 248.343 163.21 248.437 163.317C248.532 163.424 248.603 163.551 248.645 163.687C248.687 163.824 248.699 163.968 248.68 164.11L248.04 181.67C248.051 181.769 248.039 181.869 248.004 181.963C247.969 182.056 247.913 182.14 247.841 182.208C247.768 182.276 247.68 182.326 247.584 182.354C247.489 182.382 247.388 182.388 247.29 182.37L238.81 182.07C238.2 182.07 237.91 181.85 237.93 181.07L238.26 172.07L219.42 171.47ZM234.2 139.59L228.96 139.4L228.74 145.4C228.581 148.441 228.105 151.458 227.32 154.4C226.693 157.135 225.683 159.768 224.32 162.22L233.32 162.55L234.2 139.59Z" fill="#FEF035"/>
<path d="M279.03 141.3C278.85 142.15 278.41 142.24 277.62 142.18L265.75 141.36L265.33 147.44L275.13 148.12C276.13 148.2 276.4 148.34 276.32 149.49L275.83 156.49C275.76 157.49 275.5 157.69 274.47 157.62L264.67 156.94L264.18 164.06L276.9 164.94C278.05 165.02 278.1 165.21 278.03 166.24L277.54 173.3C277.46 174.46 277.39 174.57 276.23 174.49L252.99 172.88C251.83 172.8 251.72 172.67 251.8 171.51L254.52 132.26C254.6 131.26 254.73 131.05 255.89 131.13L279.62 132.78C280.53 132.85 280.76 133.05 280.73 133.53C280.692 133.798 280.631 134.062 280.55 134.32L279.03 141.3Z" fill="#FEF035"/>
<path d="M290.79 177.98C289.414 177.839 288.111 177.294 287.045 176.414C285.979 175.533 285.197 174.357 284.799 173.032C284.401 171.708 284.404 170.296 284.807 168.973C285.211 167.65 285.997 166.477 287.067 165.601C288.137 164.725 289.442 164.185 290.818 164.05C292.195 163.915 293.58 164.19 294.8 164.842C296.02 165.493 297.019 166.491 297.672 167.71C298.326 168.929 298.603 170.314 298.47 171.69C298.278 173.539 297.363 175.238 295.925 176.416C294.486 177.594 292.641 178.156 290.79 177.98ZM297.56 159.22C297.4 160.22 297.26 160.41 296.23 160.31L288.76 159.57C287.76 159.47 287.62 159.28 287.67 158.24L288.56 133.81C288.63 133.08 288.83 132.97 289.86 133.08L300.3 134.08C301.3 134.19 301.56 134.39 301.48 135.08V135.45L297.56 159.22Z" fill="#FEF035"/>
<path d="M62.76 70.2C59.13 71.46 57.33 71.85 50.46 72.59L30.8 74.7C28.99 74.9 28.8 74.7001 28.58 72.91L21.96 11.3501C21.78 9.73005 21.96 9.42006 23.76 9.23006L42.56 7.23006C52.96 6.12006 57.24 6.43006 61.74 9.61006C63.7467 11.1281 65.4184 13.044 66.6504 15.2379C67.8825 17.4318 68.6483 19.8565 68.9 22.3601C69.53 28.1801 67.9 32.7001 62.49 36.3601C69.89 38.7501 73.49 43.6701 74.23 50.3601C75.14 58.7301 70.57 67.43 62.76 70.2ZM44.64 20.3001L41.11 20.6801L42.47 33.28L46.38 32.8601C51.06 32.3601 52.54 29.9801 52.08 25.6801C51.62 21.3801 50.08 19.7201 44.64 20.3001ZM46.97 45.53L43.82 45.8701L45.25 59.14L49.16 58.72C55.75 58.01 57.16 55.34 56.77 51.33C56.28 46.76 54.8 44.7 46.97 45.53Z" fill="#FEF035"/>
<path d="M130.37 66.78L115.71 67.57C113.88 67.67 113.78 67.48 113.71 65.66L111.1 17.0601L100.1 17.65L102.71 66.25C102.8 68.07 102.43 68.2501 100.8 68.3701L86.14 69.16C84.31 69.26 84.21 69.07 84.14 67.25L80.82 5.42005C80.74 3.79005 80.82 3.50005 82.64 3.42005L126.92 1.05005C128.74 0.950053 128.92 1.23005 129.04 2.86005L132.36 64.6801C132.37 66.5301 132.2 66.69 130.37 66.78Z" fill="#FEF035"/>
<path d="M180.84 13.53C180.67 14.87 180 15.07 178.75 15.09L160.04 15.36L160.17 24.96L175.63 24.7401C177.26 24.7401 177.63 24.9001 177.63 26.7401L177.79 37.7401C177.79 39.3801 177.43 39.67 175.79 39.69L160.34 39.91L160.5 51.15L180.56 50.86C182.38 50.86 182.48 51.12 182.56 52.75L182.72 63.89C182.72 65.71 182.65 65.89 180.83 65.89L144.16 66.41C142.33 66.41 142.16 66.25 142.11 64.41L141.2 2.53003C141.2 0.900029 141.36 0.610029 143.2 0.530029L180.64 0C182.08 0 182.47 0.26 182.48 1C182.455 1.42034 182.398 1.83818 182.31 2.25L180.84 13.53Z" fill="#FEF035"/>
<path d="M213.32 41.77L210.32 41.71L209.82 64.26C209.82 66.08 209.4 66.26 207.76 66.26L193.08 65.94C191.26 65.94 191.08 65.7 191.08 63.88L192.45 1.97001C192.45 0.150011 192.68 0.0600164 194.5 0.100016L213.41 0.50999C222.72 0.71999 227.98 1.88998 231.93 5.43998C235.6 8.77998 237.78 14.44 237.66 20.06C237.41 33.37 227.71 42.09 213.32 41.77ZM213.65 13.93L210.96 13.87L210.65 27.69L212.86 27.74C218.86 27.87 220.78 25.9 220.86 20.62C221 15.63 218.44 14.04 213.65 13.93Z" fill="#FEF035"/>
<path d="M284.35 17.4601C284.07 18.7901 283.35 18.9301 282.14 18.8501L263.46 17.6101L262.83 27.1901L278.25 28.1901C279.88 28.3001 280.25 28.5201 280.13 30.3401L279.4 41.3401C279.29 42.9701 278.89 43.2301 277.26 43.1201L261.84 42.1201L261.09 53.3301L281.09 54.6601C282.91 54.7801 282.99 55.0801 282.88 56.7101L282.2 67.8301C282.08 69.6501 281.97 69.8301 280.15 69.7101L243.56 67.2801C241.74 67.1601 241.56 66.9601 241.68 65.1401L245.78 3.3501C245.89 1.7201 246.1 1.45007 247.92 1.57007L285.2 4.05011C286.64 4.14011 287.01 4.46009 286.95 5.22009C286.899 5.63772 286.809 6.04955 286.68 6.45007L284.35 17.4601Z" fill="#FEF035"/>
<path d="M300.6 71.77L298.75 85.96C298.6 87.1 298.1 87.23 297.15 87.11L284.3 85.4301C283.25 85.2901 282.81 84.94 282.96 83.8L286.5 56.67C286.68 55.24 287.58 55.07 288.34 55.17L292.53 55.71C298.53 47.4 301.53 39.46 304 20.51L305.7 7.51001C305.85 6.37001 306.36 6.15003 307.41 6.28003L346.63 11.4C347.39 11.5 348.04 11.68 347.91 12.73L341.46 62.14L346.22 62.76C346.449 62.7661 346.674 62.8248 346.878 62.9316C347.081 63.0383 347.257 63.1903 347.392 63.3757C347.527 63.5612 347.618 63.7753 347.658 64.0014C347.697 64.2275 347.684 64.4597 347.62 64.6801L344.04 92.1C344.047 92.2598 344.015 92.4188 343.948 92.5638C343.881 92.7089 343.78 92.8357 343.654 92.9337C343.527 93.0316 343.379 93.0978 343.222 93.1268C343.065 93.1557 342.903 93.1465 342.75 93.1L329.52 91.38C328.52 91.25 328.12 90.91 328.27 89.76L330.11 75.67L300.6 71.77ZM328.42 23.9901L320.2 22.92L318.98 32.25C318.286 36.985 317.096 41.6339 315.43 46.1201C314.063 50.3185 312.107 54.3015 309.62 57.95L323.71 59.79L328.42 23.9901Z" fill="#FEF035"/>
<path d="M181.08 111.86C181.087 111.922 181.081 111.984 181.062 112.043C181.043 112.101 181.012 112.155 180.97 112.201C180.928 112.246 180.877 112.282 180.82 112.306C180.763 112.331 180.702 112.342 180.64 112.34H174.01C173.42 112.34 173.38 112.06 173.38 111.66L173.51 85.7201C173.51 85.2401 173.71 85.1201 174.15 85.1301H180.74C180.805 85.1216 180.87 85.1282 180.932 85.1495C180.994 85.1708 181.049 85.2061 181.095 85.2527C181.141 85.2992 181.175 85.3558 181.195 85.4178C181.215 85.4798 181.22 85.5457 181.21 85.6101V95.4501H182.48C184.23 95.4501 185.02 94.4501 185.35 92.4501L185.8 90.1101C186.127 88.4629 187.035 86.988 188.358 85.9544C189.682 84.9209 191.333 84.3977 193.01 84.4801C193.64 84.4801 193.92 84.6401 194.01 85.0001L195.22 89.2101C195.24 89.2889 195.24 89.3713 195.22 89.4501C195.213 89.57 195.167 89.6843 195.089 89.7761C195.012 89.868 194.907 89.9325 194.79 89.9601L193.79 90.2301C192.84 90.4701 192.24 91.1401 191.96 92.6401L191.51 94.6401C191.349 95.4452 190.97 96.1907 190.414 96.7954C189.859 97.4002 189.148 97.841 188.36 98.0701V98.1901C189.302 98.4783 190.143 99.0277 190.786 99.7747C191.428 100.522 191.846 101.435 191.99 102.41L192.41 104.68C192.8 106.68 193.59 106.79 194.41 107.03L195.21 107.23C195.44 107.31 195.8 107.43 195.8 107.79C195.819 107.855 195.819 107.925 195.8 107.99L194.25 112.53C194.13 112.85 194.05 113.13 193.33 113.12C190.67 113.12 186.51 112.61 185.78 107.69L185.2 103.53C185.181 103.198 185.096 102.873 184.95 102.574C184.804 102.275 184.599 102.009 184.349 101.79C184.098 101.571 183.807 101.404 183.491 101.3C183.175 101.195 182.842 101.154 182.51 101.18H181.16L181.08 111.86Z" fill="#FEF035"/>
<path d="M358.68 113.99C358.557 114.005 358.433 114.005 358.31 113.99C335.88 109.69 300.83 103.76 261.2 99.9901C260.937 99.9651 260.682 99.8887 260.449 99.7651C260.216 99.6415 260.009 99.4733 259.841 99.2699C259.673 99.0666 259.547 98.8321 259.47 98.5799C259.392 98.3277 259.365 98.0627 259.39 97.8001C259.415 97.5374 259.491 97.2823 259.615 97.0492C259.739 96.8161 259.907 96.6096 260.11 96.4415C260.314 96.2734 260.548 96.1471 260.8 96.0696C261.052 95.9922 261.317 95.9651 261.58 95.9901C301.36 99.7601 336.58 105.71 359.06 109.99C359.318 110.039 359.564 110.139 359.783 110.283C360.003 110.427 360.192 110.613 360.34 110.831C360.487 111.048 360.591 111.292 360.644 111.549C360.697 111.807 360.699 112.072 360.65 112.33C360.57 112.795 360.328 113.216 359.968 113.52C359.607 113.823 359.151 113.99 358.68 113.99Z" fill="#FEF035"/>
<path d="M6.99005 111.43C6.45962 111.479 5.9314 111.315 5.52164 110.975C5.11187 110.635 4.85412 110.146 4.80505 109.615C4.75599 109.085 4.91963 108.556 5.26001 108.147C5.60039 107.737 6.08962 107.479 6.62006 107.43C6.99006 107.36 44.5201 100.32 102.27 96.9101C102.533 96.8943 102.796 96.9305 103.045 97.0164C103.293 97.1024 103.523 97.2364 103.719 97.411C103.916 97.5856 104.077 97.7972 104.192 98.0339C104.307 98.2705 104.374 98.5275 104.39 98.7901C104.406 99.0527 104.37 99.3159 104.284 99.5646C104.198 99.8133 104.064 100.043 103.889 100.239C103.715 100.436 103.503 100.597 103.266 100.712C103.03 100.827 102.773 100.894 102.51 100.91C45.01 104.31 7.73005 111.29 7.36005 111.37C7.23854 111.4 7.11481 111.42 6.99005 111.43Z" fill="#FEF035"/>
</mask>
<g mask="url(#mask0)">
<g filter="url(#filter1_f)">
<ellipse cx="193.5" cy="81" rx="86.5" ry="91" fill="white"/>
</g>
</g>
<defs>
<filter id="filter0_d" x="0.796509" y="0" width="363.889" height="190.38" filterUnits="userSpaceOnUse" color-interpolation-filters="sRGB">
<feFlood flood-opacity="0" result="BackgroundImageFix"/>
<feColorMatrix in="SourceAlpha" type="matrix" values="0 0 0 0 0 0 0 0 0 0 0 0 0 0 0 0 0 0 127 0" result="hardAlpha"/>
<feOffset dy="4"/>
<feGaussianBlur stdDeviation="2"/>
<feComposite in2="hardAlpha" operator="out"/>
<feColorMatrix type="matrix" values="0 0 0 0 0.407843 0 0 0 0 0.121569 0 0 0 0 0.0901961 0 0 0 1 0"/>
<feBlend mode="normal" in2="BackgroundImageFix" result="effect1_dropShadow"/>
<feBlend mode="normal" in="SourceGraphic" in2="effect1_dropShadow" result="shape"/>
</filter>
<filter id="filter1_f" x="57" y="-60" width="273" height="282" filterUnits="userSpaceOnUse" color-interpolation-filters="sRGB">
<feFlood flood-opacity="0" result="BackgroundImageFix"/>
<feBlend mode="normal" in="SourceGraphic" in2="BackgroundImageFix" result="shape"/>
<feGaussianBlur stdDeviation="25" result="effect1_foregroundBlur"/>
</filter>
</defs>
</svg>
